<svg width="37" height="37" viewBox="0 0 37 37" fill="none" xmlns="http://www.w3.org/2000/svg">
<path fill-rule="evenodd" clip-rule="evenodd" d="M11.5084 1.64374C13.3168 1.56049 13.8933 1.54199 18.4998 1.54199C23.1063 1.54199 23.6829 1.56203 25.4898 1.64374C27.2966 1.72544 28.5299 2.01374 29.6091 2.43153C30.7391 2.85857 31.7643 3.52611 32.6122 4.38944C33.4756 5.23582 34.1416 6.25949 34.5671 7.39107C34.9864 8.47024 35.2732 9.70357 35.3564 11.5073C35.4397 13.3187 35.4582 13.8953 35.4582 18.5003C35.4582 23.1068 35.4381 23.6834 35.3564 25.4917C35.2747 27.2955 34.9864 28.5288 34.5671 29.608C34.1416 30.7397 33.4745 31.7651 32.6122 32.6127C31.7643 33.476 30.7391 34.142 29.6091 34.5675C28.5299 34.9869 27.2966 35.2736 25.4928 35.3569C23.6829 35.4401 23.1063 35.4586 18.4998 35.4586C13.8933 35.4586 13.3168 35.4386 11.5084 35.3569C9.70463 35.2752 8.47129 34.9869 7.39213 34.5675C6.26042 34.142 5.23506 33.4749 4.38742 32.6127C3.52467 31.7658 2.85703 30.7409 2.43105 29.6095C2.01325 28.5304 1.7265 27.297 1.64325 25.4933C1.56 23.6818 1.5415 23.1052 1.5415 18.5003C1.5415 13.8938 1.56155 13.3172 1.64325 11.5104C1.72496 9.70357 2.01325 8.47024 2.43105 7.39107C2.85766 6.25961 3.52581 5.23476 4.38896 4.3879C5.2354 3.52534 6.25973 2.85771 7.39059 2.43153C8.46975 2.01374 9.70309 1.72699 11.5068 1.64374H11.5084ZM25.3525 4.69624C23.5642 4.61453 23.0277 4.59757 18.4998 4.59757C13.972 4.59757 13.4355 4.61453 11.6471 4.69624C9.99292 4.77178 9.09567 5.04774 8.4975 5.28053C7.70663 5.58886 7.14084 5.95424 6.5473 6.54778C5.98466 7.09515 5.55166 7.7615 5.28005 8.49799C5.04725 9.09615 4.7713 9.9934 4.69575 11.6476C4.61405 13.4359 4.59709 13.9724 4.59709 18.5003C4.59709 23.0282 4.61405 23.5647 4.69575 25.353C4.7713 27.0072 5.04725 27.9045 5.28005 28.5026C5.55138 29.238 5.98459 29.9055 6.5473 30.4528C7.09459 31.0155 7.76213 31.4487 8.4975 31.7201C9.09567 31.9529 9.99292 32.2288 11.6471 32.3044C13.4355 32.3861 13.9704 32.403 18.4998 32.403C23.0293 32.403 23.5642 32.3861 25.3525 32.3044C27.0068 32.2288 27.904 31.9529 28.5022 31.7201C29.293 31.4117 29.8588 31.0464 30.4524 30.4528C31.0151 29.9055 31.4483 29.238 31.7196 28.5026C31.9524 27.9045 32.2284 27.0072 32.3039 25.353C32.3856 23.5647 32.4026 23.0282 32.4026 18.5003C32.4026 13.9724 32.3856 13.4359 32.3039 11.6476C32.2284 9.9934 31.9524 9.09615 31.7196 8.49799C31.4113 7.70711 31.0459 7.14132 30.4524 6.54778C29.905 5.98518 29.2386 5.55219 28.5022 5.28053C27.904 5.04774 27.0068 4.77178 25.3525 4.69624ZM16.3338 23.7281C17.5435 24.2316 18.8905 24.2996 20.1447 23.9204C21.3989 23.5411 22.4826 22.7382 23.2106 21.6487C23.9386 20.5593 24.2658 19.2509 24.1362 17.947C24.0067 16.6431 23.4286 15.4246 22.5005 14.4997C21.9088 13.9084 21.1935 13.4557 20.4058 13.1741C19.6182 12.8924 18.778 12.789 17.9456 12.8711C17.1132 12.9532 16.3094 13.2188 15.592 13.6489C14.8745 14.0789 14.2614 14.6627 13.7967 15.3581C13.332 16.0536 13.0272 16.8434 12.9044 17.6708C12.7816 18.4982 12.8437 19.3425 13.0863 20.143C13.329 20.9434 13.7461 21.6801 14.3076 22.3001C14.8691 22.92 15.5611 23.4077 16.3338 23.7281ZM12.3363 12.3367C13.1457 11.5273 14.1066 10.8852 15.1641 10.4472C16.2217 10.0091 17.3552 9.7837 18.4998 9.7837C19.6445 9.7837 20.778 10.0091 21.8355 10.4472C22.8931 10.8852 23.854 11.5273 24.6634 12.3367C25.4728 13.1461 26.1149 14.107 26.5529 15.1646C26.991 16.2221 27.2165 17.3556 27.2165 18.5003C27.2165 19.645 26.991 20.7784 26.5529 21.836C26.1149 22.8935 25.4728 23.8545 24.6634 24.6639C23.0287 26.2986 20.8116 27.2169 18.4998 27.2169C16.188 27.2169 13.9709 26.2986 12.3363 24.6639C10.7016 23.0292 9.78321 20.8121 9.78321 18.5003C9.78321 16.1885 10.7016 13.9714 12.3363 12.3367ZM29.1497 11.0818C29.3502 10.8926 29.5108 10.665 29.6219 10.4127C29.733 10.1603 29.7922 9.88821 29.7963 9.6125C29.8003 9.33679 29.7489 9.06308 29.6453 8.80757C29.5416 8.55206 29.3878 8.31994 29.1928 8.12496C28.9978 7.92999 28.7657 7.77611 28.5102 7.67245C28.2547 7.56879 27.9809 7.51745 27.7052 7.52147C27.4295 7.52549 27.1574 7.58479 26.905 7.69585C26.6527 7.80692 26.4251 7.96749 26.2359 8.16807C25.8679 8.55816 25.6665 9.0763 25.6743 9.6125C25.6821 10.1487 25.8986 10.6607 26.2778 11.0399C26.657 11.4191 27.169 11.6356 27.7052 11.6434C28.2414 11.6512 28.7596 11.4498 29.1497 11.0818Z" fill="#0E3775"/>
</svg>
