<svg width="58" height="58" viewBox="0 0 58 58" fill="none" xmlns="http://www.w3.org/2000/svg">
<g clip-path="url(#clip0_8_149)">
<path d="M48.3338 3.3572e-05H44.0877C42.8175 -0.00332453 41.5592 0.245275 40.3857 0.731443C39.2121 1.21761 38.1467 1.93169 37.251 2.83237L29.4161 10.6672C27.6081 12.4829 26.5901 14.9391 26.5838 17.5015V25.8704C18.691 31.7067 8.26304 39.4835 6.95804 40.7909C5.90654 41.8495 5.20811 43.2073 4.95848 44.6783C4.70884 46.1492 4.92021 47.6614 5.56363 49.0076L0.708544 53.8748C0.255489 54.328 0.000976563 54.9425 0.000976562 55.5834C0.000976562 56.2242 0.255489 56.8387 0.708544 57.2919C1.16174 57.745 1.77631 57.9995 2.41713 57.9995C3.05794 57.9995 3.67252 57.745 4.12571 57.2919L8.97596 52.4417C10.3224 53.0984 11.8408 53.3166 13.3177 53.0656C14.7946 52.8147 16.1556 52.1071 17.2095 51.0424C18.517 49.735 26.2938 39.3095 32.1421 31.4167H40.5086C41.7789 31.42 43.0372 31.1714 44.2107 30.6853C45.3842 30.1991 46.4497 29.485 47.3454 28.5844L55.1802 20.7495C56.9838 18.9318 57.9973 16.4759 58.0005 13.9152V9.6667C58.0005 7.10294 56.982 4.64418 55.1692 2.83133C53.3563 1.01848 50.8975 3.3572e-05 48.3338 3.3572e-05ZM13.7924 47.6253C13.3329 48.0663 12.7207 48.3126 12.0838 48.3126C11.4469 48.3126 10.8347 48.0663 10.3752 47.6253C9.92216 47.1721 9.66764 46.5575 9.66764 45.9167C9.66764 45.2759 9.92216 44.6613 10.3752 44.2081C11.1945 43.3961 17.6252 38.5459 24.7495 33.2509C19.4522 40.3729 14.602 46.8084 13.7924 47.6253ZM53.1671 13.9152C53.1639 15.1964 52.655 16.4245 51.751 17.3324L43.9161 25.1672C43.4679 25.6174 42.935 25.9743 42.348 26.2174C41.7611 26.4605 41.1318 26.5849 40.4965 26.5834H35.697L38.092 23.3257L47.6257 13.7919C47.8565 13.569 48.0406 13.3023 48.1673 13.0075C48.2939 12.7127 48.3606 12.3955 48.3634 12.0747C48.3662 11.7538 48.305 11.4355 48.1835 11.1385C48.062 10.8416 47.8826 10.5717 47.6557 10.3448C47.4288 10.1179 47.1589 9.93847 46.8619 9.81696C46.5649 9.69545 46.2467 9.63431 45.9258 9.63709C45.6049 9.63988 45.2878 9.70655 44.993 9.8332C44.6981 9.95986 44.4315 10.144 44.2085 10.3748L34.6772 19.9061L31.4171 22.3034V17.5015C31.4203 16.2203 31.9293 14.9922 32.8333 14.0844L40.6681 6.24953C41.1163 5.79932 41.6493 5.44237 42.2362 5.1993C42.8232 4.95623 43.4524 4.83186 44.0877 4.83337H48.3338C49.6157 4.83337 50.845 5.34259 51.7515 6.24902C52.6579 7.15544 53.1671 8.38482 53.1671 9.6667V13.9152Z" fill="#0E3775"/>
</g>
<defs>
<clipPath id="clip0_8_149">
<rect width="58" height="58" fill="white"/>
</clipPath>
</defs>
</svg>
