<svg width="58" height="58" viewBox="0 0 58 58" fill="none" xmlns="http://www.w3.org/2000/svg">
<g clip-path="url(#clip0_8_145)">
<path d="M29 29C31.8678 29 34.6713 28.1496 37.0558 26.5563C39.4403 24.963 41.2988 22.6984 42.3963 20.0489C43.4937 17.3994 43.7809 14.4839 43.2214 11.6712C42.6619 8.85847 41.2809 6.27482 39.2531 4.24696C37.2252 2.21909 34.6415 0.838106 31.8288 0.27862C29.0161 -0.280866 26.1006 0.00628269 23.4511 1.10375C20.8016 2.20122 18.537 4.05972 16.9437 6.44424C15.3504 8.82875 14.5 11.6322 14.5 14.5C14.5038 18.3444 16.0327 22.0303 18.7512 24.7488C21.4696 27.4672 25.1555 28.9961 29 29ZM29 4.83334C30.9119 4.83334 32.7808 5.40028 34.3705 6.46247C35.9602 7.52465 37.1992 9.03438 37.9308 10.8007C38.6625 12.5671 38.8539 14.5107 38.4809 16.3859C38.1079 18.261 37.1873 19.9834 35.8354 21.3354C34.4835 22.6873 32.761 23.6079 30.8859 23.9809C29.0107 24.3539 27.0671 24.1625 25.3007 23.4308C23.5344 22.6992 22.0246 21.4602 20.9625 19.8705C19.9003 18.2808 19.3333 16.4119 19.3333 14.5C19.3333 11.9362 20.3518 9.47749 22.1646 7.66464C23.9775 5.85179 26.4362 4.83334 29 4.83334Z" fill="#0E3775"/>
<path d="M29 33.835C23.2335 33.8414 17.705 36.135 13.6275 40.2125C9.54996 44.2901 7.2564 49.8185 7.25 55.585C7.25 56.226 7.50461 56.8407 7.95783 57.2939C8.41104 57.7471 9.02573 58.0017 9.66667 58.0017C10.3076 58.0017 10.9223 57.7471 11.3755 57.2939C11.8287 56.8407 12.0833 56.226 12.0833 55.585C12.0833 51.0985 13.8656 46.7956 17.0381 43.6232C20.2106 40.4507 24.5134 38.6684 29 38.6684C33.4866 38.6684 37.7894 40.4507 40.9619 43.6232C44.1344 46.7956 45.9167 51.0985 45.9167 55.585C45.9167 56.226 46.1713 56.8407 46.6245 57.2939C47.0777 57.7471 47.6924 58.0017 48.3333 58.0017C48.9743 58.0017 49.589 57.7471 50.0422 57.2939C50.4954 56.8407 50.75 56.226 50.75 55.585C50.7436 49.8185 48.45 44.2901 44.3725 40.2125C40.295 36.135 34.7665 33.8414 29 33.835Z" fill="#0E3775"/>
</g>
<defs>
<clipPath id="clip0_8_145">
<rect width="58" height="58" fill="white"/>
</clipPath>
</defs>
</svg>
