<svg width="28" height="28" viewBox="0 0 28 28" fill="none" xmlns="http://www.w3.org/2000/svg">
<g clip-path="url(#clip0_8_167)">
<path d="M15.1665 1.16658C15.1665 0.857158 15.2894 0.560412 15.5082 0.341619C15.727 0.122827 16.0237 -8.99973e-05 16.3331 -8.99973e-05C19.4263 0.00330686 22.3918 1.23356 24.579 3.42075C26.7661 5.60794 27.9964 8.57343 27.9998 11.6666C27.9998 11.976 27.8769 12.2727 27.6581 12.4915C27.4393 12.7103 27.1425 12.8332 26.8331 12.8332C26.5237 12.8332 26.227 12.7103 26.0082 12.4915C25.7894 12.2727 25.6665 11.976 25.6665 11.6666C25.6637 9.19208 24.6795 6.81972 22.9297 5.06998C21.18 3.32024 18.8076 2.33602 16.3331 2.33324C16.0237 2.33324 15.727 2.21033 15.5082 1.99153C15.2894 1.77274 15.1665 1.47599 15.1665 1.16658ZM16.3331 6.99991C17.5708 6.99991 18.7578 7.49157 19.633 8.36674C20.5081 9.24191 20.9998 10.4289 20.9998 11.6666C20.9998 11.976 21.1227 12.2727 21.3415 12.4915C21.5603 12.7103 21.857 12.8332 22.1665 12.8332C22.4759 12.8332 22.7726 12.7103 22.9914 12.4915C23.2102 12.2727 23.3331 11.976 23.3331 11.6666C23.3313 9.81063 22.5932 8.03123 21.2808 6.71888C19.9685 5.40652 18.1891 4.66843 16.3331 4.66658C16.0237 4.66658 15.727 4.78949 15.5082 5.00828C15.2894 5.22708 15.1665 5.52382 15.1665 5.83324C15.1665 6.14266 15.2894 6.43941 15.5082 6.6582C15.727 6.87699 16.0237 6.99991 16.3331 6.99991ZM26.9416 19.5287C27.6177 20.2067 27.9974 21.1251 27.9974 22.0826C27.9974 23.04 27.6177 23.9584 26.9416 24.6364L25.88 25.8602C16.325 35.0081 -6.92667 11.7622 2.07998 2.17691L3.42165 1.01024C4.10038 0.353034 5.01057 -0.0105328 5.9553 -0.00179935C6.90004 0.00693404 7.80335 0.387265 8.46981 1.05691C8.50598 1.09308 10.6678 3.90124 10.6678 3.90124C11.3093 4.57514 11.6664 5.47033 11.6648 6.40071C11.6633 7.3311 11.3033 8.22511 10.6596 8.89691L9.30864 10.5956C10.0563 12.4122 11.1555 14.0632 12.5432 15.4537C13.9309 16.8442 15.5797 17.9468 17.3948 18.6981L19.104 17.3389C19.7759 16.6957 20.6697 16.3362 21.5998 16.3349C22.5299 16.3335 23.4248 16.6906 24.0985 17.3319C24.0985 17.3319 26.9055 19.4926 26.9416 19.5287ZM25.3363 21.2251C25.3363 21.2251 22.5445 19.0772 22.5083 19.0411C22.2679 18.8028 21.9432 18.6691 21.6047 18.6691C21.2662 18.6691 20.9415 18.8028 20.7011 19.0411C20.6696 19.0737 18.3165 20.9486 18.3165 20.9486C18.1579 21.0748 17.9692 21.1575 17.7689 21.1886C17.5686 21.2197 17.3637 21.1981 17.1743 21.1259C14.8228 20.2504 12.687 18.8798 10.9114 17.1068C9.1359 15.3339 7.76211 13.2001 6.88315 10.8499C6.80521 10.6579 6.7798 10.4487 6.80953 10.2436C6.83926 10.0386 6.92306 9.84517 7.05231 9.68324C7.05231 9.68324 8.92714 7.32891 8.95864 7.29858C9.19696 7.05823 9.33067 6.73346 9.33067 6.39499C9.33067 6.05652 9.19696 5.73176 8.95864 5.49141C8.92248 5.45641 6.77465 2.66224 6.77465 2.66224C6.5307 2.4435 6.21232 2.32635 5.88477 2.33481C5.55722 2.34327 5.24531 2.4767 5.01298 2.70774L3.67132 3.87441C-2.91101 11.7891 17.2385 30.8209 24.1743 24.2666L25.2371 23.0416C25.4862 22.8109 25.6358 22.4924 25.6543 22.1534C25.6728 21.8144 25.5588 21.4815 25.3363 21.2251Z" fill="#0E3775"/>
</g>
<defs>
<clipPath id="clip0_8_167">
<rect width="28" height="28" fill="white"/>
</clipPath>
</defs>
</svg>
