<svg width="58" height="58" viewBox="0 0 58 58" fill="none" xmlns="http://www.w3.org/2000/svg">
<g clip-path="url(#clip0_8_162)">
<path d="M48.3338 28.9998C46.8512 28.9995 45.3885 29.3408 44.0591 29.9971C42.7297 30.6534 41.5694 31.6071 40.6681 32.7843L40.4989 32.7118C41.1636 30.6528 41.2632 28.4532 40.7874 26.3426C40.3116 24.232 39.2778 22.2878 37.7941 20.7132C36.3103 19.1386 34.4309 17.9912 32.3523 17.3909C30.2737 16.7906 28.072 16.7595 25.9772 17.3007L25.7573 16.8851C27.5127 15.3232 28.6383 13.1748 28.9231 10.8425C29.2079 8.51025 28.6325 6.15412 27.3045 4.21572C25.9766 2.27733 23.9874 0.889729 21.7096 0.312973C19.4319 -0.263784 17.022 0.00989366 14.9315 1.08271C12.8411 2.15553 11.2137 3.95386 10.3542 6.14066C9.49475 8.32747 9.46226 10.7526 10.2628 12.9617C11.0634 15.1707 12.6421 17.012 14.703 18.1404C16.7639 19.2689 19.1656 19.607 21.458 19.0915L21.6344 19.4226C19.2179 21.2769 17.5923 23.9768 17.084 26.9801C16.5756 29.9835 17.2222 33.0679 18.8939 35.6142L14.3385 39.8748C12.2794 38.7372 9.87618 38.3894 7.57908 38.8967C5.28198 39.4041 3.24872 40.7316 1.86029 42.6307C0.471869 44.5297 -0.176416 46.8698 0.0369202 49.2126C0.250256 51.5553 1.31057 53.7399 3.01917 55.3569C4.72777 56.9739 6.96739 57.9124 9.31834 57.9964C11.6693 58.0805 13.9702 57.3044 15.7899 55.8135C17.6097 54.3227 18.8233 52.2194 19.2034 49.8979C19.5835 47.5764 19.104 45.1959 17.8548 43.2026L22.2966 39.0507C24.7362 40.6813 27.6864 41.3671 30.595 40.9796C33.5037 40.5922 36.1715 39.1581 38.0992 36.9458L38.7734 37.2334C38.4809 39.1847 38.7926 41.1789 39.6665 42.948C40.5404 44.717 41.9348 46.1763 43.6623 47.1297C45.3898 48.0832 47.3677 48.4851 49.3304 48.2816C51.293 48.078 53.1464 47.2788 54.6415 45.9912C56.1366 44.7035 57.2019 42.9892 57.6942 41.0785C58.1865 39.1677 58.0824 37.1521 57.3956 35.3022C56.7089 33.4524 55.4726 31.8571 53.8527 30.7304C52.2328 29.6038 50.3069 28.9999 48.3338 28.9998ZM14.5004 9.6665C14.5004 8.71056 14.7839 7.77608 15.315 6.98125C15.8461 6.18641 16.601 5.56691 17.4841 5.20109C18.3673 4.83526 19.3391 4.73955 20.2767 4.92604C21.2143 5.11254 22.0755 5.57287 22.7515 6.24882C23.4274 6.92477 23.8877 7.78599 24.0742 8.72357C24.2607 9.66114 24.165 10.6329 23.7992 11.5161C23.4334 12.3993 22.8139 13.1541 22.019 13.6852C21.2242 14.2163 20.2897 14.4998 19.3338 14.4998C18.0519 14.4998 16.8225 13.9906 15.9161 13.0842C15.0097 12.1777 14.5004 10.9484 14.5004 9.6665ZM9.6671 53.1665C8.71116 53.1665 7.77668 52.883 6.98184 52.3519C6.18701 51.8208 5.56751 51.066 5.20168 50.1828C4.83586 49.2996 4.74014 48.3278 4.92664 47.3902C5.11313 46.4526 5.57346 45.5914 6.24942 44.9155C6.92537 44.2395 7.78659 43.7792 8.72416 43.5927C9.66174 43.4062 10.6336 43.5019 11.5167 43.8677C12.3999 44.2335 13.1548 44.853 13.6859 45.6479C14.217 46.4427 14.5004 47.3772 14.5004 48.3331C14.5004 49.615 13.9912 50.8444 13.0848 51.7508C12.1784 52.6572 10.949 53.1665 9.6671 53.1665ZM29.0004 36.2498C27.4313 36.2467 25.9055 35.7346 24.6522 34.7904C23.3988 33.8462 22.4857 32.5209 22.0499 31.0135C21.614 29.5061 21.679 27.8979 22.2351 26.4306C22.7912 24.9632 23.8083 23.7159 25.1338 22.876L26.1174 22.3516C27.1057 21.9216 28.1774 21.7175 29.2546 21.754C30.3317 21.7904 31.3872 22.0666 32.3442 22.5623C33.3011 23.0581 34.1355 23.761 34.7867 24.6198C35.4378 25.4787 35.8892 26.4719 36.1081 27.5272C36.3271 28.5825 36.3079 29.6733 36.0522 30.7203C35.7964 31.7673 35.3104 32.7441 34.6296 33.5796C33.9488 34.4151 33.0902 35.0883 32.1165 35.5502C31.1427 36.0121 30.0782 36.2511 29.0004 36.2498ZM48.3338 43.4998C47.3778 43.4998 46.4433 43.2163 45.6485 42.6852C44.8537 42.1541 44.2342 41.3993 43.8684 40.5161C43.5025 39.6329 43.4068 38.6611 43.5933 37.7235C43.7798 36.786 44.2401 35.9247 44.9161 35.2488C45.592 34.5728 46.4533 34.1125 47.3908 33.926C48.3284 33.7395 49.3002 33.8352 50.1834 34.2011C51.0666 34.5669 51.8214 35.1864 52.3525 35.9812C52.8836 36.7761 53.1671 37.7105 53.1671 38.6665C53.1671 39.9484 52.6579 41.1777 51.7515 42.0842C50.845 42.9906 49.6157 43.4998 48.3338 43.4998Z" fill="#0E3775"/>
</g>
<defs>
<clipPath id="clip0_8_162">
<rect width="58" height="58" fill="white"/>
</clipPath>
</defs>
</svg>
