<svg width="28" height="28" viewBox="0 0 28 28" fill="none" xmlns="http://www.w3.org/2000/svg">
<g clip-path="url(#clip0_8_152)">
<path d="M26.2022 9.4503L18.1242 1.7083C17.0294 0.625044 15.5524 0.0159831 14.0123 0.0127086C12.4722 0.00943409 10.9927 0.612209 9.89333 1.6908L1.79667 9.4503C1.23038 9.99571 0.779523 10.6494 0.470877 11.3726C0.162231 12.0957 0.00210026 12.8735 0 13.6597V22.167C0.0018525 23.7135 0.617029 25.1962 1.71059 26.2898C2.80415 27.3833 4.28681 27.9985 5.83333 28.0003H22.1667C23.7132 27.9985 25.1958 27.3833 26.2894 26.2898C27.383 25.1962 27.9981 23.7135 28 22.167V13.6597C27.9979 12.8733 27.8377 12.0954 27.5289 11.3723C27.22 10.6492 26.7688 9.99549 26.2022 9.4503ZM11.5255 3.35796C12.187 2.70229 13.0818 2.33598 14.0132 2.33948C14.9446 2.34298 15.8366 2.716 16.4932 3.37663L24.3647 10.918L16.4745 18.8093C15.8075 19.4451 14.9214 19.7998 14 19.7998C13.0786 19.7998 12.1925 19.4451 11.5255 18.8093L3.63417 10.918L11.5255 3.35796ZM25.6667 22.167C25.6667 23.0953 25.2979 23.9855 24.6415 24.6419C23.9852 25.2983 23.0949 25.667 22.1667 25.667H5.83333C4.90508 25.667 4.01484 25.2983 3.35846 24.6419C2.70208 23.9855 2.33333 23.0953 2.33333 22.167V13.6597C2.33451 13.4332 2.35756 13.2074 2.40217 12.9853L9.87583 20.459C10.9733 21.5458 12.4555 22.1554 14 22.1554C15.5445 22.1554 17.0267 21.5458 18.1242 20.459L25.5978 12.9853C25.6424 13.2074 25.6655 13.4332 25.6667 13.6597V22.167Z" fill="#0E3775"/>
</g>
<defs>
<clipPath id="clip0_8_152">
<rect width="28" height="28" fill="white"/>
</clipPath>
</defs>
</svg>
