<svg width="58" height="58" viewBox="0 0 58 58" fill="none" xmlns="http://www.w3.org/2000/svg">
<g clip-path="url(#clip0_8_140)">
<path d="M58.0003 28.9591C57.9952 26.9918 57.389 25.0731 56.263 23.4599C55.137 21.8467 53.545 20.6161 51.7001 19.9329L51.6083 19.713C49.2108 13.8488 44.6211 9.15064 38.8144 6.61705L38.0193 6.26905C37.3348 4.42977 36.1042 2.84381 34.4925 1.72395C32.8809 0.604095 30.9653 0.00390625 29.0028 0.00390625C27.0402 0.00390625 25.1246 0.604095 23.513 1.72395C21.9013 2.84381 20.6707 4.42977 19.9862 6.26905L18.976 6.72339C13.2208 9.33737 8.69116 14.0643 6.32475 19.9256C4.47684 20.5989 2.87973 21.8225 1.74868 23.4314C0.617626 25.0404 0.00700171 26.9575 -0.000898917 28.9242C-0.00879954 30.8909 0.586403 32.8128 1.70449 34.4308C2.82258 36.0488 4.4098 37.2852 6.25225 37.9733L6.56159 38.6983C8.98635 44.3264 13.4395 48.8365 19.0364 51.3326L19.9862 51.758C20.6726 53.5946 21.9037 55.1778 23.5147 56.2955C25.1256 57.4132 27.0396 58.0121 29.0003 58.0121C30.9611 58.0121 32.875 57.4132 34.486 56.2955C36.097 55.1778 37.3281 53.5946 38.0145 51.758L38.9014 51.364C44.756 48.7462 49.3588 43.9483 51.7315 37.9902C53.5701 37.2999 55.1548 36.0659 56.2747 34.4526C57.3946 32.8392 57.9965 30.923 58.0003 28.9591ZM29.0003 4.83355C29.9563 4.83355 30.8908 5.11702 31.6856 5.64812C32.4804 6.17921 33.0999 6.93407 33.4658 7.81725C33.8316 8.70043 33.9273 9.67225 33.7408 10.6098C33.5543 11.5474 33.094 12.4086 32.418 13.0846C31.7421 13.7605 30.8808 14.2208 29.9433 14.4073C29.0057 14.5938 28.0339 14.4981 27.1507 14.1323C26.2675 13.7665 25.5127 13.147 24.9816 12.3521C24.4505 11.5573 24.167 10.6228 24.167 9.66689C24.167 8.38501 24.6762 7.15563 25.5827 6.2492C26.4891 5.34278 27.7185 4.83355 29.0003 4.83355ZM9.638 24.1306L9.83617 24.2055L9.86033 24.1451C11.0713 24.2535 12.1908 24.8348 12.9761 25.763C13.7614 26.6912 14.1492 27.8915 14.0555 29.1037C13.9617 30.3159 13.394 31.4423 12.4753 32.2387C11.5566 33.0351 10.3611 33.4374 9.14784 33.3583C7.93459 33.2791 6.80141 32.725 5.99397 31.816C5.18653 30.907 4.76989 29.7164 4.83439 28.5023C4.89888 27.2882 5.4393 26.1484 6.3385 25.3301C7.23769 24.5117 8.4232 24.0808 9.638 24.1306ZM29.0003 53.1669C28.0444 53.1669 27.1099 52.8834 26.3151 52.3523C25.5202 51.8212 24.9007 51.0664 24.5349 50.1832C24.1691 49.3 24.0734 48.3282 24.2599 47.3906C24.4464 46.453 24.9067 45.5918 25.5827 44.9159C26.2586 44.2399 27.1198 43.7796 28.0574 43.5931C28.995 43.4066 29.9668 43.5023 30.85 43.8681C31.7331 44.2339 32.488 44.8534 33.0191 45.6483C33.5502 46.4431 33.8337 47.3776 33.8337 48.3335C33.8337 49.6154 33.3244 50.8448 32.418 51.7512C31.5116 52.6576 30.2822 53.1669 29.0003 53.1669ZM38.4084 46.1924C37.9273 44.0561 36.7336 42.1471 35.0236 40.7793C33.3135 39.4115 31.1889 38.6663 28.9991 38.6663C26.8093 38.6663 24.6847 39.4115 22.9747 40.7793C21.2646 42.1471 20.0709 44.0561 19.5898 46.1924C16.2901 44.3917 13.5792 41.6783 11.7816 38.3769C13.9112 37.8957 15.8145 36.7062 17.1804 35.0029C18.5462 33.2997 19.2938 31.1834 19.3008 29.0001C19.3078 26.8168 18.5739 24.6958 17.219 22.9838C15.8641 21.2717 13.9685 20.0701 11.842 19.5752C13.6462 16.3203 16.3315 13.64 19.5898 11.8419C20.0729 13.9758 21.2672 15.882 22.9765 17.2477C24.6859 18.6133 26.8088 19.3572 28.9967 19.3572C31.1846 19.3572 33.3075 18.6133 35.0169 17.2477C36.7262 15.882 37.9205 13.9758 38.4036 11.8419C41.6595 13.638 44.3463 16.3114 46.1587 19.5583C44.0257 20.0455 42.1217 21.2434 40.7594 22.9554C39.397 24.6674 38.6572 26.7917 38.6614 28.9796C38.6656 31.1676 39.4136 33.289 40.7826 34.9958C42.1515 36.7025 44.0601 37.8931 46.1949 38.372C44.3915 41.663 41.6915 44.3747 38.4084 46.1924ZM48.3337 33.7925C47.3777 33.7925 46.4433 33.509 45.6484 32.9779C44.8536 32.4468 44.2341 31.6919 43.8683 30.8088C43.5024 29.9256 43.4067 28.9538 43.5932 28.0162C43.7797 27.0786 44.24 26.2174 44.916 25.5414C45.5919 24.8655 46.4532 24.4052 47.3907 24.2187C48.3283 24.0322 49.3001 24.1279 50.1833 24.4937C51.0665 24.8595 51.8213 25.479 52.3524 26.2739C52.8835 27.0687 53.167 28.0032 53.167 28.9591C53.167 30.241 52.6578 31.4704 51.7514 32.3768C50.8449 33.2832 49.6156 33.7925 48.3337 33.7925Z" fill="#0E3775"/>
</g>
<defs>
<clipPath id="clip0_8_140">
<rect width="58" height="58" fill="white"/>
</clipPath>
</defs>
</svg>
