<svg width="1136" height="582" viewBox="0 0 1136 582" fill="none" xmlns="http://www.w3.org/2000/svg">
<mask id="mask0_1_2" style="mask-type:alpha" maskUnits="userSpaceOnUse" x="0" y="0" width="1136" height="582">
<path d="M1116 0H20C8.9543 0 0 8.9543 0 20V562C0 573.046 8.9543 582 20 582H1116C1127.05 582 1136 573.046 1136 562V20C1136 8.9543 1127.05 0 1116 0Z" fill="#FF6107"/>
</mask>
<g mask="url(#mask0_1_2)">
<path d="M632.416 427.166L298.985 478.964C284.177 481.184 270.603 471.071 268.135 456.519L216.306 123.285C214.085 108.485 224.204 94.919 238.765 92.452L572.196 40.654C587.004 38.434 600.579 48.547 603.047 63.1L654.875 396.334C657.097 411.134 646.978 424.946 632.416 427.166Z" fill="#FFD9C0"/>
<path d="M643.276 413.107L309.844 464.905C295.036 467.125 281.462 457.012 278.994 442.459L227.165 109.225C224.944 94.426 235.063 80.86 249.624 78.393L583.056 26.595C597.864 24.375 611.438 34.488 613.906 49.041L665.735 382.275C668.203 397.074 658.084 410.64 643.276 413.107Z" fill="white"/>
<path d="M642.042 119.337H250.858V372.161H642.042V119.337Z" fill="#FDE7C4"/>
<path d="M439.91 197.528C553.933 180.509 650.927 195.309 656.109 230.827C656.109 230.827 684.245 401.514 473.228 433.086C473.228 433.086 269.369 470.084 242.961 292.738C237.531 257.219 325.64 214.794 439.91 197.528Z" fill="white"/>
<path d="M244.935 305.071C264.679 320.117 312.806 344.043 413.502 330.477C413.502 330.477 417.697 391.648 482.113 431.606C479.152 432.099 476.19 432.593 472.981 433.086C472.981 432.839 278.994 468.111 244.935 305.071Z" fill="#F1F2F2"/>
<path d="M359.452 388.194C361.18 385.974 363.154 384.001 365.622 382.521C369.324 380.301 373.52 378.575 377.715 378.821C378.456 378.821 378.949 379.068 379.69 379.068L387.834 382.275C388.328 382.521 388.575 383.015 388.822 383.261C391.043 385.481 391.783 388.688 393.017 391.401C396.226 400.034 402.149 407.927 409.306 413.847C393.511 413.353 375.494 411.38 357.231 406.94C356.984 405.954 356.737 404.72 356.49 403.734C355.256 398.554 356.243 392.634 359.452 388.194Z" fill="#BCBEC0"/>
<path d="M457.436 315.094C563.259 299.268 645.497 262.737 641.119 233.502C636.741 204.266 547.406 193.396 441.583 209.223C335.76 225.049 253.523 261.579 257.9 290.815C262.278 320.051 351.613 330.921 457.436 315.094Z" fill="#D6D5D4"/>
<path d="M457.35 315.067C556.298 300.269 634.222 272.982 631.397 254.12C628.573 235.258 546.07 231.964 447.123 246.763C348.175 261.561 270.251 288.848 273.075 307.71C275.9 326.571 358.402 329.865 457.35 315.067Z" fill="#B72727"/>
<path d="M457.433 315.184C375.494 327.516 303.428 323.57 273.071 307.784C280.475 300.384 292.075 292.984 306.883 285.831C306.389 286.818 306.142 288.051 306.142 289.038C306.142 295.204 313.3 298.658 319.47 299.398C328.602 300.631 337.98 299.398 346.371 295.944C351.307 293.971 357.724 291.504 360.933 295.944C362.167 297.424 362.414 299.644 363.154 301.371C366.116 307.537 376.975 306.797 378.949 300.384C379.443 298.658 379.443 296.684 379.937 294.958C382.405 286.325 394.004 285.338 403.136 286.078C416.957 287.065 431.025 287.311 445.093 286.571C447.067 286.571 449.042 286.078 450.029 284.598C451.016 282.872 449.782 280.652 449.288 278.678C447.067 269.799 458.914 263.632 467.799 265.852C476.684 268.072 483.347 274.978 491.739 278.678C500.87 282.378 511.73 281.638 520.368 276.705C522.589 275.225 524.81 273.745 527.525 273.005C534.189 271.032 540.852 275.472 547.516 277.692C558.129 281.145 571.703 277.198 576.145 266.839C577.132 264.619 577.626 262.399 579.354 260.919C585.03 255.986 593.915 265.605 600.579 262.152C605.762 259.686 605.762 251.546 607.736 246.366C617.361 248.586 625.259 251.299 631.429 254.506C607.242 278.185 539.372 302.851 457.433 315.184Z" fill="#932222"/>
<path d="M582.562 261.906C581.822 256.973 585.277 252.533 589.966 251.793C594.902 251.053 599.345 254.506 600.085 259.192C600.085 259.192 593.175 267.086 582.562 261.906Z" fill="#5BB24B"/>
<path d="M582.562 261.906C582.068 258.452 583.549 255.246 586.017 253.519C585.771 254.506 585.524 255.246 585.524 256.232C585.524 257.959 586.264 259.932 587.992 260.672C588.732 261.166 589.719 261.412 590.707 261.412C591.447 261.412 592.434 261.659 593.175 261.412C594.655 261.166 595.889 260.426 597.123 259.439C598.111 258.699 598.851 257.959 599.592 256.972C599.838 257.712 600.085 258.206 600.085 258.946C600.085 259.192 593.175 267.085 582.562 261.906Z" fill="#4D933E"/>
<path d="M537.891 252.039C537.15 247.106 540.605 242.666 545.295 241.926C549.984 241.187 554.673 244.64 555.414 249.326C555.661 249.326 548.75 257.466 537.891 252.039Z" fill="#5BB24B"/>
<path d="M537.891 252.039C537.397 248.586 538.878 245.38 541.346 243.653C541.099 244.64 540.852 245.38 540.852 246.366C540.852 248.093 541.593 250.066 543.32 250.806C544.061 251.299 545.048 251.546 546.035 251.546C546.776 251.546 547.763 251.793 548.503 251.546C549.984 251.299 551.218 250.559 552.452 249.573C553.439 248.833 554.18 248.093 554.92 247.106C555.167 247.846 555.414 248.34 555.414 249.08C555.661 249.326 548.75 257.466 537.891 252.039Z" fill="#4D933E"/>
<path d="M350.32 273.992C349.58 269.058 353.035 264.619 357.724 263.879C362.66 263.139 367.103 266.592 367.843 271.278C367.843 271.278 361.179 279.418 350.32 273.992Z" fill="#5BB24B"/>
<path d="M350.32 273.991C349.827 270.538 351.307 267.331 353.775 265.605C353.529 266.591 353.282 267.331 353.282 268.318C353.282 270.044 354.022 272.018 355.75 272.758C356.49 273.251 357.477 273.498 358.465 273.498C359.205 273.498 360.192 273.744 360.933 273.498C362.414 273.251 363.648 272.511 364.882 271.524C365.869 270.784 366.609 270.044 367.35 269.058C367.596 269.798 367.843 270.291 367.843 271.031C367.843 271.278 361.18 279.417 350.32 273.991Z" fill="#4D933E"/>
<path d="M313.3 308.031C312.559 303.097 316.014 298.658 320.704 297.918C325.64 297.178 330.082 300.631 330.823 305.317C330.823 305.564 324.159 313.457 313.3 308.031Z" fill="#5BB24B"/>
<path d="M313.3 308.03C312.806 304.577 314.287 301.371 316.755 299.644C316.508 300.631 316.261 301.371 316.261 302.357C316.261 304.084 317.002 306.057 318.729 306.797C319.47 307.29 320.457 307.537 321.444 307.537C322.185 307.537 323.172 307.784 323.912 307.537C325.393 307.29 326.627 306.551 327.861 305.564C328.848 304.824 329.589 304.084 330.329 303.097C330.576 303.837 330.823 304.331 330.823 305.071C330.823 305.564 324.159 313.457 313.3 308.03Z" fill="#4D933E"/>
<path d="M440.157 260.426C439.416 255.492 442.871 251.052 447.561 250.312C452.497 249.572 456.939 253.026 457.68 257.712C457.926 257.959 451.016 265.852 440.157 260.426Z" fill="#5BB24B"/>
<path d="M440.157 260.425C439.663 256.972 441.144 253.765 443.612 252.039C443.365 253.025 443.118 253.765 443.118 254.752C443.118 256.479 443.859 258.452 445.586 259.192C446.327 259.685 447.314 259.932 448.301 259.932C449.042 259.932 450.029 260.179 450.769 259.932C452.25 259.685 453.484 258.945 454.718 257.959C455.705 257.219 456.446 256.479 457.186 255.492C457.433 256.232 457.68 256.725 457.68 257.465C457.926 257.959 451.016 265.852 440.157 260.425Z" fill="#4D933E"/>
<path d="M424.855 257.219C414.736 248.586 399.434 247.353 387.587 253.519C375.988 259.685 368.337 272.758 368.09 285.831C368.09 287.311 368.09 289.038 368.83 290.518C370.311 292.984 373.273 293.971 376.234 294.464C392.03 297.177 408.566 295.204 423.127 289.038C428.557 286.818 438.676 283.365 438.182 277.198C437.688 270.785 429.544 261.412 424.855 257.219Z" fill="#FBD056"/>
<path d="M387.341 287.065C386.847 282.132 387.094 277.198 389.068 272.759C391.043 268.319 394.498 264.372 399.187 262.892C400.915 262.399 402.642 262.152 404.37 262.152C406.345 261.906 408.072 261.906 410.047 262.152C416.71 262.646 422.88 265.852 427.076 271.032C429.544 273.992 431.025 277.445 431.765 281.145C432.012 282.378 432.259 283.858 432.259 285.338C429.297 287.065 425.842 288.298 423.127 289.285C412.515 293.724 400.915 296.191 389.315 295.944C389.315 295.944 389.315 295.698 389.068 295.698C388.081 292.738 387.587 289.778 387.341 287.065Z" fill="#F9B058"/>
<path d="M376.234 294.464C373.273 293.971 370.311 292.984 368.83 290.518C368.09 289.038 368.09 287.558 368.09 285.831C368.337 275.718 372.779 265.852 379.937 258.946C378.949 261.659 378.209 264.372 378.209 267.579C378.209 270.785 378.456 273.745 379.443 276.705C382.158 285.338 389.562 292.491 398.694 294.464C399.434 294.711 399.928 294.711 400.668 294.957C392.524 296.191 384.379 295.944 376.234 294.464Z" fill="#E6E7E8"/>
<path d="M466.318 277.692C471.501 269.552 482.113 265.112 491.739 267.085C501.364 268.812 509.508 276.458 512.47 285.831C512.717 286.818 513.21 288.051 512.964 289.284C512.47 291.504 510.496 292.738 508.521 293.724C497.909 299.151 485.815 301.124 473.969 299.891C469.526 299.397 461.629 299.397 460.888 294.711C460.148 290.024 463.85 281.391 466.318 277.692Z" fill="#FBD056"/>
<path d="M499.143 290.517C498.402 287.064 497.168 283.364 494.7 280.651C492.479 277.938 489.024 275.965 485.322 275.965C484.088 275.965 482.854 276.211 481.62 276.458C480.139 276.705 478.905 277.198 477.671 277.691C473.228 279.418 469.279 283.118 467.552 287.558C466.565 290.271 466.071 292.984 466.318 295.697C466.318 296.684 466.565 297.671 466.811 298.904C469.279 299.397 471.994 299.644 474.215 299.89C482.854 300.877 491.492 299.89 499.636 297.177V296.931C499.883 294.711 499.636 292.491 499.143 290.517Z" fill="#F9B058"/>
<path d="M508.768 293.478C510.742 292.491 512.717 291.258 513.21 289.038C513.457 287.805 513.21 286.818 512.717 285.585C510.496 278.432 505.066 272.512 498.649 269.305C499.883 271.032 501.117 272.758 501.857 274.978C502.598 277.198 503.091 279.418 502.845 281.638C502.845 288.298 499.143 294.958 493.219 298.411C492.726 298.658 492.232 298.904 491.985 299.151C497.662 298.164 503.338 296.191 508.768 293.478Z" fill="#E6E7E8"/>
<path d="M473.722 305.318C472.981 300.384 476.437 295.944 481.126 295.204C486.062 294.464 490.504 297.918 491.245 302.604C491.245 302.851 484.334 310.744 473.722 305.318Z" fill="#5BB24B"/>
<path d="M473.722 305.318C473.228 301.864 474.709 298.658 477.177 296.931C476.93 297.918 476.683 298.658 476.683 299.644C476.683 301.371 477.424 303.344 479.151 304.084C479.892 304.578 480.879 304.824 481.866 304.824C482.607 304.824 483.594 305.071 484.334 304.824C485.815 304.578 487.049 303.838 488.283 302.851C489.27 302.111 490.011 301.371 490.751 300.384C490.998 301.124 491.245 301.618 491.245 302.358C491.245 302.851 484.334 310.744 473.722 305.318Z" fill="#4D933E"/>
<path d="M472.241 303.837C472.241 303.837 437.195 292.738 425.102 310.99L413.255 308.524C413.008 308.524 439.91 271.032 472.241 303.837Z" fill="#FDEABA"/>
<path d="M413.008 308.524C413.008 308.524 432.506 263.138 471.994 303.837C471.994 303.837 433.986 281.144 424.855 310.99L413.008 308.524Z" fill="#B85287"/>
<path d="M496.675 266.098C496.675 266.098 518.64 250.806 530.98 260.919L538.631 256.726C538.631 256.726 512.223 236.5 496.675 266.098Z" fill="#FDEABA"/>
<path d="M538.631 256.725C538.631 256.725 515.432 229.347 496.675 266.098C496.675 266.098 518.146 242.173 530.98 260.919L538.631 256.725Z" fill="#B85287"/>
<path d="M534.682 255.492C538.878 248.833 547.516 245.379 555.167 246.859C562.818 248.339 569.482 254.506 571.95 261.905C572.196 262.892 572.443 263.632 572.196 264.619C571.95 266.345 570.222 267.332 568.741 268.072C560.35 272.512 550.478 273.992 541.099 273.005C537.644 272.512 531.227 272.512 530.487 268.812C529.746 265.359 532.708 258.699 534.682 255.492Z" fill="#FBD056"/>
<path d="M561.337 265.852C560.843 262.892 559.609 260.179 557.882 257.959C555.907 255.739 553.192 254.012 550.231 254.012C549.244 254.012 548.256 254.259 547.269 254.506C546.282 254.752 545.048 254.999 544.061 255.492C540.359 256.972 537.397 259.932 535.916 263.385C535.176 265.358 534.682 267.825 534.929 270.045C534.929 270.785 535.176 271.772 535.423 272.512C537.397 273.005 539.618 273.005 541.346 273.251C548.256 273.991 555.167 273.251 561.831 271.278C561.831 271.278 561.831 271.278 561.831 271.032C561.831 269.305 561.584 267.578 561.337 265.852Z" fill="#F9B058"/>
<path d="M568.741 268.319C570.222 267.579 571.95 266.592 572.196 264.865C572.443 263.879 572.196 262.892 571.95 262.152C569.975 256.479 565.78 251.546 560.597 248.833C561.584 250.066 562.571 251.546 563.065 253.519C563.558 255.246 564.052 257.219 564.052 258.946C564.052 264.372 561.09 269.799 556.154 272.265C555.907 272.512 555.414 272.758 555.167 273.005C559.856 272.018 564.546 270.539 568.741 268.319Z" fill="#E6E7E8"/>
<path d="M320.704 297.425C320.704 297.425 355.256 309.757 368.09 291.998C357.971 321.596 320.704 297.425 320.704 297.425Z" fill="#FDEABA"/>
<path d="M342.176 313.704C335.759 311.237 328.602 306.304 320.704 297.671C352.048 331.463 379.937 294.958 379.937 294.958C379.937 294.958 375.247 304.824 366.609 310.744C362.414 311.977 353.282 314.444 342.176 313.704Z" fill="#B85287"/>
<path d="M320.704 297.425C320.704 297.425 357.971 321.35 368.09 291.998L379.937 294.711C379.937 294.711 352.048 331.217 320.704 297.425Z" fill="#B85287"/>
<path d="M555.414 270.786C554.92 270.046 554.18 269.306 553.439 269.06C552.699 268.813 551.958 268.813 551.218 269.06C544.801 269.799 538.384 270.786 531.967 271.773C528.759 272.266 525.304 272.759 522.836 274.979C518.64 278.186 517.653 284.106 517.159 289.285C516.912 291.012 516.912 292.739 517.9 293.972C518.64 294.712 519.627 294.958 520.614 295.205C529.746 297.425 539.618 295.945 548.009 291.752C551.958 289.779 556.648 286.819 559.116 283.119C561.83 279.172 557.882 274.486 555.414 270.786Z" fill="#FDE7C4"/>
<path d="M517.9 293.725C516.912 292.492 516.912 290.765 517.159 289.038C517.899 283.859 518.64 277.939 522.836 274.732C525.55 272.759 528.759 272.019 531.967 271.526C538.384 270.539 544.801 269.552 551.218 268.813C551.958 268.813 552.699 268.566 553.439 268.813C553.933 269.059 554.426 269.306 554.673 269.799C554.673 269.799 554.673 269.799 554.426 270.046C553.686 270.539 552.946 270.786 552.205 271.032C546.035 272.759 539.865 273.992 533.695 274.979C532.214 275.226 530.733 275.472 529.499 275.966C527.525 276.952 526.044 278.432 525.057 280.159C523.823 281.885 523.082 283.859 522.589 285.832C521.848 289.038 522.589 292.245 522.342 295.451C521.602 295.451 521.108 295.205 520.368 294.958C519.627 294.711 518.393 294.465 517.9 293.725Z" fill="#E8CCA3"/>
<path d="M525.057 280.159C523.823 281.886 523.082 283.859 522.589 285.832C521.848 289.039 522.589 292.245 522.342 295.452C521.602 295.452 521.108 295.205 520.368 294.958C519.38 294.712 518.393 294.465 517.653 293.725C516.665 292.492 516.665 290.765 516.912 289.039C517.653 283.859 518.393 277.939 522.589 274.732C523.082 274.486 523.576 273.993 524.07 273.746C525.797 274.486 527.772 275.226 529.746 275.719C529.746 275.719 529.499 275.719 529.499 275.966C527.772 276.952 526.291 278.432 525.057 280.159Z" fill="#CEB089"/>
<path d="M467.305 255.739C466.811 255.246 466.565 254.753 465.824 254.506C465.331 254.259 464.837 254.506 464.343 254.506C459.654 254.999 454.965 255.739 450.276 256.479C447.807 256.973 445.586 257.219 443.612 258.699C440.65 260.919 439.91 265.359 439.416 269.059C439.169 270.292 439.169 271.525 439.91 272.512C440.403 273.005 441.144 273.252 441.884 273.499C448.548 275.225 455.705 273.992 461.628 271.032C464.59 269.552 467.799 267.579 469.773 264.866C471.994 261.659 469.279 258.206 467.305 255.739Z" fill="#FDE7C4"/>
<path d="M440.157 272.265C439.416 271.279 439.416 270.045 439.663 268.812C440.157 265.112 440.897 260.672 443.859 258.452C445.833 256.972 448.301 256.479 450.522 256.232C455.212 255.492 459.901 254.752 464.59 254.259C465.084 254.259 465.577 254.012 466.071 254.259C466.565 254.506 466.811 254.752 467.058 254.999C466.564 255.492 466.071 255.492 465.33 255.739C460.888 256.972 456.446 257.959 452.003 258.699C451.016 258.946 449.782 258.946 448.795 259.439C447.314 260.179 446.327 261.166 445.586 262.399C444.846 263.632 444.105 265.112 443.859 266.592C443.365 268.812 443.859 271.279 443.859 273.499C443.365 273.499 442.871 273.252 442.378 273.252C441.391 273.005 440.65 272.759 440.157 272.265Z" fill="#E8CCA3"/>
<path d="M445.339 262.399C444.599 263.632 443.859 265.112 443.612 266.592C443.118 268.812 443.612 271.278 443.612 273.498C443.118 273.498 442.625 273.251 442.131 273.251C441.391 273.005 440.65 272.758 440.157 272.265C439.416 271.278 439.416 270.045 439.663 268.812C440.157 265.112 440.897 260.672 443.859 258.452C444.105 258.205 444.599 257.959 444.846 257.712C446.08 258.205 447.561 258.699 449.042 259.192H448.795C447.314 260.179 446.08 261.165 445.339 262.399Z" fill="#CEB089"/>
<path d="M364.388 304.084C364.635 303.344 364.881 302.851 365.375 302.357C365.869 302.111 366.362 301.864 366.856 301.864C371.545 301.124 376.234 300.384 380.924 299.644C383.392 299.397 385.86 298.904 388.081 299.891C391.783 301.124 393.511 305.071 395.238 308.524C395.732 309.511 396.225 310.744 395.732 311.977C395.485 312.717 394.745 312.964 394.004 313.457C388.081 316.91 380.924 318.144 374.26 316.91C371.052 316.417 367.35 315.43 364.635 313.457C361.673 311.237 363.401 307.044 364.388 304.084Z" fill="#FDE7C4"/>
<path d="M395.485 311.977C395.979 310.99 395.485 309.757 394.992 308.524C393.511 305.071 391.536 301.124 387.834 299.891C385.613 299.151 383.145 299.398 380.677 299.644C375.988 300.384 371.298 301.124 366.609 301.864C366.116 301.864 365.622 302.111 365.128 302.358C364.882 302.604 364.635 302.851 364.388 303.344C364.882 303.591 365.622 303.591 366.116 303.591C370.805 303.344 375.247 303.098 379.69 302.358C380.677 302.111 381.911 302.111 382.898 302.111C384.379 302.358 385.86 303.098 386.847 304.084C388.081 305.071 389.068 306.304 389.809 307.537C390.796 309.511 391.29 311.977 392.03 314.197C392.524 313.95 392.77 313.704 393.264 313.457C394.498 312.964 394.992 312.717 395.485 311.977Z" fill="#E8CCA3"/>
<path d="M387.587 304.084C388.821 305.071 389.809 306.304 390.549 307.538C391.536 309.511 392.03 311.977 392.77 314.197C393.264 313.951 393.511 313.704 394.004 313.457C394.745 312.964 395.238 312.717 395.732 311.977C396.225 310.991 395.732 309.757 395.238 308.524C393.757 305.071 391.783 301.124 388.081 299.891C387.587 299.645 387.341 299.645 386.847 299.645C385.613 300.631 384.626 301.371 383.392 302.358H383.639C384.873 302.358 386.353 303.098 387.587 304.084Z" fill="#CEB089"/>
<path d="M321.691 284.845C321.938 284.105 322.185 283.611 322.678 283.118C323.172 282.871 323.666 282.625 324.159 282.625C328.848 281.885 333.538 281.145 338.227 280.405C340.695 280.158 343.163 279.665 345.384 280.652C349.086 281.885 350.814 285.831 352.541 289.285C353.035 290.271 353.529 291.505 353.035 292.738C352.788 293.478 352.048 293.724 351.307 294.218C345.384 297.671 338.227 298.904 331.563 297.671C328.355 297.178 324.653 296.191 321.938 294.218C318.976 291.998 320.704 287.805 321.691 284.845Z" fill="#FDE7C4"/>
<path d="M352.542 292.738C353.035 291.751 352.542 290.518 352.048 289.284C350.567 285.831 348.593 281.885 344.891 280.651C342.669 279.911 340.201 280.158 337.733 280.405C333.044 281.145 328.355 281.885 323.666 282.625C323.172 282.625 322.678 282.871 322.185 283.118C321.938 283.365 321.691 283.611 321.444 284.104C321.938 284.351 322.678 284.351 323.172 284.351C327.861 284.105 332.304 283.858 336.746 283.118C337.733 282.871 338.967 282.871 339.955 282.871C341.435 283.118 342.916 283.858 343.903 284.844C345.137 285.831 346.125 287.064 346.865 288.298C347.852 290.271 348.346 292.738 349.086 294.958C349.58 294.711 349.827 294.464 350.32 294.218C351.554 293.971 352.295 293.478 352.542 292.738Z" fill="#E8CCA3"/>
<path d="M344.644 284.845C345.878 285.831 346.865 287.065 347.605 288.298C348.593 290.271 349.086 292.738 349.827 294.958C350.32 294.711 350.567 294.464 351.061 294.218C351.801 293.724 352.295 293.478 352.788 292.738C353.282 291.751 352.788 290.518 352.295 289.285C350.814 285.831 348.839 281.885 345.137 280.652C344.644 280.405 344.397 280.405 343.903 280.405C342.669 281.392 341.682 282.132 340.448 283.118H340.695C342.176 283.118 343.657 283.858 344.644 284.845Z" fill="#CEB089"/>
<path d="M650.68 249.819C650.68 249.819 615.88 310.99 458.914 326.283C458.914 326.283 621.804 320.116 650.68 249.819Z" fill="#D6D5D4"/>
<path d="M430.284 270.292C420.906 265.112 409.306 263.139 399.187 266.592C397.213 267.332 394.991 268.319 393.511 269.799C390.796 272.265 389.809 276.458 390.796 280.158C391.783 283.858 394.745 286.818 398.2 288.051C402.889 289.531 407.825 288.298 412.514 287.311C424.855 284.845 438.922 284.598 449.041 292.491C450.522 293.724 457.433 298.164 455.458 292.738C454.718 290.518 450.522 287.805 448.795 285.831C443.612 279.912 437.442 274.238 430.284 270.292Z" fill="#AFD536"/>
<path d="M455.458 292.738C457.433 298.165 450.522 293.725 449.041 292.492C438.922 284.845 424.855 284.845 412.514 287.312C407.825 288.299 402.642 289.532 398.2 288.052C395.732 287.312 393.757 285.585 392.277 283.612C395.732 286.079 400.174 285.585 404.37 285.092C415.229 283.859 426.089 282.872 436.701 285.585C439.416 286.325 442.624 287.065 444.599 285.092C445.339 284.352 445.833 283.365 445.833 282.379C447.067 283.612 448.054 284.599 449.041 285.832C450.522 287.805 454.718 290.519 455.458 292.738Z" fill="#A5C12F"/>
<path d="M435.714 258.699C433.74 252.039 432.259 244.886 433.74 238.227C435.22 231.32 439.91 224.907 446.82 223.427C449.288 222.934 452.25 222.934 454.224 224.66C455.952 226.14 456.692 228.36 456.939 230.827C457.433 234.527 456.445 238.473 454.471 241.68C452.25 245.626 448.301 248.586 446.82 253.026C446.08 254.999 446.08 256.972 446.08 258.946C445.833 265.605 447.067 272.265 449.041 278.678C450.029 281.885 451.509 285.091 453.237 288.051C454.224 290.025 457.433 293.231 456.445 295.204C451.756 293.971 447.314 284.105 445.093 280.158C441.144 273.252 437.935 266.099 435.714 258.699Z" fill="#6DAE3B"/>
<path d="M445.833 273.745C443.859 267.085 442.131 259.686 444.352 253.026C446.327 247.599 450.769 243.406 452.99 237.98C454.965 233.047 454.471 228.607 452.99 224.167C453.237 224.414 453.731 224.414 453.977 224.66C455.705 226.14 456.445 228.36 456.692 230.827C457.186 234.527 456.199 238.473 454.224 241.68C452.003 245.626 448.054 248.586 446.573 253.026C445.833 254.999 445.833 256.972 445.833 258.946C445.586 265.605 446.82 272.265 448.795 278.678C449.782 281.885 451.263 285.091 452.99 288.051C453.977 290.025 457.186 293.231 456.199 295.204C451.509 294.218 447.314 284.845 445.093 280.652C445.339 280.405 445.833 279.912 445.833 279.665C446.82 277.692 446.327 275.472 445.833 273.745Z" fill="#639934"/>
<path d="M390.796 388.687L401.162 423.466C401.162 423.466 337.24 453.804 247.897 405.953C247.897 405.953 242.467 372.407 253.327 360.568L390.796 388.687Z" fill="#F28035"/>
<path d="M378.703 377.34C382.651 379.067 386.6 381.287 389.068 384.74C391.536 388.193 392.03 393.62 388.822 396.58C386.847 398.553 383.885 399.046 381.171 399.293C341.682 404.473 300.466 398.553 264.433 381.287C260.237 379.314 256.041 377.094 253.327 373.394C250.612 369.694 250.118 364.021 253.08 360.814C255.054 358.841 257.769 357.854 260.484 357.115C299.726 346.755 343.163 360.321 378.703 377.34Z" fill="#F6C26D"/>
<path d="M355.997 402.993C355.997 402.993 342.916 403.486 334.771 402.006L358.958 431.112C358.711 431.359 355.503 409.899 355.997 402.993Z" fill="#F2905A"/>
<path d="M253.327 360.568C255.301 358.595 258.016 357.608 260.731 356.868C267.641 355.142 274.552 354.155 281.462 353.662C280.722 354.155 279.981 354.648 279.488 355.142C276.526 357.608 274.552 361.061 273.318 364.515C271.343 371.668 272.824 380.054 278.5 385.234C279.734 386.22 280.968 387.207 281.956 388.44C282.203 388.687 282.203 388.687 282.449 388.934C283.93 390.66 284.424 392.88 285.164 395.1C289.113 407.68 296.764 419.026 306.389 427.906C288.619 423.959 269.122 417.053 247.897 405.706C247.897 405.953 242.467 372.161 253.327 360.568Z" fill="#E6E7E8"/>
<path d="M353.529 397.813C353.035 397.813 352.541 397.813 352.048 397.566C351.801 397.566 351.801 397.32 351.554 397.073C351.554 397.073 351.307 396.826 351.554 396.826C351.554 396.58 351.801 396.58 352.048 396.333C353.282 396.087 355.997 395.593 356.984 396.826C357.724 398.306 354.269 397.813 353.529 397.813Z" fill="#F4D19D"/>
<path d="M377.715 389.674C377.222 389.674 376.728 389.674 376.235 389.427C375.988 389.427 375.988 389.181 375.741 388.934C375.741 388.934 375.494 388.687 375.741 388.687C375.741 388.441 375.988 388.441 376.235 388.194C377.469 387.947 380.184 387.454 381.171 388.687C381.911 390.414 378.703 389.674 377.715 389.674Z" fill="#F4D19D"/>
<path d="M280.968 364.514C280.475 364.514 279.981 364.514 279.488 364.267C279.241 364.267 279.241 364.021 278.994 363.774C278.994 363.774 278.747 363.527 278.994 363.527C278.994 363.281 279.241 363.281 279.488 363.034C280.722 362.787 283.436 362.294 284.424 363.527C285.164 365.254 281.709 364.514 280.968 364.514Z" fill="#F4D19D"/>
<path d="M285.905 361.555C285.411 361.555 284.917 361.555 284.424 361.308C284.177 361.308 284.177 361.061 283.93 360.815C283.93 360.815 283.683 360.568 283.93 360.568C283.93 360.321 284.177 360.321 284.424 360.075C285.658 359.828 288.373 359.335 289.36 360.568C290.1 362.295 286.892 361.555 285.905 361.555Z" fill="#F4D19D"/>
<path d="M382.158 393.373C381.664 393.373 381.171 393.373 380.677 393.127C380.43 393.127 380.43 392.88 380.183 392.633C380.183 392.633 379.937 392.387 380.183 392.387C380.183 392.14 380.43 392.14 380.677 391.894C381.911 391.647 384.626 391.154 385.613 392.387C386.353 394.113 382.898 393.373 382.158 393.373Z" fill="#F4D19D"/>
<path d="M361.426 394.36C360.933 394.36 360.439 394.36 359.946 394.113C359.699 394.113 359.699 393.867 359.452 393.62C359.452 393.62 359.205 393.373 359.452 393.373C359.452 393.127 359.699 393.127 359.946 392.88C361.18 392.633 363.894 392.14 364.882 393.373C365.622 394.853 362.167 394.36 361.426 394.36Z" fill="#F4D19D"/>
<path d="M275.539 369.201C275.045 369.201 274.551 369.201 274.058 368.955C273.811 368.955 273.811 368.708 273.564 368.461C273.564 368.461 273.317 368.215 273.564 368.215C273.564 367.968 273.811 367.968 274.058 367.721C275.292 367.475 278.007 366.981 278.994 368.215C279.734 369.941 276.526 369.448 275.539 369.201Z" fill="#F4D19D"/>
<path d="M372.779 385.974C372.286 385.974 371.792 385.974 371.298 385.727C371.052 385.727 371.052 385.48 370.805 385.234C370.805 385.234 370.558 384.987 370.805 384.987C370.805 384.74 371.052 384.741 371.298 384.494C372.532 384.247 375.247 383.754 376.234 384.987C376.975 386.714 373.766 385.974 372.779 385.974Z" fill="#F4D19D"/>
<path d="M371.545 396.087C371.052 396.087 370.558 396.087 370.064 395.84C369.818 395.84 369.818 395.593 369.571 395.347C369.571 395.347 369.324 395.1 369.571 395.1C369.571 394.853 369.818 394.853 370.064 394.607C371.298 394.36 374.013 393.867 375.001 395.1C375.741 396.827 372.533 396.087 371.545 396.087Z" fill="#F4D19D"/>
<path d="M280.475 382.521C279.981 382.521 279.488 382.521 278.994 382.274C278.747 382.274 278.747 382.027 278.5 381.781C278.5 381.781 278.254 381.534 278.5 381.534C278.5 381.287 278.747 381.287 278.994 381.041C280.228 380.794 282.943 380.3 283.93 381.534C284.671 383.261 281.215 382.767 280.475 382.521Z" fill="#F4D19D"/>
<path d="M284.177 385.727C283.683 385.727 283.19 385.727 282.696 385.481C282.449 385.481 282.449 385.234 282.202 384.987C282.202 384.987 281.956 384.74 282.202 384.74C282.202 384.494 282.449 384.494 282.696 384.247C283.93 384 286.645 383.507 287.632 384.74C288.373 386.221 284.917 385.727 284.177 385.727Z" fill="#F4D19D"/>
<path d="M623.038 353.169L646.484 349.222L651.173 376.848L637.599 370.188L627.48 380.795L623.038 353.169Z" fill="#383838"/>
<path d="M309.598 120.324C312.312 137.59 300.466 153.87 282.943 156.583C265.667 159.296 249.378 147.457 246.663 129.944C243.948 112.678 255.794 96.399 273.318 93.685C290.594 91.219 306.883 103.058 309.598 120.324Z" fill="#E6E7E8"/>
<path d="M287.138 113.172C287.879 118.352 284.424 123.285 278.994 124.272C273.811 125.012 268.875 121.558 267.888 116.132C267.147 110.952 270.603 106.019 276.032 105.032C281.462 104.292 286.398 107.992 287.138 113.172Z" fill="#BCBEC0"/>
<path d="M267.394 145.977C267.394 145.977 264.679 127.971 279.981 125.505C295.283 123.038 297.257 141.291 297.257 141.291L267.394 145.977Z" fill="#BCBEC0"/>
<path d="M339.954 105.032C341.682 107.992 345.878 108.238 348.839 106.758C351.801 105.278 353.775 102.318 355.503 99.605C358.958 104.292 365.869 105.772 370.805 103.305C374.013 101.825 376.481 98.865 379.936 98.619C382.405 98.372 384.626 99.852 387.094 100.345C391.043 101.332 395.485 99.852 398.2 96.892C399.187 95.905 399.928 94.672 401.408 94.425C402.889 94.179 404.123 95.412 405.357 96.399C409.059 99.359 415.229 98.865 418.438 95.659C419.425 94.672 420.412 93.192 421.893 92.945C424.114 92.699 425.595 94.919 427.57 95.412C432.506 96.399 435.714 86.779 440.403 88.999C442.378 89.739 443.118 92.452 445.093 92.945C448.301 94.179 450.522 89.492 453.731 87.766C458.914 85.052 466.811 90.725 470.267 86.039C471.007 88.259 474.215 89.246 476.19 88.012C477.177 87.272 477.917 86.286 478.905 85.546C481.373 83.819 484.581 85.546 487.543 86.532C490.504 87.519 494.947 86.039 494.206 83.079" stroke="#414042" stroke-miterlimit="10" stroke-linecap="round" stroke-linejoin="round"/>
<path d="M301.947 407.187L465.084 381.781" stroke="#414042" stroke-miterlimit="10" stroke-linecap="round" stroke-linejoin="round"/>
<path d="M303.181 414.093L440.65 392.634" stroke="#414042" stroke-miterlimit="10" stroke-linecap="round" stroke-linejoin="round"/>
<path d="M304.168 420.507L535.422 384.495" stroke="#414042" stroke-miterlimit="10" stroke-linecap="round" stroke-linejoin="round"/>
<path d="M305.649 431.359L380.677 419.766" stroke="#414042" stroke-miterlimit="10" stroke-linecap="round" stroke-linejoin="round"/>
<path d="M306.883 437.772L329.095 434.319" stroke="#414042" stroke-miterlimit="10" stroke-linecap="round" stroke-linejoin="round"/>
<path d="M308.117 446.159L424.361 427.906" stroke="#414042" stroke-miterlimit="10" stroke-linecap="round" stroke-linejoin="round"/>
<path d="M1154.16 366.982L785.19 309.264C768.9 306.797 757.79 291.505 760.26 275.225L818.26 -93.5274C820.73 -109.807 836.03 -120.906 852.32 -118.44L1221.29 -60.722C1237.58 -58.2554 1248.68 -42.9626 1246.22 -26.6833L1188.22 342.316C1185.75 358.595 1170.45 369.695 1154.16 366.982Z" fill="white"/>
<path d="M810.85 -47.4028L1238.81 19.688L1195.62 296.191L767.66 229.1L810.85 -47.4028Z" fill="url(#paint0_linear_1_2)"/>
<path d="M777.54 86.779C781.49 82.832 786.92 80.366 792.59 80.119C797.28 79.872 801.97 81.106 806.66 81.599C814.06 82.586 821.96 81.846 828.38 77.899C830.85 76.419 833.07 74.446 835.78 73.953C838.99 73.459 841.95 75.186 844.91 76.666C854.79 82.092 865.15 87.025 875.76 90.972C880.95 92.945 887.12 94.918 892.3 92.699C894.77 91.712 896.74 89.739 899.21 88.752C901.68 87.765 904.89 87.519 906.61 89.492C907.36 90.479 907.85 91.959 908.84 92.699C911.06 94.425 914.02 92.205 916.24 90.725C922.16 87.025 929.81 87.272 935.98 90.479C942.15 93.439 946.84 99.112 950.05 105.278C951.04 107.005 951.78 108.978 953.51 109.965C954.49 110.704 955.73 110.951 956.96 111.198C965.35 113.171 973.75 115.391 982.14 117.364C983.86 117.858 985.59 118.104 987.32 117.857C989.79 117.364 992.01 115.638 994.48 115.144C997.19 114.651 999.91 115.638 1002.62 116.131C1011.26 117.858 1020.64 114.404 1026.56 107.745C1029.52 104.291 1032.48 99.605 1036.93 99.852C1039.4 99.852 1041.37 101.332 1043.34 102.811C1056.18 111.444 1072.22 115.144 1087.77 113.418C1088.26 117.611 1092.95 120.324 1097.15 121.557C1101.34 122.544 1106.03 123.037 1109.49 125.257C1111.71 126.737 1113.68 128.957 1116.4 128.71C1117.63 128.71 1119.11 127.97 1120.35 128.217C1122.07 128.71 1122.57 130.93 1124.05 131.67C1126.02 132.904 1128.49 131.424 1130.71 130.93C1132.93 130.19 1136.39 131.917 1135.4 133.89C1134.66 135.617 1138.12 136.85 1139.84 136.603C1141.82 136.357 1143.3 135.123 1145.03 134.383C1146.75 133.397 1148.98 132.904 1150.46 133.89C1151.44 134.383 1152.18 135.37 1152.92 136.11C1154.9 137.837 1157.86 138.083 1160.58 138.33C1163.54 138.823 1166.5 139.563 1169.46 140.55C1172.42 141.783 1175.38 143.263 1178.59 144.25C1181.8 145.236 1185.26 145.483 1188.22 144.003C1190.19 143.016 1191.67 141.537 1193.65 140.797C1195.62 140.057 1198.34 140.55 1198.83 142.523C1199.08 143.51 1198.83 144.496 1199.82 145.236C1200.8 145.976 1202.04 144.496 1203.03 143.756C1204.26 143.016 1206.23 143.263 1207.47 143.756C1208.7 144.25 1210.18 145.236 1211.91 145.483C1213.14 145.73 1214.63 145.73 1215.61 146.47C1216.6 147.456 1216.6 148.936 1216.85 150.169C1217.09 151.403 1218.33 152.883 1219.56 152.389C1220.8 151.896 1221.54 149.43 1222.77 150.169C1223.02 150.416 1223.26 150.663 1223.51 150.909C1224.74 152.883 1225.73 154.609 1226.97 156.583L1225.98 163.736L775.81 93.192L777.54 86.779Z" fill="#2C592E"/>
<path d="M856.27 98.372C838 95.412 819.74 92.699 801.48 89.985C819.74 92.452 838 95.412 856.27 98.372Z" fill="#5FB6BE"/>
<path d="M776.8 86.779L776.55 88.752C778.28 88.258 780.25 87.765 781.98 87.518C780.25 87.272 778.52 87.025 776.8 86.779Z" fill="#5FB6BE"/>
<path d="M884.65 155.843C882.92 154.609 882.43 150.91 884.4 151.65C877.99 150.416 871.57 149.183 864.9 147.95C864.16 138.823 876.01 133.643 885.14 135.37C894.03 137.097 902.17 142.77 911.3 143.756C917.97 144.743 924.63 143.017 931.3 142.523C956.96 140.303 982.63 153.129 1008.05 149.43C1013.23 148.69 1018.17 147.21 1023.35 147.21C1031.74 146.963 1039.89 150.416 1047.54 154.116C1090.73 175.575 1128.98 213.561 1177.36 214.547C1171.19 212.327 1165.02 210.108 1158.85 207.888C1154.65 207.394 1150.7 206.901 1146.75 205.668C1144.29 204.928 1142.07 203.941 1140.09 202.214C1139.1 201.474 1138.12 200.488 1137.13 199.501C1126.02 195.061 1114.92 190.128 1104.06 185.195C1117.88 181.988 1132.44 181.988 1146.01 185.442C1134.91 181.002 1124.05 176.562 1112.94 172.122C1130.47 166.202 1150.21 166.202 1167.73 172.369C1163.54 168.669 1159.09 165.216 1154.9 161.516C1186 164.969 1216.6 172.122 1245.97 182.975L1247.7 171.629C1231.16 168.669 1214.87 165.462 1198.34 162.749C1089 144.25 978.43 135.123 867.87 125.997C858.98 125.257 847.14 127.23 842.69 133.643C842.45 133.89 842.2 134.383 841.95 134.63C841.95 134.877 841.71 135.123 841.71 135.123C841.46 135.37 841.46 135.863 841.21 136.357C841.21 136.603 841.21 137.097 840.97 137.343C840.97 137.59 840.72 138.083 840.72 138.33C840.72 139.07 840.72 139.563 840.72 140.303C841.46 146.223 847.14 150.17 852.32 153.376C852.56 153.623 853.06 153.869 853.31 154.116C853.8 154.363 854.54 154.856 855.03 155.103C855.53 155.349 856.02 155.843 856.51 155.843C860.71 157.569 864.9 158.556 868.85 160.776C869.1 161.023 869.35 161.023 869.59 161.269C870.33 161.763 871.32 162.503 872.31 162.503C873.3 162.503 874.04 162.009 874.78 162.009C876.26 162.009 877.25 163.489 877.99 164.476C880.45 167.189 884.16 168.916 887.61 168.422C888.84 168.422 890.33 167.929 891.56 168.669C892.55 169.162 893.29 170.149 894.03 171.136C896.99 174.342 901.43 175.082 905.63 176.069C909.82 177.055 914.27 179.275 915.5 183.222C915.75 184.455 915.99 185.935 916.24 187.168C917.23 189.882 920.44 191.608 921.42 194.321C921.67 194.568 921.67 195.061 921.67 195.308C924.63 197.035 927.35 198.761 930.31 200.241C932.04 200.981 933.76 201.968 935.49 202.708C939.44 204.928 943.88 206.901 948.08 208.381C951.78 209.861 955.73 211.094 959.68 211.341C956.22 209.121 952.77 206.654 949.56 204.434C928.83 188.895 906.86 172.369 884.65 155.843Z" fill="#30ABB6"/>
<path d="M880.21 230.826C876.01 226.387 872.31 221.453 868.85 216.274C866.88 214.547 864.66 213.067 862.68 211.341C838.99 191.361 820.73 163.242 818.26 132.41C817.77 126.737 817.77 120.817 820.48 115.884C825.17 106.758 836.28 103.058 846.15 100.592C849.6 99.852 853.06 99.112 856.27 98.372C838 95.412 819.74 92.699 801.48 89.985C801.23 89.985 800.74 89.985 800.49 89.739C795.31 88.999 790.12 88.259 784.94 87.765C783.95 87.765 782.97 87.519 781.98 87.519C780 87.765 778.28 88.259 776.55 88.752L757.3 212.081C755.82 222.193 762.73 231.813 772.85 233.54L915.25 255.739C913.03 254.259 910.56 252.779 908.34 251.546C898.22 245.379 888.35 239.213 880.21 230.826Z" fill="#DDCCAB"/>
<path d="M782.23 87.519C781.98 87.519 781.98 87.519 782.23 87.519C783.21 87.519 784.2 87.765 784.94 87.765C783.95 87.765 782.97 87.519 782.23 87.519Z" fill="#DDCCAB"/>
<path d="M1019.16 124.271C1018.42 124.271 1017.68 124.024 1017.18 124.024C1012.99 123.531 1008.54 122.791 1004.35 122.297C1003.11 122.051 1002.13 122.051 1000.89 121.804C999.17 121.557 997.44 121.311 995.71 121.064C993.49 120.817 991.52 120.571 989.29 120.077C988.06 119.831 986.83 119.584 985.59 119.584C984.36 119.337 982.88 119.091 981.64 119.091C980.16 118.844 978.68 118.597 977.2 118.351C976.21 118.104 975.23 118.104 974.24 117.857C973.5 117.857 972.76 117.611 972.02 117.611C967.58 116.871 963.13 116.131 958.69 115.638C957.95 115.638 957.21 115.391 956.47 115.391C955.73 115.391 954.99 115.144 954.25 115.144C949.81 114.404 945.12 113.664 940.67 112.924C940.18 112.924 939.69 112.678 939.19 112.678C938.21 112.431 936.97 112.431 935.98 112.184C934.5 111.938 932.78 111.691 931.3 111.444C929.07 110.951 926.61 110.704 924.38 110.211C909.33 107.745 894.52 105.278 879.47 102.565C873.3 101.578 867.13 100.591 860.96 99.358C859.48 99.111 857.75 98.865 856.27 98.618C852.81 99.358 849.36 100.098 846.15 100.838C836.03 103.305 825.17 107.005 820.48 116.131C818.01 121.311 817.77 127.23 818.26 132.657C820.97 163.489 838.99 191.608 862.68 211.587C864.66 213.314 866.88 215.041 868.85 216.521C866.63 213.067 864.66 209.614 862.93 206.161C855.77 192.841 850.34 178.782 846.39 164.476C845.65 161.516 844.67 156.583 846.64 154.116C844.91 152.143 843.43 149.923 841.95 147.95C840.47 145.73 838.99 143.51 838.99 140.797C838.99 137.59 840.97 135.124 843.43 133.397C843.43 133.644 843.19 133.644 843.19 133.89C847.63 127.724 859.48 125.504 868.36 126.244C978.93 135.37 1089.5 144.496 1198.83 162.996C1215.37 165.709 1231.65 168.669 1248.19 171.875L1250.17 159.789C1235.6 157.323 1221.04 154.856 1206.48 152.636C1205.25 152.39 1204.26 152.143 1203.03 152.143C1202.53 152.143 1202.29 152.143 1201.79 151.896C1193.89 150.663 1186.24 149.43 1178.35 148.196C1176.12 147.95 1173.9 147.456 1171.68 147.21C1164.28 145.976 1156.87 144.99 1149.47 143.757C1149.22 143.757 1148.98 143.757 1148.73 143.757C1146.01 143.263 1143.55 143.017 1140.83 142.523C1133.92 141.537 1127.01 140.303 1120.1 139.317C1117.63 138.823 1114.92 138.577 1112.45 138.083C1111.71 138.083 1110.97 137.837 1110.47 137.837C1103.81 136.85 1096.9 135.863 1090.24 134.877C1086.78 134.384 1083.57 133.89 1080.12 133.397C1074.69 132.657 1069.26 131.917 1064.08 131.177C1062.35 130.93 1060.87 130.684 1059.14 130.437H1058.89C1057.66 130.19 1056.42 130.19 1055.19 129.944C1053.46 129.697 1051.74 129.45 1050.01 129.204C1039.64 126.984 1029.52 125.751 1019.16 124.271Z" fill="#DDCCAB"/>
<path d="M891.81 191.608C875.52 180.509 858.98 169.162 846.64 153.87C844.67 156.336 845.65 161.269 846.39 164.229C850.34 178.782 855.77 192.841 862.93 205.914C864.9 209.368 866.88 212.821 868.85 216.274C891.31 233.54 917.47 245.38 943.88 255.492C951.29 258.452 958.69 261.166 966.09 263.632L1031.25 273.745C1014.22 265.852 997.44 257.466 981.15 248.339C950.3 231.32 920.93 211.341 891.81 191.608Z" fill="#DDCCAB"/>
<path d="M841.46 140.303C841.46 139.563 841.46 138.823 841.46 138.33C841.46 138.083 841.46 137.59 841.71 137.343C841.71 137.097 841.71 136.603 841.95 136.357C841.95 135.863 842.2 135.617 842.45 135.123C842.45 134.877 842.69 134.63 842.69 134.63C842.94 134.383 843.19 133.89 843.43 133.643C843.43 133.397 843.68 133.397 843.68 133.15C840.97 135.123 838.99 137.59 839.24 140.55C839.24 143.263 840.72 145.483 842.2 147.703C843.68 149.923 845.16 151.896 846.89 153.87C847.38 153.13 848.12 152.636 849.36 152.39C851.08 151.896 852.81 152.883 854.54 153.623C854.29 153.376 853.8 153.13 853.55 152.883C847.88 150.17 842.2 146.223 841.46 140.303Z" fill="#C9B38E"/>
<path d="M696.092 244.887C694.117 246.613 692.883 248.093 692.883 248.093C692.883 248.093 694.611 247.6 697.079 246.86C699.053 246.12 701.274 245.133 703.742 244.147C702.508 245.627 701.768 246.613 701.768 246.613C701.768 246.613 703.496 246.12 705.717 245.133C707.444 244.394 709.91 243.407 712.13 242.174C711.39 242.914 710.41 243.407 709.91 244.147C707.938 245.873 706.704 247.6 706.704 247.6C706.704 247.6 708.432 247.107 710.9 246.12C713.37 245.133 716.58 243.654 719.78 242.174C722.99 240.694 725.95 239.214 728.42 237.734C729.66 236.994 730.64 236.5 731.14 236.007C731.88 236.007 732.87 236.007 733.61 236.007C733.85 236.007 734.1 236.007 734.35 236.007C732.37 236.5 730.4 237.24 728.42 238.227C724.72 239.954 721.51 242.174 719.29 244.147C717.07 246.12 716.08 247.847 716.08 247.847C716.08 247.847 716.58 247.6 717.32 247.353C718.06 247.107 719.29 246.613 720.53 245.873C723.24 244.64 726.45 243.16 729.9 241.434C733.36 239.954 736.81 238.227 739.28 236.994C739.78 236.747 740.27 236.5 740.76 236.254C743.23 236.5 745.45 236.747 747.67 236.994C748.41 237.24 748.91 237.24 749.65 237.24C749.15 237.24 748.66 237.24 748.17 237.24C745.45 236.994 741.5 237.487 737.8 238.474C734.1 239.46 730.64 241.187 728.42 242.667C725.95 244.147 724.72 245.627 724.72 245.627C724.72 245.627 725.21 245.627 725.95 245.38C726.7 245.133 727.93 244.887 729.16 244.64C731.88 243.9 735.33 242.914 738.79 242.174C742.24 241.187 745.7 240.2 748.41 239.46C749.65 238.967 750.88 238.72 751.62 238.474C752.36 238.227 752.86 237.98 752.86 237.98C753.35 237.98 753.84 238.227 754.34 238.227C756.31 238.72 758.53 239.214 760.26 239.707C760.51 239.707 760.51 239.707 760.75 239.954C760.26 239.954 758.29 239.707 755.32 239.954C753.6 239.954 751.62 240.2 749.65 240.694C748.66 240.94 747.67 241.187 746.44 241.434C745.45 241.68 744.22 242.174 743.23 242.42C742.24 242.914 741.26 243.16 740.02 243.654C739.04 244.147 738.05 244.64 737.06 245.133C735.09 246.12 733.61 247.107 732.12 248.093C729.41 250.067 727.68 251.547 727.68 251.547C727.68 251.547 728.18 251.3 729.16 251.053C730.15 250.807 731.38 250.313 733.11 249.82C734.59 249.327 736.57 248.833 738.29 248.093C740.27 247.353 742.24 246.613 744.22 246.12C744.22 246.12 744.22 246.12 744.46 246.12C744.22 246.12 744.22 246.367 743.97 246.367C743.72 246.613 743.48 246.613 743.48 246.613C743.48 246.613 744.22 246.367 745.7 246.12C746.44 245.873 747.67 245.873 748.91 245.627C745.95 246.86 743.23 248.34 741.5 249.82C739.28 251.3 738.29 252.78 738.29 252.78C738.29 252.78 740.02 252.533 742.49 251.793C744.96 251.053 748.17 250.067 751.38 248.833H751.62C753.1 249.08 754.83 249.08 756.56 248.833C757.05 248.833 757.55 248.587 758.04 248.587C757.55 248.833 757.3 249.08 756.81 249.327C754.09 250.313 751.38 251.547 749.65 253.026C747.92 254.506 746.93 255.74 746.93 255.74C746.93 255.74 747.43 255.74 747.92 255.493C748.66 255.246 749.4 255.246 750.64 255C752.86 254.506 755.57 253.766 758.29 252.78C761 252.04 763.72 251.053 765.69 250.313C766.18 250.313 766.68 250.313 767.17 250.067C765.94 250.313 764.7 250.807 763.72 251.053C761.99 251.793 761 252.78 761 252.78C761 252.78 761.25 252.78 761.99 253.026C760.51 253.273 758.78 254.013 757.79 254.506C757.55 254.753 757.3 254.753 757.05 255C756.81 255 756.81 255 756.56 255C754.83 255.246 752.86 255.493 750.88 255.74C748.91 255.986 746.93 256.48 744.96 256.726C741.01 257.466 737.06 258.453 732.87 259.686C731.88 259.933 730.89 260.18 729.9 260.673L761.25 265.606C761.49 265.359 761.74 265.113 762.23 265.113C762.73 265.113 763.22 265.113 763.96 264.866C764.46 264.866 764.95 264.619 765.44 264.619C764.95 264.866 764.7 265.113 764.46 265.606C763.96 265.606 763.72 265.853 763.47 266.099L811.35 273.499C811.84 273.252 812.58 273.252 812.83 273.006H813.08C813.32 273.252 813.57 273.499 813.82 273.746L814.06 273.992L953.26 295.698C952.77 294.958 952.27 294.465 951.78 293.972C952.52 294.712 953.01 295.205 953.75 295.945L958.2 296.685C956.96 294.465 955.23 291.998 953.01 290.025C951.78 288.792 950.55 287.805 949.31 287.065V286.819C948.82 285.832 948.08 284.845 947.34 283.859C946.35 282.872 945.36 282.132 944.13 281.392C942.89 280.652 941.66 280.159 940.43 279.912C939.93 279.912 939.44 279.665 938.95 279.665C937.71 278.679 936.23 277.692 934.75 276.706C936.23 276.706 937.22 276.459 937.22 276.459C937.22 276.459 936.48 275.472 934.75 274.732C933.27 273.746 931.05 273.252 928.58 273.006C927.1 273.006 925.62 273.252 924.14 273.499C923.15 273.499 921.92 273.252 920.93 273.252C920.44 273.252 919.94 273.252 919.7 273.252C920.44 273.006 920.93 272.759 921.67 272.266C923.15 271.526 924.14 270.786 924.14 270.786C924.14 270.786 923.15 270.292 921.42 270.046C919.7 269.799 917.47 270.046 915.5 270.786C913.28 271.526 911.55 272.759 910.32 273.992C909.58 274.732 909.08 275.472 908.84 275.966C906.37 276.952 904.15 278.186 902.17 279.665C899.95 279.912 897.24 280.652 894.77 281.885C894.03 282.132 893.53 282.625 893.04 282.872C893.04 282.625 893.29 282.379 893.29 282.132C893.29 282.132 893.29 281.885 893.53 281.885C895.01 281.145 896.99 280.405 898.72 279.419C901.19 278.186 903.65 276.952 905.63 275.719C907.6 274.732 908.84 273.746 908.84 273.746C908.84 273.746 907.36 273.499 904.89 273.746C902.67 273.992 899.7 274.732 896.99 276.212C896.5 276.459 896.25 276.706 895.76 276.952C896 276.459 896 275.966 896.25 275.472C897.73 275.226 899.46 274.732 900.94 273.992C902.91 273.252 904.89 272.019 906.12 271.032C907.36 270.046 908.1 269.059 908.1 269.059C908.1 269.059 906.86 268.813 905.13 269.059C904.15 269.059 902.91 269.306 901.68 269.799C902.17 269.306 902.91 268.566 903.41 268.073C904.15 267.333 904.89 266.593 905.38 265.606C905.87 265.359 906.37 265.113 906.86 264.866C909.33 263.633 912.04 262.646 913.77 261.413C914.76 260.92 915.5 260.426 916.24 260.18C916.73 259.933 917.23 259.686 917.23 259.686C917.23 259.686 915.75 259.193 913.53 259.44C912.29 259.44 911.06 259.686 909.82 259.933L910.07 259.686C910.56 258.946 911.06 258.206 911.3 257.713C913.03 257.22 914.76 256.973 916.24 256.48C917.23 256.233 917.97 255.986 918.71 255.74C919.2 255.493 919.7 255.493 919.7 255.493C919.7 255.493 918.46 254.753 916.24 254.506C915.5 254.26 914.51 254.26 913.77 254.26C914.27 253.766 914.51 253.273 915.01 252.78C917.23 252.287 919.2 251.793 920.93 251.3C922.66 250.807 923.89 250.067 923.89 250.067C923.89 250.067 922.66 249.327 920.93 249.08C919.7 248.833 917.97 248.587 916.24 248.833C916.49 248.833 916.49 248.587 916.73 248.587C918.21 248.34 919.7 248.093 921.42 247.6C924.14 246.86 926.85 246.367 928.83 245.627C930.8 244.887 932.28 244.394 932.28 244.394C932.28 244.394 930.8 243.654 928.58 243.407C926.85 243.16 924.63 243.16 922.41 243.407C922.66 243.16 923.15 242.667 923.4 242.42C923.64 242.174 923.89 241.927 923.89 241.68C924.38 241.68 924.88 241.434 925.37 241.434C927.59 240.94 929.81 240.447 931.54 239.707C933.27 239.214 934.5 238.474 934.5 238.474C934.5 238.474 933.27 237.734 931.3 237.487C929.32 236.994 926.85 236.994 924.38 237.487C923.89 237.734 923.15 237.734 922.66 237.98C923.15 237.734 923.4 237.24 923.89 236.994C924.38 236.994 924.63 236.994 925.12 236.994C926.85 236.994 929.07 236.747 931.05 236.5C933.27 236.254 935.24 235.761 936.97 235.267C938.7 234.774 939.69 234.281 939.69 234.281C939.69 234.281 938.7 233.541 936.97 233.047C935.24 232.554 932.78 232.307 930.55 232.554C930.31 232.554 929.81 232.801 929.57 232.801C930.31 232.307 931.3 231.814 932.04 231.321C932.04 231.321 932.28 231.321 932.78 231.567C933.27 231.567 934.01 231.814 935 231.814C936.72 232.061 938.7 232.307 940.92 232.554C943.14 232.801 945.12 233.047 946.84 233.294C947.58 233.294 948.32 233.541 949.06 233.541C949.56 233.541 950.05 233.541 950.05 233.541C950.05 233.541 949.31 232.307 947.83 231.321C946.35 230.087 944.13 229.101 941.41 228.854C940.43 228.854 939.69 228.854 938.7 228.854C939.44 228.607 939.93 228.607 940.43 228.361C942.4 228.114 944.13 228.114 945.36 228.361C946.84 228.607 947.83 228.854 948.57 229.101C949.31 229.347 949.56 229.594 949.56 229.594C949.56 229.594 949.31 229.347 948.57 229.101C947.83 228.854 946.84 228.114 945.36 227.867C942.65 227.128 938.21 226.881 933.27 228.361C932.04 228.854 930.55 229.347 929.07 230.087C929.07 229.841 929.32 229.841 929.32 229.594C930.06 228.114 930.31 226.881 930.31 226.881C930.31 226.881 929.07 227.374 927.59 228.114C926.11 229.101 924.38 230.334 922.9 232.061C921.92 233.047 921.18 234.281 920.44 235.267C919.7 235.761 918.95 236.254 918.21 236.747C917.72 237.24 917.23 237.487 916.73 237.98C917.72 236.5 918.71 235.021 919.7 233.294C921.18 231.074 922.41 228.854 923.4 227.127C923.89 226.141 924.38 225.401 924.63 224.908C924.88 224.414 925.12 223.921 925.12 223.921C925.12 223.921 923.64 224.414 921.92 225.648C920.44 226.634 918.71 228.361 917.47 230.087C917.23 230.087 917.23 230.334 916.98 230.334C915.25 231.567 913.03 233.541 911.55 236.007C910.07 238.474 909.08 241.187 908.84 243.16C908.59 244.147 908.59 244.887 908.59 245.38C908.34 245.873 907.85 246.12 907.6 246.367C906.86 247.107 906.12 247.847 905.63 248.833C906.37 246.86 906.86 244.64 907.6 242.42C908.34 239.46 908.84 236.5 909.33 234.281C909.58 232.061 909.58 230.334 909.58 230.334C909.58 230.334 908.34 231.567 907.11 233.541C906.37 235.021 905.38 236.747 904.64 238.72C904.64 238.474 904.64 237.98 904.64 237.734C903.41 239.46 902.67 241.187 901.93 242.914C901.93 242.174 901.93 241.434 901.93 240.694C901.93 238.227 901.68 236.5 901.68 236.5C901.68 236.5 900.69 237.98 899.7 240.2C898.72 242.174 897.98 245.133 897.24 247.847C897.24 246.12 896.99 245.133 896.99 245.133C896.99 245.133 896 247.107 895.26 249.82C895.26 250.067 895.01 250.56 895.01 251.053C894.77 249.08 894.03 247.847 894.03 247.847C894.03 247.847 893.29 249.08 892.79 251.053C892.55 252.04 892.3 253.026 892.05 254.013C891.81 254.506 891.31 255.493 890.82 256.726C890.57 257.22 890.57 257.713 890.33 258.206C890.08 258.453 890.08 258.453 889.83 258.7C889.59 257.96 889.59 257.466 889.34 256.973C889.83 255.493 890.57 254.013 891.07 252.533C891.81 250.56 892.79 248.587 893.78 246.86C894.27 245.873 894.77 245.133 895.26 244.147C895.76 243.407 896.25 242.42 896.5 241.68C897.24 240.2 897.98 238.967 898.47 238.227C898.96 237.24 899.21 236.747 899.21 236.747C899.21 236.747 898.72 236.994 897.98 237.734C897.24 238.227 896 239.214 894.77 240.447C894.03 241.187 893.29 242.174 892.3 243.16C891.56 243.9 890.82 244.64 890.08 245.38C890.33 244.887 890.57 244.64 890.57 244.147C891.07 243.654 891.31 243.16 891.81 242.42C893.29 240.2 894.77 237.98 895.76 236.254C896.74 234.527 897.48 233.047 897.48 233.047C897.48 233.047 896.5 233.294 895.26 234.034C895.51 233.294 895.76 232.554 896 232.307C896.25 231.567 896.5 231.074 896.5 231.074C896.5 231.074 896.25 231.321 895.76 231.567C896.5 230.334 897.24 229.347 897.73 228.114C898.96 225.894 899.46 224.414 899.46 224.414C899.46 224.414 899.21 224.414 898.96 224.661C899.46 223.921 899.95 223.181 900.2 222.441C901.19 220.961 901.43 219.728 901.43 219.728C901.43 219.728 900.2 219.974 898.47 220.961C897.98 221.208 897.24 221.701 896.5 222.194C896.5 222.194 896.5 221.948 896.74 221.948C898.47 219.728 899.95 217.261 900.94 215.288C901.93 213.315 902.42 211.588 902.42 211.588C902.42 211.588 900.94 212.328 899.21 213.808L898.96 214.055C899.46 212.821 899.95 211.835 900.44 210.848C901.43 208.628 901.68 206.902 901.68 206.902C901.68 206.902 901.43 207.148 900.69 207.642C900.69 207.148 900.94 206.902 900.94 206.902C900.94 206.902 899.7 207.888 898.22 209.615L897.98 209.861C897.98 209.615 897.98 209.121 897.98 208.875C898.96 208.135 900.2 207.148 901.19 205.668C902.17 204.435 902.67 202.955 902.91 201.475C903.16 200.242 903.16 199.255 903.16 199.255C903.16 199.255 902.17 199.502 901.19 200.242C900.69 200.488 900.2 200.982 899.7 201.475C900.69 198.762 901.68 196.049 902.42 193.335C902.42 193.089 902.17 192.842 901.93 193.089C901.68 193.335 901.43 193.829 901.19 194.075C901.43 193.582 901.68 193.335 901.93 192.842C902.17 192.595 901.68 192.349 901.43 192.595C899.7 194.815 897.98 197.282 896.74 199.995C896.74 198.515 896.5 197.529 896.5 197.529C896.5 197.529 895.51 198.515 894.77 199.995C893.78 201.475 893.04 203.448 892.3 205.668C891.81 207.888 891.56 209.861 891.56 211.588C891.56 211.835 891.56 212.081 891.56 212.575C891.31 213.315 891.07 213.808 891.07 214.548C891.07 214.795 891.07 215.041 891.31 215.288C891.07 216.275 890.57 217.261 890.33 218.248V218.494C890.33 218.494 890.33 218.741 890.08 218.741C889.83 219.481 889.34 221.208 889.34 221.208H889.09C889.83 218.988 890.57 215.535 891.07 212.081C891.81 208.875 892.3 205.422 892.55 202.955C892.79 200.489 892.79 198.515 892.79 198.515C892.79 198.515 891.56 199.749 890.33 202.215C889.09 204.435 887.86 207.888 887.12 211.341C886.38 214.795 886.38 218.248 886.62 220.961C886.62 221.208 886.62 221.454 886.62 221.948C886.38 223.428 886.13 224.661 885.88 226.141C885.88 223.428 885.64 220.961 885.14 218.988C884.65 216.275 884.16 214.548 884.16 214.548C884.16 214.548 883.42 216.275 882.92 218.988C882.43 221.701 882.18 225.154 882.18 228.854C882.18 230.827 882.18 232.801 882.43 234.527C882.43 234.281 882.43 234.034 882.43 234.034C881.93 231.567 881.19 229.841 881.19 229.841C881.19 229.841 880.45 231.567 880.21 234.281C879.71 236.994 879.71 240.447 880.21 243.9C880.7 247.353 881.44 250.807 882.67 253.273C882.92 254.013 883.17 254.753 883.66 255.246C883.66 255.74 883.66 255.986 883.66 256.48C883.42 255.986 883.17 255.493 883.17 254.753C881.93 251.3 880.45 247.847 879.47 245.133C878.23 242.667 877.25 240.94 877.25 240.94C877.25 240.94 877 242.914 877.25 245.873C877.49 248.833 878.23 252.533 879.47 256.233C879.96 257.22 880.21 258.453 880.7 259.44C880.21 258.7 879.71 257.96 879.22 257.22C877.99 255.74 877 254.753 877 254.753C877 254.753 876.75 256.233 877.25 258.206C877.49 258.946 877.74 259.933 877.99 260.92C877.25 260.18 876.75 259.933 876.75 259.933C876.75 259.933 876.5 261.166 876.75 262.893C877 264.619 877.49 266.593 878.48 268.566C878.97 269.799 879.71 270.786 880.21 271.772C880.21 272.512 880.21 273.499 880.21 274.486C879.71 273.746 879.47 273.006 878.97 272.266C877 269.059 875.27 267.333 875.27 267.333C875.27 267.333 875.52 268.073 875.76 269.059C876.01 270.046 876.5 271.526 877 273.252C877.49 274.732 877.99 276.212 878.48 277.939C877.99 276.952 877.49 275.966 877 274.979C876.5 273.746 875.76 272.512 875.27 271.279C874.53 270.046 874.04 268.813 873.3 267.579C872.56 266.346 872.06 265.359 871.32 264.126C870.09 261.906 868.61 259.933 867.62 258.206C865.4 254.753 863.42 252.78 863.42 252.78C863.42 252.78 864.16 255.493 865.65 259.44C866.14 260.673 866.63 262.153 867.37 263.633C867.37 263.633 867.37 263.633 867.37 263.386C866.88 262.399 866.14 261.166 865.65 260.18C864.9 259.193 864.41 257.96 863.67 256.973C863.18 255.986 862.44 255 861.7 254.013C860.46 252.04 859.23 250.313 857.99 248.833C855.77 245.873 854.05 243.9 854.05 243.9C854.05 243.9 854.29 244.887 854.79 246.367C854.05 245.38 853.31 244.393 852.32 243.407C850.59 241.434 849.11 239.707 847.38 238.474C845.9 236.994 844.42 236.007 843.68 235.267C842.69 234.527 842.2 234.281 842.2 234.281C842.2 234.281 842.45 234.774 843.19 235.76C843.93 236.747 844.67 238.227 845.9 239.707C845.9 239.954 846.15 239.954 846.15 240.2C845.9 240.2 845.41 239.954 845.16 239.954C844.67 239.954 844.17 239.707 843.68 239.707C843.19 239.214 842.45 238.72 841.95 238.474C841.46 237.98 840.97 237.24 840.47 236.747C841.46 236.747 841.95 236.5 841.95 236.5C841.95 236.5 841.21 235.514 839.48 234.774C838.99 234.527 838.5 234.281 838 234.034L837.76 233.787C836.03 232.061 834.55 230.334 833.07 229.101C830.11 226.388 828.13 224.908 828.13 224.908C828.13 224.908 829.37 227.374 831.34 230.581C831.83 231.321 832.57 232.307 833.07 233.294C831.59 233.294 830.35 233.541 829.12 233.787C828.38 233.294 827.64 233.047 827.14 232.554C828.38 231.814 829.12 231.321 829.12 231.321C829.12 231.321 828.13 230.827 826.4 230.581C825.42 230.334 824.43 230.334 823.2 230.581C821.96 229.841 820.97 229.594 820.97 229.594C820.97 229.594 821.47 230.087 822.45 230.581C821.71 230.827 820.97 230.827 820.23 231.074C818.01 231.814 816.28 233.047 815.05 234.281C814.31 235.021 813.82 235.76 813.57 236.254C811.1 237.24 808.88 238.474 806.91 239.954C804.68 240.2 801.97 240.94 799.5 242.174C798.76 242.42 798.27 242.914 797.77 243.16C797.77 242.914 798.02 242.667 798.02 242.42C798.02 242.42 798.02 242.174 798.27 242.174C799.75 241.434 801.72 240.694 803.45 239.707C805.92 238.474 808.39 237.24 810.36 236.007C812.34 235.021 813.57 234.034 813.57 234.034C813.57 234.034 812.09 233.787 809.62 234.034C807.4 234.281 804.44 235.021 801.72 236.5C801.23 236.747 800.98 236.994 800.49 237.24C800.74 236.747 800.74 236.254 800.98 235.76C802.46 235.514 804.19 235.021 805.67 234.281C807.65 233.541 809.62 232.307 810.86 231.321C812.09 230.334 812.83 229.347 812.83 229.347C812.83 229.347 811.6 229.101 809.87 229.347C808.88 229.347 807.65 229.594 806.41 230.087C806.91 229.594 807.65 228.854 808.14 228.361C808.88 227.621 809.62 226.881 810.11 225.894C810.61 225.648 811.1 225.401 811.6 225.154C814.06 223.921 816.78 222.934 818.51 221.701C819.49 221.208 820.23 220.714 820.97 220.468C821.47 220.221 821.96 219.974 821.96 219.974C821.96 219.974 820.48 219.481 818.26 219.728C817.03 219.728 815.79 219.974 814.56 220.221L814.8 219.974C815.3 219.234 815.79 218.494 816.04 218.001C817.77 217.508 819.49 217.261 820.97 216.768C821.96 216.521 822.7 216.275 823.44 216.028C823.94 215.781 824.43 215.781 824.43 215.781C824.43 215.781 823.2 215.041 820.97 214.795C820.23 214.548 819.25 214.548 818.51 214.548C819 214.055 819.25 213.561 819.74 213.068C821.96 212.575 823.94 212.081 825.66 211.588C827.39 211.095 828.62 210.355 828.62 210.355C828.62 210.355 827.39 209.615 825.66 209.368C824.43 209.122 822.7 208.875 820.97 209.122C821.22 209.122 821.22 208.875 821.47 208.875C822.95 208.628 824.43 208.382 826.16 207.888C828.87 207.148 831.59 206.655 833.56 205.915C835.54 205.175 837.02 204.682 837.02 204.682C837.02 204.682 835.54 203.942 833.31 203.695C831.59 203.448 829.37 203.448 827.14 203.695C827.39 203.448 827.88 202.955 828.13 202.708C828.38 202.462 828.62 202.215 828.62 201.968C829.12 201.968 829.61 201.722 830.11 201.722C832.33 201.228 834.55 200.735 836.28 199.995C838 199.502 839.24 198.762 839.24 198.762C839.24 198.762 838 198.022 836.03 197.775C834.05 197.282 831.59 197.282 829.12 197.775C828.62 198.022 827.88 198.022 827.39 198.269C827.88 198.022 828.13 197.529 828.62 197.282C829.12 197.282 829.37 197.282 829.86 197.282C831.59 197.282 833.81 197.035 835.78 196.789C838 196.542 839.98 196.049 841.71 195.555C843.43 195.062 844.42 194.569 844.42 194.569C844.42 194.569 843.43 193.829 841.71 193.335C839.98 192.842 837.51 192.595 835.29 192.842C835.04 192.842 834.55 193.089 834.3 193.089C835.04 192.595 836.03 192.102 836.77 191.609C836.77 191.609 837.02 191.609 837.51 191.856C838 191.856 838.74 192.102 839.73 192.102C841.46 192.349 843.43 192.595 845.65 192.842C847.88 193.089 849.85 193.335 851.58 193.582C852.32 193.582 853.06 193.829 853.8 193.829C854.29 193.829 854.79 193.829 854.79 193.829C854.79 193.829 854.05 192.595 852.56 191.609C851.08 190.376 848.86 189.389 846.15 189.142C845.16 189.142 844.42 189.142 843.43 189.142C844.17 188.896 844.67 188.896 845.16 188.649C847.14 188.402 848.86 188.402 850.1 188.649C851.58 188.896 852.56 189.142 853.31 189.389C854.05 189.636 854.29 189.882 854.29 189.882C854.29 189.882 854.05 189.636 853.31 189.389C852.56 189.142 851.58 188.402 850.1 188.156C847.38 187.416 842.94 187.169 838 188.649C836.77 189.142 835.29 189.636 833.81 190.376C833.81 190.129 834.05 190.129 834.05 189.882C834.79 188.402 835.04 187.169 835.04 187.169C835.04 187.169 833.81 187.662 832.33 188.402C830.85 189.389 829.12 190.622 827.64 192.349C826.65 193.335 825.91 194.569 825.17 195.555C824.43 196.049 823.69 196.542 822.95 197.035C822.45 197.529 821.96 197.775 821.47 198.269C822.45 196.789 823.44 195.309 824.43 193.582C825.91 191.362 827.14 189.142 828.13 187.416C828.62 186.429 829.12 185.689 829.37 185.196C829.61 184.702 829.86 184.209 829.86 184.209C829.86 184.209 828.38 184.702 826.65 185.936C825.17 186.922 823.44 188.649 822.21 190.376C821.96 190.376 821.96 190.622 821.71 190.622C819.99 191.856 817.77 193.829 816.28 196.295C814.8 198.762 813.82 201.475 813.57 203.448C813.32 204.435 813.32 205.175 813.32 205.668C813.08 205.915 812.58 206.408 812.34 206.655C811.6 207.395 810.86 208.135 810.36 209.122C811.1 207.148 811.6 204.928 812.34 202.708C813.08 199.749 813.57 196.789 814.06 194.569C814.31 192.349 814.31 190.622 814.31 190.622C814.31 190.622 813.08 191.856 811.84 193.829C811.1 195.309 810.11 197.035 809.37 199.009C809.37 198.762 809.37 198.269 809.37 198.022C808.14 199.749 807.4 201.475 806.66 203.202C806.66 202.462 806.66 201.722 806.66 200.982C806.66 198.515 806.41 196.789 806.41 196.789C806.41 196.789 805.43 198.269 804.44 200.489C803.45 202.462 802.71 205.422 801.97 208.135C801.97 206.408 801.72 205.422 801.72 205.422C801.72 205.422 800.74 207.395 800 210.108C800 210.355 799.75 210.848 799.75 211.341C799.5 209.368 798.76 208.135 798.76 208.135C798.76 208.135 798.02 209.368 797.53 211.341C797.28 212.328 797.03 213.315 796.79 214.301C796.54 214.795 796.05 215.781 795.55 217.015C795.31 217.508 795.31 218.001 795.06 218.494C794.81 218.741 794.81 218.741 794.57 218.988C794.32 218.248 794.32 217.755 794.07 217.261C794.57 215.781 795.31 214.301 795.8 212.821C796.54 210.848 797.53 208.875 798.51 207.148C799.01 206.162 799.5 205.422 800 204.435C800.49 203.695 800.98 202.708 801.23 201.968C801.97 200.489 802.71 199.255 803.2 198.515C803.7 197.529 803.94 197.035 803.94 197.035C803.94 197.035 803.45 197.282 802.71 198.022C801.97 198.515 800.74 199.502 799.5 200.735C798.76 201.475 798.02 202.462 797.03 203.448C796.29 204.188 795.55 204.928 794.81 205.668C795.06 205.175 795.31 204.928 795.31 204.435C795.8 203.942 796.05 203.448 796.54 202.708C798.02 200.488 799.5 198.269 800.49 196.542C801.48 194.815 802.22 193.335 802.22 193.335C802.22 193.335 801.23 193.582 800 194.322C800.24 193.582 800.49 192.842 800.74 192.595C800.98 191.856 801.23 191.362 801.23 191.362C801.23 191.362 800.98 191.609 800.49 191.856C801.23 190.622 801.97 189.636 802.46 188.402C803.7 186.182 804.19 184.702 804.19 184.702C804.19 184.702 803.94 184.702 803.7 184.949C804.19 184.209 804.68 183.469 804.93 182.729C805.92 181.249 806.17 180.016 806.17 180.016C806.17 180.016 804.93 180.263 803.2 181.249C802.71 181.496 801.97 181.989 801.23 182.483C801.23 182.483 801.23 182.236 801.48 182.236C803.2 180.016 804.68 177.549 805.67 175.576C806.66 173.603 807.15 171.876 807.15 171.876C807.15 171.876 805.67 172.616 803.94 174.096L803.7 174.343C804.19 173.11 804.68 172.123 805.18 171.136C806.17 168.916 806.41 167.19 806.41 167.19C806.41 167.19 806.17 167.436 805.43 167.93C805.43 167.436 805.67 167.19 805.67 167.19C805.67 167.19 804.44 168.176 802.96 169.903L802.71 170.15C802.71 169.903 802.71 169.41 802.71 169.163C803.7 168.423 804.93 167.436 805.92 165.956C806.91 164.723 807.4 163.243 807.65 161.763C807.89 160.53 807.89 159.543 807.89 159.543C807.89 159.543 806.91 159.79 805.92 160.53C805.43 160.777 804.93 161.27 804.44 161.763C805.43 159.05 806.41 156.337 807.15 153.624C807.15 153.377 806.91 153.13 806.66 153.377C806.41 153.624 806.17 154.117 805.92 154.364C806.17 153.87 806.41 153.624 806.66 153.13C806.91 152.884 806.41 152.637 806.17 152.884C804.44 155.104 802.71 157.57 801.48 160.283C801.48 158.803 801.23 157.817 801.23 157.817C801.23 157.817 800.24 158.803 799.5 160.283C798.51 161.763 797.77 163.737 797.03 165.956C796.54 168.176 796.29 170.15 796.29 171.876C796.29 172.123 796.29 172.37 796.29 172.863C796.05 173.603 795.8 174.096 795.8 174.836C795.8 175.083 795.8 175.329 796.05 175.576C795.8 176.563 795.31 177.549 795.06 178.536V178.783C795.06 178.783 795.06 179.029 794.81 179.029C794.57 179.769 794.07 181.496 794.07 181.496H793.83C794.57 179.276 795.31 175.823 795.8 172.37C796.54 169.163 797.03 165.71 797.28 163.243C797.53 160.777 797.53 158.803 797.53 158.803C797.53 158.803 796.29 160.037 795.06 162.503C793.83 164.723 792.59 168.176 791.85 171.63C791.11 175.083 791.11 178.536 791.36 181.249C791.36 181.496 791.36 181.743 791.36 182.236C791.11 183.716 790.86 184.949 790.62 186.429C790.62 183.716 790.37 181.249 789.88 179.276C789.38 176.563 788.89 174.836 788.89 174.836C788.89 174.836 788.15 176.563 787.66 179.276C787.16 181.989 786.92 185.442 786.92 189.142C786.92 191.116 786.92 193.089 787.16 194.815C787.16 194.569 787.16 194.322 787.16 194.322C786.67 191.856 785.93 190.129 785.93 190.129C785.93 190.129 785.19 191.856 784.94 194.569C784.45 197.282 784.45 200.735 784.94 204.188C785.43 207.642 786.17 211.095 787.41 213.561C787.66 214.301 787.9 215.041 788.4 215.535C788.4 216.028 788.4 216.275 788.4 216.768C788.15 216.275 787.9 215.781 787.9 215.041C786.67 211.588 785.19 208.135 784.2 205.422C782.97 202.955 781.98 201.228 781.98 201.228C781.98 201.228 781.73 203.202 781.98 206.162C782.23 209.122 782.97 212.821 784.2 216.521C784.69 217.508 784.94 218.741 785.43 219.728C784.94 218.988 784.45 218.248 783.95 217.508C782.72 216.028 781.73 215.041 781.73 215.041C781.73 215.041 781.49 216.521 781.98 218.494C782.23 219.234 782.47 220.221 782.72 221.208C781.98 220.468 781.49 220.221 781.49 220.221C781.49 220.221 781.24 221.454 781.49 223.181C781.73 224.908 782.23 226.881 783.21 228.854C783.71 230.087 784.45 231.074 784.94 232.061C784.94 232.801 784.94 233.787 784.94 234.774C784.45 234.034 784.2 233.294 783.71 232.554C781.73 229.347 780 227.621 780 227.621C780 227.621 780.25 228.361 780.5 229.347C780.75 230.334 781.24 231.814 781.73 233.541C782.23 235.021 782.72 236.5 783.21 238.227C782.72 237.24 782.23 236.254 781.73 235.267C781.24 234.034 780.5 232.801 780 231.567C779.26 230.334 778.77 229.101 778.03 227.867C777.29 226.634 776.8 225.648 776.06 224.414C774.82 222.194 773.34 220.221 772.35 218.494C770.13 215.041 768.16 213.068 768.16 213.068C768.16 213.068 768.9 215.781 770.38 219.728C770.87 220.961 771.37 222.441 772.11 223.921C772.11 223.921 772.11 223.921 772.11 223.674C771.61 222.688 770.87 221.454 770.38 220.468C769.64 219.481 769.15 218.248 768.4 217.261C767.91 216.275 767.17 215.288 766.43 214.301C765.2 212.328 763.96 210.601 762.73 209.122C760.51 206.162 758.78 204.188 758.78 204.188C758.78 204.188 759.03 205.175 759.52 206.655C758.78 205.668 758.04 204.682 757.05 203.695C755.32 201.722 753.84 199.995 752.12 198.762C750.64 197.282 749.15 196.295 748.41 195.555C747.43 194.815 746.93 194.569 746.93 194.569C746.93 194.569 747.18 195.062 747.92 196.049C748.66 197.035 749.4 198.515 750.64 199.995C751.62 201.722 753.1 203.448 754.34 205.668C755.57 207.642 757.05 209.861 758.53 212.081C758.78 212.328 759.03 212.821 759.27 213.068C757.79 211.588 756.31 210.108 754.58 208.875C753.84 207.888 753.1 206.902 752.36 205.668C751.62 204.682 750.88 203.695 750.14 202.708C749.89 202.462 749.65 202.215 749.65 201.968C749.65 201.968 749.65 201.722 749.4 201.722C748.91 200.982 748.17 200.242 747.67 199.749C746.93 198.762 745.95 197.775 745.21 196.789C744.46 195.802 743.48 194.815 742.74 194.075C741.01 192.349 739.53 190.622 738.05 189.389C735.09 186.676 733.11 185.196 733.11 185.196C733.11 185.196 734.35 187.662 736.32 190.869C737.31 192.595 738.79 194.322 740.02 196.295C740.76 197.035 741.26 198.022 742 198.762C742 198.762 742 198.762 742 199.009C741.26 198.515 740.52 198.022 739.78 197.529C738.79 196.789 737.8 196.295 736.81 195.555C735.83 195.062 734.84 194.569 734.1 194.075C732.37 193.089 730.89 192.349 729.66 191.609C727.19 190.376 725.71 189.636 725.71 189.636C725.71 189.636 726.94 190.622 729.41 192.102C730.64 192.842 731.88 193.829 733.36 195.062C734.35 195.802 735.58 196.789 736.81 197.775C735.58 197.282 734.35 196.789 733.11 196.542C730.15 195.802 728.18 195.555 728.18 195.555C728.18 195.555 729.9 196.789 732.12 198.515C734.59 200.242 737.8 202.215 741.26 204.188C744.22 205.915 747.18 207.642 749.65 208.875C749.89 209.121 750.39 209.368 750.64 209.615C751.38 210.355 752.36 211.341 753.1 212.081C752.61 211.588 751.87 211.341 751.13 210.848C750.14 210.355 749.15 209.615 748.17 209.122C747.18 208.628 746.19 207.888 745.21 207.395C744.22 206.902 743.23 206.408 742.24 205.915C740.27 204.928 738.54 204.188 737.06 203.448C733.85 201.968 731.63 201.475 731.63 201.475C731.63 201.475 733.11 203.202 735.83 205.422C737.06 206.408 738.79 207.642 740.52 208.875C741.5 209.368 742.24 210.108 743.23 210.601C744.22 211.095 745.21 211.835 746.19 212.328C746.44 212.575 746.69 212.575 747.18 212.821C746.93 212.821 746.93 212.575 746.69 212.575C742.98 211.095 740.27 210.601 740.27 210.601C740.27 210.601 740.76 211.095 741.75 211.835C742.74 212.575 743.97 213.561 745.7 214.548C747.18 215.781 749.15 217.015 751.13 218.248C753.1 219.728 755.32 221.208 757.3 222.688C759.52 224.168 761.49 225.648 763.47 227.127C765.44 228.607 767.42 229.841 768.9 231.074C769.64 231.567 770.38 232.061 771.12 232.554C772.11 233.787 773.09 235.021 774.08 236.254C773.09 235.267 771.86 234.281 770.63 233.047C769.64 232.307 768.65 231.321 767.66 230.581C766.68 229.841 765.69 228.854 764.46 228.114C763.47 227.374 762.23 226.634 761.25 225.894C760.26 225.154 759.03 224.414 758.04 223.674C756.06 222.194 754.09 220.961 752.36 219.974C748.91 218.001 746.44 216.768 746.44 216.768C746.44 216.768 748.17 218.988 751.13 221.701C752.61 223.181 754.34 224.661 756.06 226.141C757.05 226.881 758.04 227.867 759.03 228.607C760.01 229.347 761 230.334 762.23 231.074C763.22 231.814 764.46 232.554 765.44 233.294C764.21 232.554 762.73 232.061 761.74 231.567C760.26 231.074 758.78 230.581 757.79 230.334C756.81 230.087 756.31 230.087 756.31 230.087C756.31 230.087 756.81 230.581 757.55 231.074C758.29 231.567 759.52 232.554 760.75 233.541C761.99 234.527 763.72 235.76 765.2 236.994C766.92 238.227 768.65 239.46 770.13 240.94C771.61 241.927 772.85 243.16 774.08 244.147C772.35 243.16 770.87 242.914 770.87 242.914C770.87 242.914 770.87 242.914 771.12 243.16C768.65 241.68 766.92 241.187 766.92 241.187C766.92 241.187 767.42 242.174 768.65 243.407C768.16 243.16 767.42 242.914 766.92 242.42C765.44 241.68 763.96 240.94 762.23 240.2C760.51 239.46 758.53 238.72 756.31 238.227C754.09 237.487 751.87 236.994 749.65 236.5C747.18 236.007 744.71 235.514 742.24 235.267C739.78 235.021 737.06 234.774 734.59 234.774C732.12 234.774 729.41 234.774 726.94 235.021C724.47 235.021 722.01 235.514 719.54 235.76C717.07 236.254 714.85 236.5 712.63 237.24C710.41 237.734 708.432 238.474 706.704 238.967C705.717 239.214 704.976 239.46 703.989 239.954C703.249 240.2 702.508 240.694 701.768 240.94C700.287 241.434 699.053 242.174 698.066 242.667C696.092 243.654 694.857 244.394 694.857 244.394C694.857 244.394 696.091 244.147 698.313 243.407C699.3 243.16 700.781 242.667 702.262 242.42C703.742 241.927 705.47 241.68 707.198 241.187H707.444C706.457 241.68 705.47 241.927 704.73 242.42C701.274 240.94 698.313 242.914 696.092 244.887ZM869.84 274.486C869.59 274.239 869.1 273.992 868.85 273.499C868.85 273.499 868.85 273.252 868.85 273.006C869.1 273.746 869.59 274.239 869.84 274.486ZM866.39 270.539C867.13 271.526 867.62 272.266 868.11 273.006C868.11 273.006 868.11 273.006 868.11 273.252C867.62 272.759 867.13 272.512 866.88 272.019C866.63 271.526 866.39 271.032 866.14 270.293C866.14 270.539 866.14 270.539 866.39 270.539ZM837.02 273.746C836.77 273.499 836.52 273.252 836.28 273.006C836.52 273.499 836.77 273.746 837.02 273.746ZM824.18 264.373C825.17 265.359 825.91 266.346 826.9 267.333C828.62 269.059 830.11 270.786 831.59 272.266C831.83 272.512 831.83 272.512 831.83 272.512C832.08 272.759 832.08 273.006 832.33 273.252C831.83 273.252 831.09 273.252 830.6 273.252C830.6 273.252 830.6 273.252 830.6 273.006C830.11 272.019 829.37 271.279 828.62 270.293C827.88 269.553 827.14 268.566 826.65 267.826C825.91 267.086 825.17 266.346 824.43 265.606C823.69 264.866 822.7 264.126 821.96 263.633C822.7 264.126 823.44 264.126 824.18 264.373ZM826.16 231.567C826.4 231.814 826.65 231.814 826.9 232.061C826.65 232.061 826.4 232.061 826.4 232.061C825.91 232.061 825.42 232.061 825.17 232.061C825.42 231.814 825.91 231.567 826.16 231.567Z" fill="#0B1E0C"/>
<path d="M796.29 245.626L976.71 273.991" stroke="#414042" stroke-miterlimit="10" stroke-linecap="round" stroke-linejoin="round"/>
<path d="M795.06 253.519L947.34 277.445" stroke="#414042" stroke-miterlimit="10" stroke-linecap="round" stroke-linejoin="round"/>
<path d="M794.07 260.672L1050.25 300.631" stroke="#414042" stroke-miterlimit="10" stroke-linecap="round" stroke-linejoin="round"/>
<path d="M792.1 272.511L875.02 285.584" stroke="#414042" stroke-miterlimit="10" stroke-linecap="round" stroke-linejoin="round"/>
<path d="M791.11 279.665L815.79 283.612" stroke="#414042" stroke-miterlimit="10" stroke-linecap="round" stroke-linejoin="round"/>
<path d="M789.63 288.791L918.46 309.017" stroke="#414042" stroke-miterlimit="10" stroke-linecap="round" stroke-linejoin="round"/>
<path d="M381.664 560.854C368.09 582.313 339.707 588.973 318.236 575.407C296.764 561.841 290.1 533.475 303.674 512.016C316.261 491.79 342.176 484.884 362.907 495.243L389.315 481.184L377.222 506.343C390.549 521.389 392.77 543.341 381.664 560.854Z" fill="white"/>
<path d="M496.675 40.161L666.722 50.52L694.364 122.544L701.521 51.507L737.31 47.314C737.31 47.314 753.84 43.614 753.84 20.428H496.675V40.161Z" fill="#FFD9C0"/>
<path d="M734.1 40.161H326.133C315.274 40.161 306.389 31.281 306.389 20.4281V-32.3565C306.389 -43.2095 315.274 -52.0891 326.133 -52.0891H734.1C744.96 -52.0891 753.84 -43.2095 753.84 -32.3565V20.1814C753.84 31.034 744.96 40.161 734.1 40.161Z" fill="white"/>
<path d="M671.411 32.761L694.364 122.298V32.761H671.411Z" fill="white"/>
<path d="M368.038 27.908C386.761 22.492 397.547 2.93273 392.129 -15.78C386.71 -34.4926 367.139 -45.2721 348.415 -39.8566C329.691 -34.4411 318.905 -14.8814 324.324 3.83123C329.743 22.544 349.314 33.323 368.038 27.908Z" fill="#E6E7E8"/>
<path d="M342.916 15.249C342.916 15.249 342.669 -4.97688 359.946 -5.22358C377.222 -5.47028 376.481 14.7557 376.481 14.7557L342.916 15.249Z" fill="#BCBEC0"/>
<path d="M407.332 2.42163H596.383" stroke="#414042" stroke-miterlimit="10" stroke-linecap="round" stroke-linejoin="round"/>
<path d="M407.332 13.7683H552.452" stroke="#414042" stroke-miterlimit="10" stroke-linecap="round" stroke-linejoin="round"/>
</g>
<defs>
<linearGradient id="paint0_linear_1_2" x1="789.29" y1="90.812" x2="1217.25" y2="157.954" gradientUnits="userSpaceOnUse">
<stop stop-color="#B3D4C9"/>
<stop offset="1" stop-color="#D9DCCC"/>
</linearGradient>
</defs>
</svg>
