<svg width="500" height="500" viewBox="0 0 500 500" fill="none" xmlns="http://www.w3.org/2000/svg">
<g opacity="0.3">
<path d="M48.9998 182.79H38.2998C38.1672 182.79 38.04 182.737 37.9463 182.644C37.8525 182.55 37.7998 182.423 37.7998 182.29V157.56C37.7998 157.427 37.8525 157.3 37.9463 157.207C38.04 157.113 38.1672 157.06 38.2998 157.06H48.9998C49.1324 157.06 49.2596 157.113 49.3534 157.207C49.4471 157.3 49.4998 157.427 49.4998 157.56V182.29C49.4998 182.423 49.4471 182.55 49.3534 182.644C49.2596 182.737 49.1324 182.79 48.9998 182.79ZM38.8298 181.79H48.4998V158.06H38.7998L38.8298 181.79Z" fill="white"/>
<path d="M63.2598 182.79H52.5898C52.4572 182.79 52.3301 182.737 52.2363 182.644C52.1425 182.55 52.0898 182.423 52.0898 182.29V144.92C52.0898 144.787 52.1425 144.66 52.2363 144.566C52.3301 144.473 52.4572 144.42 52.5898 144.42H63.2598C63.3925 144.42 63.5196 144.473 63.6134 144.566C63.7072 144.66 63.7598 144.787 63.7598 144.92V182.29C63.7598 182.423 63.7072 182.55 63.6134 182.644C63.5196 182.737 63.3925 182.79 63.2598 182.79ZM53.0898 181.79H62.7598V145.42H53.0898V181.79Z" fill="white"/>
<path d="M77.5496 182.79H66.8696C66.737 182.79 66.6098 182.737 66.5161 182.644C66.4223 182.55 66.3696 182.423 66.3696 182.29V129C66.3696 128.867 66.4223 128.74 66.5161 128.646C66.6098 128.553 66.737 128.5 66.8696 128.5H77.5496C77.6822 128.5 77.8094 128.553 77.9032 128.646C77.997 128.74 78.0496 128.867 78.0496 129V182.31C78.0445 182.439 77.9895 182.561 77.8963 182.651C77.8031 182.74 77.6788 182.79 77.5496 182.79V182.79ZM67.3696 181.79H77.0496V129.48H67.3696V181.79Z" fill="white"/>
<path d="M91.8397 182.79H81.1597C81.0271 182.79 80.8999 182.737 80.8061 182.644C80.7123 182.55 80.6597 182.423 80.6597 182.29V118C80.6597 117.867 80.7123 117.74 80.8061 117.646C80.8999 117.553 81.0271 117.5 81.1597 117.5H91.8397C91.9723 117.5 92.0994 117.553 92.1932 117.646C92.287 117.74 92.3397 117.867 92.3397 118V182.3C92.337 182.431 92.2832 182.555 92.1897 182.647C92.0962 182.739 91.9706 182.79 91.8397 182.79V182.79ZM81.6597 181.79H91.3397V118.49H81.6597V181.79Z" fill="white"/>
</g>
<path opacity="0.3" d="M41.7197 131.77L41.1497 130.95L130.1 69.75L130.37 69.89L219.46 115.89C220.513 116.434 221.668 116.752 222.851 116.822C224.035 116.893 225.219 116.715 226.33 116.3L281.14 95.85L278.44 111.7L322 71.51L262.81 69.69L275.2 79.88L223.91 99L223.72 98.9L133.37 52.31C132.003 51.6072 130.471 51.2881 128.937 51.3867C127.404 51.4854 125.925 51.998 124.66 52.87L31.5197 117L30.9497 116.17L124.09 52C125.505 51.0253 127.159 50.4528 128.874 50.3437C130.589 50.2345 132.302 50.5927 133.83 51.38L224 97.93L273.24 79.56L259.9 68.56L324.46 70.56L277 114.38L279.91 97.38L226.68 117.2C225.44 117.662 224.117 117.859 222.796 117.78C221.475 117.701 220.186 117.347 219.01 116.74L130.17 70.92L41.7197 131.77Z" fill="white"/>
<path opacity="0.3" d="M99.88 251.37L99.54 250.43L277.06 186.08L274.12 201.89L318.24 162.39L259.08 159.7L271.34 170.07L270.53 170.37L93.84 234.41L93.5 233.47L269.38 169.72L256.2 158.56L320.73 161.5L272.6 204.59L275.75 187.62L99.88 251.37Z" fill="white"/>
<path opacity="0.3" d="M16.4298 386.24L16.0898 385.3L236.39 306.8L233.45 322.6L277.57 283.1L218.41 280.41L230.68 290.79L229.86 291.08L10.3798 369.28L10.0498 368.34L228.71 290.43L215.53 279.27L280.06 282.22L231.93 325.3L235.09 308.32L16.4298 386.24Z" fill="white"/>
</svg>
