<svg width="58" height="58" viewBox="0 0 58 58" fill="none" xmlns="http://www.w3.org/2000/svg">
<g clip-path="url(#clip0_1_127)">
<path d="M48.3336 29.0002C46.851 28.9999 45.3883 29.3412 44.0589 29.9975C42.7295 30.6538 41.5692 31.6075 40.6679 32.7847L40.4987 32.7122C41.1634 30.6532 41.263 28.4536 40.7872 26.343C40.3114 24.2324 39.2776 22.2882 37.7939 20.7136C36.3101 19.139 34.4307 17.9916 32.3521 17.3913C30.2735 16.791 28.0718 16.7599 25.977 17.3011L25.7571 16.8855C27.5125 15.3236 28.6381 13.1752 28.9229 10.8429C29.2078 8.51062 28.6323 6.15449 27.3043 4.21609C25.9764 2.2777 23.9872 0.890095 21.7094 0.313339C19.4317 -0.263418 17.0218 0.0102599 14.9313 1.08308C12.8409 2.1559 11.2135 3.95423 10.354 6.14103C9.49457 8.32784 9.46208 10.753 10.2626 12.9621C11.0632 15.1711 12.6419 17.0124 14.7028 18.1408C16.7637 19.2693 19.1654 19.6074 21.4578 19.0919L21.6342 19.423C19.2177 21.2773 17.5921 23.9772 17.0838 26.9805C16.5755 29.9839 17.222 33.0683 18.8937 35.6146L14.3383 39.8752C12.2792 38.7376 9.87599 38.3898 7.5789 38.8971C5.2818 39.4045 3.24854 40.732 1.86011 42.6311C0.471686 44.5301 -0.176599 46.8702 0.0367372 49.213C0.250073 51.5557 1.31039 53.7403 3.01899 55.3573C4.72759 56.9743 6.96721 57.9128 9.31816 57.9968C11.6691 58.0809 13.97 57.3048 15.7897 55.8139C17.6095 54.3231 18.8231 52.2198 19.2032 49.8983C19.5833 47.5768 19.1038 45.1963 17.8546 43.203L22.2964 39.0511C24.736 40.6817 27.6862 41.3675 30.5948 40.98C33.5035 40.5926 36.1713 39.1585 38.099 36.9462L38.7732 37.2338C38.4807 39.1851 38.7924 41.1793 39.6663 42.9484C40.5402 44.7174 41.9346 46.1767 43.6621 47.1301C45.3896 48.0836 47.3676 48.4855 49.3302 48.282C51.2928 48.0784 53.1462 47.2792 54.6413 45.9916C56.1364 44.7039 57.2017 42.9896 57.694 41.0789C58.1864 39.1681 58.0822 37.1525 57.3955 35.3026C56.7088 33.4528 55.4724 31.8575 53.8525 30.7308C52.2326 29.6042 50.3067 29.0003 48.3336 29.0002ZM14.5002 9.66687C14.5002 8.71093 14.7837 7.77645 15.3148 6.98162C15.8459 6.18678 16.6008 5.56728 17.4839 5.20146C18.3671 4.83563 19.3389 4.73992 20.2765 4.92641C21.2141 5.11291 22.0753 5.57324 22.7513 6.24919C23.4272 6.92514 23.8875 7.78636 24.074 8.72394C24.2605 9.66151 24.1648 10.6333 23.799 11.5165C23.4332 12.3997 22.8137 13.1545 22.0188 13.6856C21.224 14.2167 20.2895 14.5002 19.3336 14.5002C18.0517 14.5002 16.8223 13.991 15.9159 13.0846C15.0095 12.1781 14.5002 10.9488 14.5002 9.66687ZM9.66692 53.1669C8.71098 53.1669 7.7765 52.8834 6.98166 52.3523C6.18682 51.8212 5.56732 51.0664 5.2015 50.1832C4.83568 49.3 4.73996 48.3282 4.92646 47.3906C5.11295 46.453 5.57328 45.5918 6.24924 44.9159C6.92519 44.2399 7.78641 43.7796 8.72398 43.5931C9.66156 43.4066 10.6334 43.5023 11.5165 43.8681C12.3997 44.2339 13.1546 44.8534 13.6857 45.6483C14.2168 46.4431 14.5002 47.3776 14.5002 48.3335C14.5002 49.6154 13.991 50.8448 13.0846 51.7512C12.1782 52.6576 10.9488 53.1669 9.66692 53.1669ZM29.0002 36.2502C27.4311 36.2471 25.9053 35.735 24.652 34.7908C23.3987 33.8466 22.4855 32.5213 22.0497 31.0139C21.6139 29.5065 21.6789 27.8983 22.2349 26.431C22.791 24.9636 23.8082 23.7163 25.1336 22.8764L26.1172 22.352C27.1055 21.922 28.1772 21.7179 29.2544 21.7544C30.3315 21.7908 31.387 22.067 32.344 22.5627C33.3009 23.0585 34.1354 23.7614 34.7865 24.6202C35.4376 25.4791 35.889 26.4723 36.108 27.5276C36.3269 28.5829 36.3077 29.6737 36.052 30.7207C35.7962 31.7677 35.3102 32.7445 34.6294 33.58C33.9486 34.4155 33.0901 35.0887 32.1163 35.5506C31.1425 36.0125 30.078 36.2515 29.0002 36.2502ZM48.3336 43.5002C47.3776 43.5002 46.4432 43.2167 45.6483 42.6856C44.8535 42.1545 44.234 41.3997 43.8682 40.5165C43.5023 39.6333 43.4066 38.6615 43.5931 37.7239C43.7796 36.7864 44.2399 35.9251 44.9159 35.2492C45.5919 34.5732 46.4531 34.1129 47.3906 33.9264C48.3282 33.7399 49.3 33.8356 50.1832 34.2015C51.0664 34.5673 51.8213 35.1868 52.3523 35.9816C52.8834 36.7765 53.1669 37.7109 53.1669 38.6669C53.1669 39.9488 52.6577 41.1781 51.7513 42.0846C50.8448 42.991 49.6155 43.5002 48.3336 43.5002Z" fill="#FF6107"/>
</g>
<defs>
<clipPath id="clip0_1_127">
<rect width="58" height="58" fill="white"/>
</clipPath>
</defs>
</svg>
