<svg width="58" height="58" viewBox="0 0 58 58" fill="none" xmlns="http://www.w3.org/2000/svg">
<g clip-path="url(#clip0_1_118)">
<path d="M58.0003 28.959C57.9951 26.9917 57.389 25.073 56.263 23.4598C55.137 21.8466 53.5449 20.616 51.7 19.9328L51.6082 19.7129C49.2108 13.8487 44.621 9.15052 38.8144 6.61693L38.0193 6.26893C37.3348 4.42965 36.1041 2.84369 34.4925 1.72383C32.8808 0.603973 30.9652 0.00378418 29.0027 0.00378418C27.0402 0.00378418 25.1246 0.603973 23.5129 1.72383C21.9012 2.84369 20.6706 4.42965 19.9861 6.26893L18.9759 6.72327C13.2208 9.33725 8.6911 14.0642 6.32469 19.9255C4.47677 20.5988 2.87967 21.8224 1.74862 23.4313C0.617565 25.0403 0.00694067 26.9574 -0.000959952 28.9241C-0.00886058 30.8908 0.586342 32.8127 1.70443 34.4307C2.82252 36.0487 4.40974 37.2851 6.25219 37.9732L6.56152 38.6982C8.98629 44.3263 13.4395 48.8364 19.0364 51.3325L19.9861 51.7579C20.6725 53.5945 21.9036 55.1777 23.5146 56.2954C25.1256 57.4131 27.0395 58.012 29.0003 58.012C30.961 58.012 32.875 57.4131 34.4859 56.2954C36.0969 55.1777 37.328 53.5945 38.0144 51.7579L38.9014 51.3639C44.7559 48.7461 49.3587 43.9482 51.7314 37.9901C53.5701 37.2998 55.1548 36.0658 56.2747 34.4525C57.3946 32.8391 57.9965 30.9229 58.0003 28.959ZM29.0003 4.83343C29.9562 4.83343 30.8907 5.1169 31.6855 5.648C32.4804 6.17909 33.0999 6.93395 33.4657 7.81713C33.8315 8.70031 33.9272 9.67213 33.7407 10.6097C33.5542 11.5473 33.0939 12.4085 32.418 13.0845C31.742 13.7604 30.8808 14.2207 29.9432 14.4072C29.0056 14.5937 28.0338 14.498 27.1506 14.1322C26.2675 13.7664 25.5126 13.1469 24.9815 12.352C24.4504 11.5572 24.1669 10.6227 24.1669 9.66677C24.1669 8.38489 24.6762 7.15551 25.5826 6.24908C26.489 5.34266 27.7184 4.83343 29.0003 4.83343ZM9.63794 24.1305L9.83611 24.2054L9.86027 24.145C11.0713 24.2534 12.1908 24.8347 12.976 25.7629C13.7613 26.6911 14.1491 27.8914 14.0554 29.1036C13.9617 30.3158 13.3939 31.4422 12.4752 32.2386C11.5566 33.035 10.361 33.4373 9.14778 33.3582C7.93453 33.279 6.80135 32.7249 5.99391 31.8159C5.18647 30.9069 4.76983 29.7163 4.83432 28.5022C4.89882 27.2881 5.43924 26.1483 6.33844 25.33C7.23763 24.5116 8.42314 24.0807 9.63794 24.1305ZM29.0003 53.1668C28.0443 53.1668 27.1099 52.8833 26.315 52.3522C25.5202 51.8211 24.9007 51.0663 24.5349 50.1831C24.169 49.2999 24.0733 48.3281 24.2598 47.3905C24.4463 46.4529 24.9066 45.5917 25.5826 44.9158C26.2585 44.2398 27.1198 43.7795 28.0573 43.593C28.9949 43.4065 29.9667 43.5022 30.8499 43.868C31.7331 44.2338 32.488 44.8533 33.019 45.6482C33.5501 46.443 33.8336 47.3775 33.8336 48.3334C33.8336 49.6153 33.3244 50.8447 32.418 51.7511C31.5115 52.6575 30.2822 53.1668 29.0003 53.1668ZM38.4084 46.1923C37.9273 44.056 36.7336 42.147 35.0235 40.7792C33.3135 39.4114 31.1889 38.6662 28.9991 38.6662C26.8093 38.6662 24.6847 39.4114 22.9746 40.7792C21.2646 42.147 20.0708 44.056 19.5898 46.1923C16.29 44.3916 13.5791 41.6782 11.7815 38.3768C13.9111 37.8956 15.8145 36.7061 17.1803 35.0028C18.5462 33.2996 19.2937 31.1833 19.3007 29C19.3077 26.8167 18.5738 24.6957 17.2189 22.9837C15.8641 21.2716 13.9684 20.07 11.8419 19.5751C13.6462 16.3202 16.3315 13.6399 19.5898 11.8418C20.0729 13.9757 21.2671 15.8819 22.9765 17.2476C24.6859 18.6132 26.8087 19.3571 28.9966 19.3571C31.1846 19.3571 33.3074 18.6132 35.0168 17.2476C36.7262 15.8819 37.9204 13.9757 38.4035 11.8418C41.6594 13.6379 44.3462 16.3113 46.1586 19.5582C44.0256 20.0454 42.1217 21.2433 40.7593 22.9553C39.3969 24.6673 38.6571 26.7916 38.6613 28.9795C38.6656 31.1675 39.4135 33.2889 40.7825 34.9957C42.1514 36.7024 44.06 37.893 46.1949 38.3719C44.3915 41.6629 41.6914 44.3746 38.4084 46.1923ZM48.3336 33.7924C47.3777 33.7924 46.4432 33.5089 45.6484 32.9778C44.8535 32.4467 44.234 31.6918 43.8682 30.8087C43.5024 29.9255 43.4067 28.9537 43.5931 28.0161C43.7796 27.0785 44.24 26.2173 44.9159 25.5413C45.5919 24.8654 46.4531 24.4051 47.3907 24.2186C48.3282 24.0321 49.3001 24.1278 50.1832 24.4936C51.0664 24.8594 51.8213 25.4789 52.3524 26.2738C52.8835 27.0686 53.1669 28.0031 53.1669 28.959C53.1669 30.2409 52.6577 31.4703 51.7513 32.3767C50.8449 33.2831 49.6155 33.7924 48.3336 33.7924Z" fill="#FF6107"/>
</g>
<defs>
<clipPath id="clip0_1_118">
<rect width="58" height="58" fill="white"/>
</clipPath>
</defs>
</svg>
