<svg width="37" height="37" viewBox="0 0 37 37" fill="none" xmlns="http://www.w3.org/2000/svg">
<path fill-rule="evenodd" clip-rule="evenodd" d="M11.5085 1.6435C13.3169 1.56025 13.8935 1.54175 18.5 1.54175C23.1065 1.54175 23.6831 1.56179 25.4899 1.6435C27.2968 1.72521 28.5301 2.0135 29.6093 2.43129C30.7393 2.85833 31.7645 3.52587 32.6124 4.38921C33.4757 5.23558 34.1418 6.25925 34.5673 7.39083C34.9866 8.47 35.2733 9.70333 35.3566 11.5071C35.4398 13.3185 35.4583 13.8951 35.4583 18.5001C35.4583 23.1066 35.4383 23.6832 35.3566 25.4915C35.2749 27.2953 34.9866 28.5286 34.5673 29.6078C34.1417 30.7395 33.4746 31.7649 32.6124 32.6125C31.7645 33.4758 30.7393 34.1418 29.6093 34.5673C28.5301 34.9867 27.2968 35.2734 25.493 35.3567C23.6831 35.4399 23.1065 35.4584 18.5 35.4584C13.8935 35.4584 13.3169 35.4384 11.5085 35.3567C9.7048 35.275 8.47146 34.9867 7.3923 34.5673C6.26059 34.1418 5.23523 33.4747 4.38759 32.6125C3.52484 31.7656 2.8572 30.7407 2.43121 29.6093C2.01342 28.5302 1.72667 27.2968 1.64342 25.4931C1.56017 23.6816 1.54167 23.105 1.54167 18.5001C1.54167 13.8936 1.56171 13.317 1.64342 11.5102C1.72513 9.70333 2.01342 8.47 2.43121 7.39083C2.85783 6.25937 3.52598 5.23452 4.38913 4.38766C5.23557 3.5251 6.2599 2.85747 7.39075 2.43129C8.46992 2.0135 9.70325 1.72675 11.507 1.6435H11.5085ZM25.3527 4.696C23.5644 4.61429 23.0279 4.59733 18.5 4.59733C13.9721 4.59733 13.4356 4.61429 11.6473 4.696C9.99309 4.77154 9.09584 5.0475 8.49767 5.28029C7.7068 5.58862 7.14101 5.954 6.54746 6.54754C5.98482 7.09491 5.55182 7.76127 5.28021 8.49775C5.04742 9.09591 4.77146 9.99316 4.69592 11.6474C4.61421 13.4357 4.59725 13.9722 4.59725 18.5001C4.59725 23.028 4.61421 23.5645 4.69592 25.3528C4.77146 27.007 5.04742 27.9042 5.28021 28.5024C5.55155 29.2378 5.98476 29.9053 6.54746 30.4526C7.09475 31.0153 7.7623 31.4485 8.49767 31.7199C9.09584 31.9527 9.99309 32.2286 11.6473 32.3042C13.4356 32.3859 13.9706 32.4028 18.5 32.4028C23.0294 32.4028 23.5644 32.3859 25.3527 32.3042C27.0069 32.2286 27.9042 31.9527 28.5023 31.7199C29.2932 31.4115 29.859 31.0462 30.4525 30.4526C31.0153 29.9053 31.4485 29.2378 31.7198 28.5024C31.9526 27.9042 32.2285 27.007 32.3041 25.3528C32.3858 23.5645 32.4028 23.028 32.4028 18.5001C32.4028 13.9722 32.3858 13.4357 32.3041 11.6474C32.2285 9.99316 31.9526 9.09591 31.7198 8.49775C31.4115 7.70687 31.0461 7.14108 30.4525 6.54754C29.9051 5.98494 29.2388 5.55195 28.5023 5.28029C27.9042 5.0475 27.0069 4.77154 25.3527 4.696ZM16.334 23.7279C17.5436 24.2314 18.8906 24.2994 20.1449 23.9201C21.3991 23.5409 22.4827 22.738 23.2107 21.6485C23.9387 20.5591 24.2659 19.2507 24.1364 17.9468C24.0069 16.6429 23.4287 15.4244 22.5006 14.4995C21.909 13.9082 21.1936 13.4555 20.406 13.1738C19.6184 12.8922 18.7782 12.7888 17.9458 12.8709C17.1134 12.953 16.3095 13.2186 15.5921 13.6487C14.8747 14.0787 14.2616 14.6625 13.7968 15.3579C13.3321 16.0534 13.0274 16.8432 12.9045 17.6706C12.7817 18.498 12.8439 19.3423 13.0865 20.1427C13.3291 20.9432 13.7462 21.6799 14.3078 22.2999C14.8693 22.9198 15.5613 23.4075 16.334 23.7279ZM12.3364 12.3365C13.1458 11.5271 14.1067 10.885 15.1643 10.447C16.2218 10.0089 17.3553 9.78346 18.5 9.78346C19.6447 9.78346 20.7782 10.0089 21.8357 10.447C22.8933 10.885 23.8542 11.5271 24.6636 12.3365C25.473 13.1459 26.1151 14.1068 26.5531 15.1644C26.9912 16.2219 27.2166 17.3554 27.2166 18.5001C27.2166 19.6448 26.9912 20.7782 26.5531 21.8358C26.1151 22.8933 25.473 23.8542 24.6636 24.6637C23.0289 26.2983 20.8118 27.2167 18.5 27.2167C16.1882 27.2167 13.9711 26.2983 12.3364 24.6637C10.7017 23.029 9.78338 20.8119 9.78338 18.5001C9.78338 16.1883 10.7017 13.9712 12.3364 12.3365ZM29.1498 11.0816C29.3504 10.8924 29.511 10.6648 29.6221 10.4125C29.7331 10.1601 29.7924 9.88797 29.7964 9.61226C29.8005 9.33655 29.7491 9.06284 29.6455 8.80733C29.5418 8.55182 29.3879 8.3197 29.1929 8.12472C28.998 7.92975 28.7659 7.77587 28.5103 7.67221C28.2548 7.56855 27.9811 7.51721 27.7054 7.52123C27.4297 7.52525 27.1576 7.58455 26.9052 7.69561C26.6528 7.80668 26.4253 7.96725 26.2361 8.16783C25.8681 8.55792 25.6666 9.07606 25.6745 9.61226C25.6823 10.1485 25.8988 10.6605 26.278 11.0397C26.6571 11.4189 27.1692 11.6354 27.7054 11.6432C28.2416 11.651 28.7598 11.4496 29.1498 11.0816Z" fill="black"/>
</svg>
