<svg width="228" height="62" viewBox="0 0 228 62" fill="none" xmlns="http://www.w3.org/2000/svg">
<path fill-rule="evenodd" clip-rule="evenodd" d="M28.8167 53.4977C18.8519 52.7102 10.667 45.5506 8.36648 36.0771H12.1079C14.2994 43.5275 20.8497 49.1244 28.8167 49.8755V36.0771H32.437V42.5704C36.372 41.989 39.6775 39.4934 41.4089 36.0771H45.344C43.3462 41.5165 38.394 45.5385 32.4491 46.2169V49.8634V53.4977V57.1806H28.8167V53.4977ZM57.1492 28.8325V32.4548H53.4684C52.6813 42.4371 45.5135 50.6266 36.0451 52.9162V49.1728C43.4915 46.9922 49.0853 40.4262 49.836 32.4548H36.0572V28.8325H42.5471C41.9659 24.9074 39.4717 21.6123 36.0572 19.8799V15.9306C41.4937 17.9537 45.5256 22.8843 46.1915 28.8325H49.836H53.4684H57.1492ZM28.8167 4.11893H32.437V7.80173C42.4138 8.5771 50.5988 15.7489 52.8872 25.2103H49.1458C46.9664 17.7599 40.404 12.1751 32.437 11.4361V25.2103H28.8167V18.7169C24.8938 19.3227 21.6004 21.794 19.869 25.2103H15.9218C17.9438 19.7709 22.8717 15.7489 28.8167 15.0705V11.4361V7.80173V4.11893ZM4.11664 32.4548V28.8325H7.79742C8.5602 18.8623 15.7402 10.6729 25.2085 8.3711V12.1145C17.738 14.3073 12.1683 20.8612 11.4177 28.8325H25.2085V32.4548H18.7066C19.312 36.392 21.782 39.6993 25.2085 41.4317V45.3689C19.7601 43.37 15.7402 38.4151 15.0501 32.4669H11.4177H7.78532H4.11664V32.4548Z" fill="#13110C"/>
<path fill-rule="evenodd" clip-rule="evenodd" d="M58.2146 33.6784C59.8855 33.6784 61.2416 32.3215 61.2416 30.6497C61.2416 28.9779 59.8855 27.5969 58.2146 27.5969C56.5437 27.5969 55.1635 28.9658 55.1635 30.6497C55.1756 32.3215 56.5437 33.6784 58.2146 33.6784Z" fill="#13110C"/>
<path fill-rule="evenodd" clip-rule="evenodd" d="M58.2145 31.8976C58.9047 31.8976 59.4617 31.3403 59.4617 30.6497C59.4617 29.9592 58.9047 29.3899 58.2145 29.3899C57.5244 29.3899 56.9554 29.9592 56.9554 30.6497C56.9554 31.3403 57.5365 31.8976 58.2145 31.8976Z" fill="#FF6107"/>
<path fill-rule="evenodd" clip-rule="evenodd" d="M33.6599 58.2466C33.6599 56.5748 32.3038 55.1937 30.6329 55.1937C28.9499 55.1937 27.5817 56.5627 27.5817 58.2466C27.5817 59.9184 28.9378 61.2752 30.6329 61.2752C32.3038 61.2873 33.6599 59.9306 33.6599 58.2466Z" fill="#13110C"/>
<path fill-rule="evenodd" clip-rule="evenodd" d="M31.8801 58.2466C31.8801 57.5561 31.3231 56.9867 30.633 56.9867C29.9307 56.9867 29.3738 57.5561 29.3738 58.2466C29.3738 58.9372 29.9307 59.4944 30.633 59.4944C31.3231 59.4944 31.8801 58.9372 31.8801 58.2466Z" fill="#FF6107"/>
<path fill-rule="evenodd" clip-rule="evenodd" d="M3.05119 33.6784C4.72208 33.6784 6.07815 32.3215 6.07815 30.6497C6.07815 28.9658 4.72208 27.5969 3.05119 27.5969C1.35609 27.5969 0 28.9658 0 30.6497C0 32.3215 1.35609 33.6784 3.05119 33.6784Z" fill="#13110C"/>
<path fill-rule="evenodd" clip-rule="evenodd" d="M3.05121 31.8976C3.74136 31.8976 4.29832 31.3403 4.29832 30.6497C4.29832 29.9471 3.74136 29.3899 3.05121 29.3899C2.34895 29.3899 1.79199 29.9471 1.79199 30.6497C1.79199 31.3403 2.34895 31.8976 3.05121 31.8976Z" fill="#FF6107"/>
<path fill-rule="evenodd" clip-rule="evenodd" d="M27.5817 3.05286C27.5817 4.72467 28.9378 6.08149 30.6329 6.08149C32.3038 6.08149 33.6599 4.72467 33.6599 3.05286C33.6599 1.35683 32.3038 0 30.6329 0C28.9499 0 27.5817 1.35683 27.5817 3.05286Z" fill="#13110C"/>
<path fill-rule="evenodd" clip-rule="evenodd" d="M29.3738 3.05285C29.3738 3.74338 29.9307 4.30064 30.633 4.30064C31.3231 4.30064 31.8801 3.74338 31.8801 3.05285C31.8801 2.3502 31.3231 1.79294 30.633 1.79294C29.9307 1.79294 29.3738 2.3502 29.3738 3.05285Z" fill="#FF6107"/>
<path fill-rule="evenodd" clip-rule="evenodd" d="M36.0573 53.7279C37.5344 53.7279 38.7452 52.5286 38.7452 51.0384C38.7452 49.5605 37.5344 48.3612 36.0573 48.3612C34.5801 48.3612 33.3814 49.5605 33.3814 51.0384C33.3814 52.5286 34.5801 53.7279 36.0573 53.7279Z" fill="#13110C"/>
<path fill-rule="evenodd" clip-rule="evenodd" d="M36.0572 52.1167C36.6384 52.1167 37.1349 51.6442 37.1349 51.0384C37.1349 50.457 36.6505 49.9603 36.0572 49.9603C35.4639 49.9603 34.9796 50.4449 34.9796 51.0384C34.9796 51.6442 35.4639 52.1167 36.0572 52.1167Z" fill="#FF6107"/>
<path fill-rule="evenodd" clip-rule="evenodd" d="M37.8008 33.6784C39.4717 33.6784 40.8277 32.3215 40.8277 30.6497C40.8277 28.9779 39.4717 27.5969 37.8008 27.5969C36.1299 27.5969 34.7496 28.9658 34.7496 30.6497C34.7496 32.3215 36.1299 33.6784 37.8008 33.6784Z" fill="#13110C"/>
<path fill-rule="evenodd" clip-rule="evenodd" d="M37.8008 31.8976C38.491 31.8976 39.0479 31.3403 39.0479 30.6497C39.0479 29.9592 38.491 29.3899 37.8008 29.3899C37.1107 29.3899 36.5416 29.9592 36.5416 30.6497C36.5416 31.3403 37.1107 31.8976 37.8008 31.8976Z" fill="#FF6107"/>
<path fill-rule="evenodd" clip-rule="evenodd" d="M33.6599 23.478C33.6599 21.7941 32.3038 20.4251 30.6329 20.4251C28.9499 20.4251 27.5817 21.7819 27.5817 23.478C27.5817 25.1498 28.9378 26.5065 30.6329 26.5065C32.3038 26.5187 33.6599 25.1498 33.6599 23.478Z" fill="#13110C"/>
<path fill-rule="evenodd" clip-rule="evenodd" d="M31.8801 23.478C31.8801 22.7753 31.3231 22.218 30.633 22.218C29.9307 22.218 29.3738 22.7753 29.3738 23.478C29.3738 24.1685 29.9307 24.7257 30.633 24.7257C31.3231 24.7257 31.8801 24.1685 31.8801 23.478Z" fill="#FF6107"/>
<path fill-rule="evenodd" clip-rule="evenodd" d="M23.4651 27.5969C21.782 27.5969 20.4139 28.9537 20.4139 30.6497C20.4139 32.3215 21.7699 33.6784 23.4651 33.6784C25.136 33.6784 26.492 32.3215 26.492 30.6497C26.5041 28.9658 25.136 27.5969 23.4651 27.5969Z" fill="#13110C"/>
<path fill-rule="evenodd" clip-rule="evenodd" d="M23.4651 29.3899C22.7628 29.3899 22.2058 29.9471 22.2058 30.6497C22.2058 31.3403 22.7628 31.8976 23.4651 31.8976C24.1552 31.8976 24.7122 31.3403 24.7122 30.6497C24.7122 29.9471 24.1552 29.3899 23.4651 29.3899Z" fill="#FF6107"/>
<path fill-rule="evenodd" clip-rule="evenodd" d="M27.5817 37.8216C27.5817 39.4934 28.9378 40.8501 30.6329 40.8501C32.3038 40.8501 33.6599 39.4934 33.6599 37.8216C33.6599 36.1377 32.3038 34.7687 30.6329 34.7687C28.9499 34.7687 27.5817 36.1255 27.5817 37.8216Z" fill="#13110C"/>
<path fill-rule="evenodd" clip-rule="evenodd" d="M29.3738 37.8216C29.3738 38.5121 29.9307 39.0693 30.633 39.0693C31.3231 39.0693 31.8801 38.5121 31.8801 37.8216C31.8801 37.1189 31.3231 36.5616 30.633 36.5616C29.9307 36.5616 29.3738 37.1189 29.3738 37.8216Z" fill="#FF6107"/>
<path d="M82.3192 41.7837C82.2065 41.8288 81.9811 41.9416 81.6429 42.122C81.3048 42.3025 80.8765 42.4716 80.358 42.6295C79.8395 42.7649 79.2647 42.8325 78.6335 42.8325C78.0248 42.8325 77.45 42.7197 76.9089 42.4942C76.3904 42.2461 75.9734 41.8852 75.6578 41.4115C75.3422 40.9379 75.1844 40.3627 75.1844 39.6861V26.4235H72.7159V25.0364H75.1844V19.0141H76.8751V25.0364H80.9667V26.4235H76.8751V39.2801C76.9202 39.9342 77.1569 40.4304 77.5852 40.7687C78.0135 41.0845 78.5095 41.2424 79.0731 41.2424C79.7719 41.2424 80.3805 41.1296 80.899 40.904C81.4175 40.6559 81.7218 40.498 81.812 40.4304L82.3192 41.7837ZM91.4341 42.9679C90.1942 42.9679 89.0445 42.731 87.985 42.2574C86.9255 41.7611 86.0012 41.0958 85.2122 40.2612C84.4458 39.4041 83.8371 38.423 83.3863 37.3177C82.9579 36.19 82.7438 35.0058 82.7438 33.7653C82.7438 32.0962 83.1158 30.585 83.8597 29.2317C84.6036 27.8783 85.6293 26.7957 86.9368 25.9837C88.2443 25.1492 89.7097 24.7319 91.3326 24.7319C93.0008 24.7319 94.4774 25.1492 95.7623 25.9837C97.0473 26.8183 98.0617 27.9235 98.8056 29.2993C99.5721 30.6527 99.9553 32.1413 99.9553 33.7653C99.9553 33.9006 99.9553 34.0359 99.9553 34.1713C99.9553 34.3066 99.9441 34.4194 99.9215 34.5096H84.5021C84.5923 35.8404 84.9643 37.0471 85.618 38.1297C86.2718 39.2124 87.1058 40.0695 88.1203 40.701C89.1573 41.31 90.2844 41.6145 91.5017 41.6145C92.719 41.6145 93.8687 41.2988 94.9508 40.6672C96.0329 40.0357 96.788 39.2237 97.2164 38.2312L98.7042 38.6372C98.3661 39.4718 97.825 40.2161 97.0811 40.8702C96.3597 41.5243 95.5031 42.0431 94.5112 42.4265C93.5419 42.7874 92.5162 42.9679 91.4341 42.9679ZM84.4345 33.1901H98.3322C98.2421 31.8143 97.8814 30.5963 97.2502 29.5362C96.619 28.4761 95.7849 27.6415 94.7479 27.0325C93.7335 26.4235 92.6063 26.119 91.3665 26.119C90.1266 26.119 88.9995 26.4235 87.985 27.0325C86.9706 27.6415 86.1478 28.4761 85.5166 29.5362C84.8854 30.5963 84.5247 31.8143 84.4345 33.1901ZM110.133 42.9679C108.916 42.9679 107.778 42.731 106.718 42.2574C105.659 41.7611 104.734 41.0958 103.945 40.2612C103.156 39.4041 102.536 38.423 102.086 37.3177C101.657 36.2125 101.443 35.0284 101.443 33.7653C101.443 32.0736 101.815 30.5512 102.559 29.1978C103.303 27.8445 104.329 26.7619 105.636 25.9499C106.944 25.1379 108.431 24.7319 110.1 24.7319C111.7 24.7319 113.109 25.104 114.326 25.8484C115.544 26.5701 116.457 27.5626 117.065 28.8257L115.409 29.367C114.89 28.3971 114.146 27.6415 113.177 27.1002C112.23 26.5363 111.182 26.2544 110.032 26.2544C108.747 26.2544 107.586 26.5814 106.549 27.2355C105.512 27.8896 104.678 28.7918 104.047 29.9422C103.438 31.0699 103.134 32.3443 103.134 33.7653C103.134 35.1637 103.449 36.4494 104.081 37.6222C104.712 38.7951 105.546 39.7312 106.583 40.4304C107.642 41.107 108.803 41.4454 110.066 41.4454C110.877 41.4454 111.666 41.2988 112.433 41.0055C113.222 40.6898 113.898 40.2838 114.462 39.7876C115.048 39.2913 115.431 38.7613 115.611 38.1974L117.268 38.6711C116.975 39.5056 116.468 40.2499 115.747 40.904C115.025 41.5356 114.18 42.0431 113.211 42.4265C112.264 42.7874 111.238 42.9679 110.133 42.9679ZM134.443 42.6295H132.752V32.818C132.752 30.6527 132.38 29.0287 131.636 27.946C130.893 26.8408 129.81 26.2882 128.39 26.2882C127.466 26.2882 126.542 26.525 125.617 26.9987C124.693 27.4724 123.893 28.1265 123.217 28.961C122.54 29.773 122.056 30.6978 121.763 31.7353V42.6295H120.072V17.9315H121.763V29.2317C122.484 27.8558 123.487 26.7619 124.772 25.9499C126.057 25.1379 127.421 24.7319 128.864 24.7319C129.856 24.7319 130.701 24.9123 131.4 25.2732C132.099 25.6341 132.673 26.1529 133.124 26.8295C133.575 27.5062 133.902 28.3182 134.105 29.2655C134.33 30.2128 134.443 31.2955 134.443 32.5135V42.6295ZM147.975 41.716C147.659 41.8739 147.265 42.0431 146.791 42.2235C146.318 42.404 145.777 42.5619 145.168 42.6972C144.582 42.8325 143.973 42.9002 143.342 42.9002C142.576 42.9002 141.866 42.7649 141.212 42.4942C140.558 42.2235 140.028 41.795 139.623 41.2085C139.239 40.5995 139.048 39.8214 139.048 38.8741V27.8107H136.715V24.9349H139.048V19.1156H142.767V24.9349H146.622V27.8107H142.767V37.6899C142.812 38.2989 143.004 38.75 143.342 39.0432C143.703 39.3364 144.142 39.4831 144.661 39.4831C145.179 39.4831 145.675 39.3928 146.149 39.2124C146.622 39.0319 146.972 38.8853 147.197 38.7726L147.975 41.716ZM148.252 37.4531C148.252 36.3253 148.568 35.3442 149.199 34.5096C149.853 33.6525 150.743 32.9984 151.87 32.5473C152.997 32.0736 154.305 31.8368 155.793 31.8368C156.582 31.8368 157.382 31.8932 158.194 32.006C159.028 32.1187 159.76 32.2992 160.391 32.5473V31.4308C160.391 30.1903 160.019 29.2204 159.276 28.5212C158.532 27.822 157.461 27.4724 156.063 27.4724C155.071 27.4724 154.136 27.6528 153.257 28.0137C152.377 28.352 151.442 28.837 150.45 29.4685L149.199 26.9649C150.371 26.1754 151.543 25.589 152.716 25.2055C153.91 24.8221 155.161 24.6304 156.469 24.6304C158.836 24.6304 160.696 25.2619 162.048 26.525C163.423 27.7656 164.111 29.5362 164.111 31.8368V38.4342C164.111 38.8628 164.179 39.1673 164.314 39.3477C164.472 39.5282 164.731 39.6297 165.092 39.6522V42.6295C164.754 42.6972 164.449 42.7423 164.179 42.7649C163.908 42.7874 163.683 42.7987 163.502 42.7987C162.713 42.7987 162.116 42.607 161.71 42.2235C161.304 41.8401 161.068 41.389 161 40.8702L160.899 39.8552C160.132 40.8477 159.152 41.6145 157.957 42.1559C156.762 42.6972 155.556 42.9679 154.339 42.9679C153.166 42.9679 152.118 42.731 151.194 42.2574C150.27 41.7611 149.548 41.0958 149.03 40.2612C148.511 39.4267 148.252 38.4906 148.252 37.4531ZM159.512 38.5357C159.783 38.2425 159.997 37.9493 160.155 37.6561C160.313 37.3629 160.391 37.1035 160.391 36.8779V34.8479C159.76 34.5998 159.095 34.4194 158.396 34.3066C157.698 34.1713 157.01 34.1036 156.334 34.1036C154.981 34.1036 153.877 34.3743 153.02 34.9156C152.186 35.4569 151.769 36.2013 151.769 37.1486C151.769 37.6674 151.904 38.1636 152.175 38.6372C152.468 39.1109 152.873 39.4943 153.392 39.7876C153.933 40.0808 154.598 40.2274 155.387 40.2274C156.198 40.2274 156.976 40.0695 157.72 39.7537C158.464 39.4379 159.061 39.0319 159.512 38.5357ZM177.55 28.149C176.108 28.1716 174.823 28.4986 173.696 29.1302C172.591 29.7617 171.802 30.6527 171.329 31.803V42.6295H167.609V24.9349H171.058V28.8933C171.667 27.6754 172.467 26.7055 173.459 25.9837C174.451 25.2394 175.499 24.8334 176.604 24.7657C176.829 24.7657 177.009 24.7657 177.145 24.7657C177.302 24.7657 177.438 24.777 177.55 24.7995V28.149ZM185.978 42.7987C184.783 42.7987 183.69 42.5619 182.698 42.0882C181.706 41.592 180.849 40.9266 180.128 40.092C179.429 39.2575 178.877 38.2989 178.471 37.2162C178.088 36.1336 177.896 34.9945 177.896 33.7991C177.896 32.536 178.099 31.3519 178.505 30.2467C178.91 29.1414 179.474 28.1716 180.195 27.337C180.939 26.4799 181.807 25.8145 182.799 25.3409C183.791 24.8672 184.896 24.6304 186.113 24.6304C187.533 24.6304 188.773 24.9687 189.833 25.6454C190.915 26.322 191.805 27.2017 192.504 28.2843V24.9349H195.784V42.122C195.784 43.8362 195.367 45.291 194.533 46.4865C193.721 47.6819 192.605 48.5954 191.185 49.227C189.765 49.8585 188.164 50.1743 186.383 50.1743C184.422 50.1743 182.799 49.8359 181.514 49.1593C180.229 48.4826 179.136 47.5579 178.234 46.385L180.331 44.4227C181.007 45.37 181.875 46.0918 182.934 46.588C184.016 47.0842 185.166 47.3323 186.383 47.3323C187.398 47.3323 188.333 47.1406 189.19 46.7571C190.069 46.3963 190.768 45.8211 191.287 45.0317C191.805 44.2648 192.064 43.2949 192.064 42.122V39.4154C191.433 40.4755 190.565 41.31 189.461 41.919C188.356 42.5055 187.195 42.7987 185.978 42.7987ZM187.195 39.7876C187.759 39.7876 188.3 39.6973 188.818 39.5169C189.337 39.3139 189.81 39.0545 190.238 38.7387C190.689 38.4004 191.072 38.0282 191.388 37.6222C191.704 37.1937 191.929 36.7426 192.064 36.2689V31.6338C191.771 30.8669 191.354 30.2015 190.813 29.6377C190.272 29.0512 189.663 28.6001 188.987 28.2843C188.311 27.9686 187.623 27.8107 186.924 27.8107C186.113 27.8107 185.38 27.9911 184.727 28.352C184.095 28.6903 183.554 29.1527 183.103 29.7392C182.653 30.303 182.303 30.9459 182.055 31.6676C181.807 32.3894 181.683 33.1337 181.683 33.9006C181.683 34.7126 181.819 35.4682 182.089 36.1674C182.382 36.8666 182.777 37.4982 183.273 38.0621C183.768 38.6034 184.355 39.0319 185.031 39.3477C185.707 39.6409 186.429 39.7876 187.195 39.7876ZM207.243 42.9679C205.868 42.9679 204.617 42.731 203.49 42.2574C202.385 41.7611 201.427 41.0958 200.616 40.2612C199.804 39.4041 199.173 38.4342 198.722 37.3516C198.294 36.2464 198.079 35.0735 198.079 33.833C198.079 32.1639 198.463 30.6414 199.229 29.2655C199.996 27.8671 201.066 26.7506 202.442 25.916C203.817 25.0589 205.428 24.6304 207.277 24.6304C209.126 24.6304 210.715 25.0589 212.045 25.916C213.397 26.7506 214.446 27.8558 215.19 29.2317C215.933 30.6075 216.305 32.0849 216.305 33.6638C216.305 33.9345 216.294 34.1938 216.272 34.4419C216.249 34.6675 216.227 34.8592 216.204 35.0171H202.036C202.103 36.0546 202.385 36.9681 202.881 37.7576C203.4 38.5245 204.053 39.1334 204.842 39.5846C205.631 40.0131 206.477 40.2274 207.378 40.2274C208.37 40.2274 209.306 39.9793 210.185 39.4831C211.087 38.9868 211.695 38.3327 212.011 37.5207L215.19 38.4342C214.806 39.2913 214.22 40.0695 213.431 40.7687C212.665 41.4454 211.752 41.9867 210.692 42.3927C209.633 42.7761 208.483 42.9679 207.243 42.9679ZM201.934 32.5473H212.62C212.552 31.5323 212.259 30.6414 211.741 29.8745C211.245 29.0851 210.602 28.4761 209.813 28.0475C209.047 27.5964 208.19 27.3709 207.243 27.3709C206.319 27.3709 205.462 27.5964 204.673 28.0475C203.907 28.4761 203.276 29.0851 202.78 29.8745C202.284 30.6414 202.002 31.5323 201.934 32.5473ZM228 41.716C227.684 41.8739 227.29 42.0431 226.816 42.2235C226.343 42.404 225.802 42.5619 225.193 42.6972C224.607 42.8325 223.999 42.9002 223.367 42.9002C222.601 42.9002 221.891 42.7649 221.237 42.4942C220.583 42.2235 220.054 41.795 219.648 41.2085C219.265 40.5995 219.073 39.8214 219.073 38.8741V27.8107H216.74V24.9349H219.073V19.1156H222.793V24.9349H226.647V27.8107H222.793V37.6899C222.838 38.2989 223.029 38.75 223.367 39.0432C223.728 39.3364 224.168 39.4831 224.686 39.4831C225.205 39.4831 225.701 39.3928 226.174 39.2124C226.647 39.0319 226.997 38.8853 227.222 38.7726L228 41.716Z" fill="#13110C"/>
</svg>
