<svg width="228" height="62" viewBox="0 0 228 62" fill="none" xmlns="http://www.w3.org/2000/svg">
<g clip-path="url(#clip0_7_71)">
<path fill-rule="evenodd" clip-rule="evenodd" d="M28.8173 53.4979C18.8525 52.7104 10.6676 45.5508 8.36703 36.0773H12.1085C14.3 43.5277 20.8503 49.1246 28.8173 49.8757V36.0773H32.4376V42.5706C36.3726 41.9892 39.6781 39.4936 41.4095 36.0773H45.3446C43.3468 41.5167 38.3946 45.5387 32.4497 46.2171V49.8636V53.4979V57.1808H28.8173V53.4979ZM57.1498 28.8327V32.455H53.469C52.6819 42.4373 45.5141 50.6268 36.0457 52.9164V49.173C43.4921 46.9924 49.0859 40.4264 49.8366 32.455H36.0578V28.8327H42.5477C41.9665 24.9076 39.4723 21.6125 36.0578 19.8801V15.9308C41.4943 17.9539 45.5262 22.8845 46.1921 28.8327H49.8366H53.469H57.1498ZM28.8173 4.11914H32.4376V7.80194C42.4144 8.57731 50.5994 15.7491 52.8878 25.2105H49.1464C46.967 17.7601 40.4046 12.1753 32.4376 11.4363V25.2105H28.8173V18.7171C24.8944 19.3229 21.601 21.7942 19.8696 25.2105H15.9224C17.9444 19.7711 22.8723 15.7491 28.8173 15.0707V11.4363V7.80194V4.11914ZM4.11719 32.455V28.8327H7.79797C8.56075 18.8625 15.7408 10.6731 25.2091 8.37131V12.1147C17.7386 14.3075 12.1689 20.8614 11.4183 28.8327H25.2091V32.455H18.7072C19.3126 36.3922 21.7826 39.6995 25.2091 41.4319V45.3691C19.7607 43.3702 15.7408 38.4153 15.0507 32.4671H11.4183H7.78587H4.11719V32.455Z" fill="white"/>
<path fill-rule="evenodd" clip-rule="evenodd" d="M58.2153 33.6782C59.8862 33.6782 61.2423 32.3213 61.2423 30.6495C61.2423 28.9777 59.8862 27.5967 58.2153 27.5967C56.5444 27.5967 55.1641 28.9656 55.1641 30.6495C55.1762 32.3213 56.5444 33.6782 58.2153 33.6782Z" fill="white"/>
<path fill-rule="evenodd" clip-rule="evenodd" d="M58.2152 31.8978C58.9054 31.8978 59.4624 31.3405 59.4624 30.6499C59.4624 29.9594 58.9054 29.3901 58.2152 29.3901C57.5251 29.3901 56.9561 29.9594 56.9561 30.6499C56.9561 31.3405 57.5372 31.8978 58.2152 31.8978Z" fill="#1960CB"/>
<path fill-rule="evenodd" clip-rule="evenodd" d="M33.6593 58.2463C33.6593 56.5745 32.3032 55.1934 30.6323 55.1934C28.9493 55.1934 27.5811 56.5624 27.5811 58.2463C27.5811 59.9181 28.9372 61.2749 30.6323 61.2749C32.3032 61.287 33.6593 59.9303 33.6593 58.2463Z" fill="white"/>
<path fill-rule="evenodd" clip-rule="evenodd" d="M31.8803 58.2467C31.8803 57.5562 31.3233 56.9868 30.6332 56.9868C29.9309 56.9868 29.374 57.5562 29.374 58.2467C29.374 58.9373 29.9309 59.4945 30.6332 59.4945C31.3233 59.4945 31.8803 58.9373 31.8803 58.2467Z" fill="#1960CB"/>
<path fill-rule="evenodd" clip-rule="evenodd" d="M3.05119 33.6782C4.72208 33.6782 6.07815 32.3213 6.07815 30.6495C6.07815 28.9656 4.72208 27.5967 3.05119 27.5967C1.35609 27.5967 0 28.9656 0 30.6495C0 32.3213 1.35609 33.6782 3.05119 33.6782Z" fill="white"/>
<path fill-rule="evenodd" clip-rule="evenodd" d="M3.05121 31.8978C3.74136 31.8978 4.29832 31.3405 4.29832 30.6499C4.29832 29.9473 3.74136 29.3901 3.05121 29.3901C2.34895 29.3901 1.79199 29.9473 1.79199 30.6499C1.79199 31.3405 2.34895 31.8978 3.05121 31.8978Z" fill="#1960CB"/>
<path fill-rule="evenodd" clip-rule="evenodd" d="M27.5811 3.05286C27.5811 4.72467 28.9372 6.08149 30.6323 6.08149C32.3032 6.08149 33.6593 4.72467 33.6593 3.05286C33.6593 1.35683 32.3032 0 30.6323 0C28.9493 0 27.5811 1.35683 27.5811 3.05286Z" fill="white"/>
<path fill-rule="evenodd" clip-rule="evenodd" d="M29.374 3.05288C29.374 3.74341 29.9309 4.30067 30.6332 4.30067C31.3233 4.30067 31.8803 3.74341 31.8803 3.05288C31.8803 2.35023 31.3233 1.79297 30.6332 1.79297C29.9309 1.79297 29.374 2.35023 29.374 3.05288Z" fill="#1960CB"/>
<path fill-rule="evenodd" clip-rule="evenodd" d="M36.0568 53.728C37.5339 53.728 38.7447 52.5287 38.7447 51.0385C38.7447 49.5606 37.5339 48.3613 36.0568 48.3613C34.5796 48.3613 33.3809 49.5606 33.3809 51.0385C33.3809 52.5287 34.5796 53.728 36.0568 53.728Z" fill="white"/>
<path fill-rule="evenodd" clip-rule="evenodd" d="M36.0571 52.1164C36.6383 52.1164 37.1348 51.6439 37.1348 51.0381C37.1348 50.4567 36.6504 49.96 36.0571 49.96C35.4638 49.96 34.9795 50.4446 34.9795 51.0381C34.9795 51.6439 35.4638 52.1164 36.0571 52.1164Z" fill="#1960CB"/>
<path fill-rule="evenodd" clip-rule="evenodd" d="M37.8002 33.6782C39.4711 33.6782 40.8271 32.3213 40.8271 30.6495C40.8271 28.9777 39.4711 27.5967 37.8002 27.5967C36.1293 27.5967 34.749 28.9656 34.749 30.6495C34.749 32.3213 36.1293 33.6782 37.8002 33.6782Z" fill="white"/>
<path fill-rule="evenodd" clip-rule="evenodd" d="M37.8002 31.8978C38.4904 31.8978 39.0473 31.3405 39.0473 30.6499C39.0473 29.9594 38.4904 29.3901 37.8002 29.3901C37.1101 29.3901 36.541 29.9594 36.541 30.6499C36.541 31.3405 37.1101 31.8978 37.8002 31.8978Z" fill="#1960CB"/>
<path fill-rule="evenodd" clip-rule="evenodd" d="M33.6593 23.4777C33.6593 21.7938 32.3032 20.4248 30.6323 20.4248C28.9493 20.4248 27.5811 21.7816 27.5811 23.4777C27.5811 25.1495 28.9372 26.5062 30.6323 26.5062C32.3032 26.5184 33.6593 25.1495 33.6593 23.4777Z" fill="white"/>
<path fill-rule="evenodd" clip-rule="evenodd" d="M31.8803 23.4778C31.8803 22.7751 31.3233 22.2178 30.6332 22.2178C29.9309 22.2178 29.374 22.7751 29.374 23.4778C29.374 24.1683 29.9309 24.7255 30.6332 24.7255C31.3233 24.7255 31.8803 24.1683 31.8803 23.4778Z" fill="#1960CB"/>
<path fill-rule="evenodd" clip-rule="evenodd" d="M23.4653 27.5967C21.7822 27.5967 20.4141 28.9535 20.4141 30.6495C20.4141 32.3213 21.7701 33.6782 23.4653 33.6782C25.1362 33.6782 26.4922 32.3213 26.4922 30.6495C26.5043 28.9656 25.1362 27.5967 23.4653 27.5967Z" fill="white"/>
<path fill-rule="evenodd" clip-rule="evenodd" d="M23.4654 29.3901C22.7631 29.3901 22.2061 29.9473 22.2061 30.6499C22.2061 31.3405 22.7631 31.8978 23.4654 31.8978C24.1555 31.8978 24.7125 31.3405 24.7125 30.6499C24.7125 29.9473 24.1555 29.3901 23.4654 29.3901Z" fill="#1960CB"/>
<path fill-rule="evenodd" clip-rule="evenodd" d="M27.5811 37.8215C27.5811 39.4933 28.9372 40.85 30.6323 40.85C32.3032 40.85 33.6593 39.4933 33.6593 37.8215C33.6593 36.1376 32.3032 34.7686 30.6323 34.7686C28.9493 34.7686 27.5811 36.1254 27.5811 37.8215Z" fill="white"/>
<path fill-rule="evenodd" clip-rule="evenodd" d="M29.374 37.8215C29.374 38.512 29.9309 39.0692 30.6332 39.0692C31.3233 39.0692 31.8803 38.512 31.8803 37.8215C31.8803 37.1188 31.3233 36.5615 30.6332 36.5615C29.9309 36.5615 29.374 37.1188 29.374 37.8215Z" fill="#1960CB"/>
<path d="M82.3191 41.7838C82.2064 41.8289 81.981 41.9417 81.6428 42.1221C81.3047 42.3026 80.8764 42.4717 80.3579 42.6296C79.8394 42.765 79.2646 42.8326 78.6334 42.8326C78.0247 42.8326 77.4499 42.7198 76.9088 42.4943C76.3903 42.2462 75.9733 41.8853 75.6577 41.4116C75.3421 40.938 75.1843 40.3628 75.1843 39.6862V26.4236H72.7158V25.0365H75.1843V19.0142H76.875V25.0365H80.9666V26.4236H76.875V39.2802C76.9201 39.9343 77.1568 40.4305 77.5851 40.7688C78.0134 41.0846 78.5094 41.2425 79.073 41.2425C79.7718 41.2425 80.3804 41.1297 80.8989 40.9041C81.4174 40.656 81.7217 40.4981 81.8119 40.4305L82.3191 41.7838ZM91.434 42.968C90.1941 42.968 89.0444 42.7311 87.9849 42.2575C86.9254 41.7612 86.0011 41.0959 85.2121 40.2613C84.4457 39.4042 83.837 38.4231 83.3862 37.3178C82.9578 36.1901 82.7437 35.0059 82.7437 33.7654C82.7437 32.0963 83.1157 30.5851 83.8596 29.2318C84.6035 27.8784 85.6292 26.7958 86.9367 25.9838C88.2442 25.1493 89.7095 24.732 91.3325 24.732C93.0007 24.732 94.4773 25.1493 95.7622 25.9838C97.0472 26.8184 98.0616 27.9236 98.8055 29.2994C99.572 30.6528 99.9552 32.1414 99.9552 33.7654C99.9552 33.9007 99.9552 34.036 99.9552 34.1714C99.9552 34.3067 99.944 34.4195 99.9214 34.5097H84.502C84.5922 35.8405 84.9642 37.0472 85.6179 38.1298C86.2717 39.2125 87.1057 40.0696 88.1202 40.7011C89.1572 41.3101 90.2843 41.6146 91.5016 41.6146C92.7189 41.6146 93.8686 41.2989 94.9507 40.6673C96.0328 40.0358 96.7879 39.2238 97.2163 38.2313L98.7041 38.6373C98.366 39.4719 97.8249 40.2162 97.081 40.8703C96.3596 41.5244 95.503 42.0432 94.5111 42.4266C93.5418 42.7875 92.5161 42.968 91.434 42.968ZM84.4344 33.1902H98.3321C98.242 31.8144 97.8813 30.5964 97.2501 29.5363C96.6189 28.4762 95.7848 27.6416 94.7478 27.0326C93.7334 26.4236 92.6062 26.1191 91.3664 26.1191C90.1265 26.1191 88.9994 26.4236 87.9849 27.0326C86.9705 27.6416 86.1477 28.4762 85.5165 29.5363C84.8853 30.5964 84.5246 31.8144 84.4344 33.1902ZM110.133 42.968C108.916 42.968 107.778 42.7311 106.718 42.2575C105.659 41.7612 104.734 41.0959 103.945 40.2613C103.156 39.4042 102.536 38.4231 102.086 37.3178C101.657 36.2126 101.443 35.0285 101.443 33.7654C101.443 32.0737 101.815 30.5513 102.559 29.1979C103.303 27.8446 104.329 26.762 105.636 25.95C106.944 25.138 108.431 24.732 110.1 24.732C111.7 24.732 113.109 25.1041 114.326 25.8485C115.544 26.5702 116.457 27.5627 117.065 28.8258L115.409 29.3671C114.89 28.3972 114.146 27.6416 113.177 27.1003C112.23 26.5364 111.182 26.2545 110.032 26.2545C108.747 26.2545 107.586 26.5815 106.549 27.2356C105.512 27.8897 104.678 28.7919 104.047 29.9423C103.438 31.07 103.134 32.3444 103.134 33.7654C103.134 35.1638 103.449 36.4495 104.081 37.6223C104.712 38.7952 105.546 39.7313 106.583 40.4305C107.642 41.1071 108.803 41.4455 110.066 41.4455C110.877 41.4455 111.666 41.2989 112.433 41.0056C113.222 40.6899 113.898 40.2839 114.462 39.7877C115.048 39.2914 115.431 38.7614 115.611 38.1975L117.268 38.6712C116.975 39.5057 116.468 40.25 115.747 40.9041C115.025 41.5357 114.18 42.0432 113.211 42.4266C112.264 42.7875 111.238 42.968 110.133 42.968ZM134.443 42.6296H132.752V32.8181C132.752 30.6528 132.38 29.0288 131.636 27.9461C130.893 26.8409 129.81 26.2883 128.39 26.2883C127.466 26.2883 126.542 26.5251 125.617 26.9988C124.693 27.4725 123.893 28.1266 123.217 28.9611C122.54 29.7731 122.056 30.6979 121.763 31.7354V42.6296H120.072V17.9316H121.763V29.2318C122.484 27.8559 123.487 26.762 124.772 25.95C126.057 25.138 127.421 24.732 128.864 24.732C129.856 24.732 130.701 24.9124 131.4 25.2733C132.099 25.6342 132.673 26.153 133.124 26.8296C133.575 27.5063 133.902 28.3183 134.105 29.2656C134.33 30.2129 134.443 31.2956 134.443 32.5136V42.6296ZM147.975 41.7161C147.659 41.874 147.265 42.0432 146.791 42.2236C146.318 42.4041 145.777 42.562 145.168 42.6973C144.582 42.8326 143.973 42.9003 143.342 42.9003C142.576 42.9003 141.866 42.765 141.212 42.4943C140.558 42.2236 140.028 41.7951 139.623 41.2086C139.239 40.5996 139.048 39.8215 139.048 38.8742V27.8108H136.715V24.935H139.048V19.1157H142.767V24.935H146.622V27.8108H142.767V37.69C142.812 38.299 143.004 38.7501 143.342 39.0433C143.703 39.3365 144.142 39.4832 144.661 39.4832C145.179 39.4832 145.675 39.3929 146.149 39.2125C146.622 39.032 146.972 38.8854 147.197 38.7727L147.975 41.7161ZM148.252 37.4532C148.252 36.3254 148.568 35.3443 149.199 34.5097C149.853 33.6526 150.743 32.9985 151.87 32.5474C152.997 32.0737 154.305 31.8369 155.793 31.8369C156.582 31.8369 157.382 31.8933 158.194 32.0061C159.028 32.1188 159.76 32.2993 160.391 32.5474V31.4309C160.391 30.1904 160.019 29.2205 159.276 28.5213C158.532 27.8221 157.461 27.4725 156.063 27.4725C155.071 27.4725 154.136 27.6529 153.257 28.0138C152.377 28.3521 151.442 28.8371 150.45 29.4686L149.199 26.965C150.371 26.1755 151.543 25.5891 152.716 25.2056C153.91 24.8222 155.161 24.6305 156.469 24.6305C158.836 24.6305 160.696 25.262 162.048 26.5251C163.423 27.7657 164.111 29.5363 164.111 31.8369V38.4343C164.111 38.8629 164.179 39.1674 164.314 39.3478C164.472 39.5283 164.731 39.6298 165.092 39.6523V42.6296C164.754 42.6973 164.449 42.7424 164.179 42.765C163.908 42.7875 163.683 42.7988 163.502 42.7988C162.713 42.7988 162.116 42.6071 161.71 42.2236C161.304 41.8402 161.068 41.3891 161 40.8703L160.899 39.8553C160.132 40.8478 159.152 41.6146 157.957 42.156C156.762 42.6973 155.556 42.968 154.339 42.968C153.166 42.968 152.118 42.7311 151.194 42.2575C150.27 41.7612 149.548 41.0959 149.03 40.2613C148.511 39.4268 148.252 38.4907 148.252 37.4532ZM159.512 38.5358C159.783 38.2426 159.997 37.9494 160.155 37.6562C160.313 37.363 160.391 37.1036 160.391 36.878V34.848C159.76 34.5999 159.095 34.4195 158.396 34.3067C157.698 34.1714 157.01 34.1037 156.334 34.1037C154.981 34.1037 153.877 34.3744 153.02 34.9157C152.186 35.457 151.769 36.2014 151.769 37.1487C151.769 37.6675 151.904 38.1637 152.175 38.6373C152.468 39.111 152.873 39.4944 153.392 39.7877C153.933 40.0809 154.598 40.2275 155.387 40.2275C156.198 40.2275 156.976 40.0696 157.72 39.7538C158.464 39.438 159.061 39.032 159.512 38.5358ZM177.55 28.1491C176.108 28.1717 174.823 28.4987 173.696 29.1303C172.591 29.7618 171.802 30.6528 171.329 31.8031V42.6296H167.609V24.935H171.058V28.8934C171.667 27.6755 172.467 26.7056 173.459 25.9838C174.451 25.2395 175.499 24.8335 176.604 24.7658C176.829 24.7658 177.009 24.7658 177.145 24.7658C177.302 24.7658 177.438 24.7771 177.55 24.7996V28.1491ZM185.978 42.7988C184.783 42.7988 183.69 42.562 182.698 42.0883C181.706 41.5921 180.849 40.9267 180.128 40.0921C179.429 39.2576 178.877 38.299 178.471 37.2163C178.088 36.1337 177.896 34.9946 177.896 33.7992C177.896 32.5361 178.099 31.352 178.505 30.2468C178.91 29.1415 179.474 28.1717 180.195 27.3371C180.939 26.48 181.807 25.8146 182.799 25.341C183.791 24.8673 184.896 24.6305 186.113 24.6305C187.533 24.6305 188.773 24.9688 189.833 25.6455C190.915 26.3221 191.805 27.2018 192.504 28.2844V24.935H195.784V42.1221C195.784 43.8363 195.367 45.2911 194.533 46.4866C193.721 47.682 192.605 48.5955 191.185 49.2271C189.765 49.8586 188.164 50.1744 186.383 50.1744C184.422 50.1744 182.799 49.836 181.514 49.1594C180.229 48.4827 179.136 47.558 178.234 46.3851L180.331 44.4228C181.007 45.3701 181.875 46.0919 182.934 46.5881C184.016 47.0843 185.166 47.3324 186.383 47.3324C187.398 47.3324 188.333 47.1407 189.19 46.7572C190.069 46.3964 190.768 45.8212 191.287 45.0318C191.805 44.2649 192.064 43.295 192.064 42.1221V39.4155C191.433 40.4756 190.565 41.3101 189.461 41.9191C188.356 42.5056 187.195 42.7988 185.978 42.7988ZM187.195 39.7877C187.759 39.7877 188.3 39.6974 188.818 39.517C189.337 39.314 189.81 39.0546 190.238 38.7388C190.689 38.4005 191.072 38.0283 191.388 37.6223C191.704 37.1938 191.929 36.7427 192.064 36.269V31.6339C191.771 30.867 191.354 30.2016 190.813 29.6378C190.272 29.0513 189.663 28.6002 188.987 28.2844C188.311 27.9687 187.623 27.8108 186.924 27.8108C186.113 27.8108 185.38 27.9912 184.727 28.3521C184.095 28.6904 183.554 29.1528 183.103 29.7393C182.653 30.3031 182.303 30.946 182.055 31.6677C181.807 32.3895 181.683 33.1338 181.683 33.9007C181.683 34.7127 181.819 35.4683 182.089 36.1675C182.382 36.8667 182.777 37.4983 183.273 38.0622C183.768 38.6035 184.355 39.032 185.031 39.3478C185.707 39.641 186.429 39.7877 187.195 39.7877ZM207.243 42.968C205.868 42.968 204.617 42.7311 203.49 42.2575C202.385 41.7612 201.427 41.0959 200.616 40.2613C199.804 39.4042 199.173 38.4343 198.722 37.3517C198.294 36.2465 198.079 35.0736 198.079 33.8331C198.079 32.164 198.463 30.6415 199.229 29.2656C199.996 27.8672 201.066 26.7507 202.442 25.9161C203.817 25.059 205.428 24.6305 207.277 24.6305C209.126 24.6305 210.715 25.059 212.045 25.9161C213.397 26.7507 214.446 27.8559 215.19 29.2318C215.933 30.6076 216.305 32.085 216.305 33.6639C216.305 33.9346 216.294 34.1939 216.272 34.442C216.249 34.6676 216.227 34.8593 216.204 35.0172H202.036C202.103 36.0547 202.385 36.9682 202.881 37.7577C203.4 38.5246 204.053 39.1335 204.842 39.5847C205.631 40.0132 206.477 40.2275 207.378 40.2275C208.37 40.2275 209.306 39.9794 210.185 39.4832C211.087 38.9869 211.695 38.3328 212.011 37.5208L215.19 38.4343C214.806 39.2914 214.22 40.0696 213.431 40.7688C212.665 41.4455 211.752 41.9868 210.692 42.3928C209.633 42.7762 208.483 42.968 207.243 42.968ZM201.934 32.5474H212.62C212.552 31.5324 212.259 30.6415 211.741 29.8746C211.245 29.0852 210.602 28.4762 209.813 28.0476C209.047 27.5965 208.19 27.371 207.243 27.371C206.319 27.371 205.462 27.5965 204.673 28.0476C203.907 28.4762 203.276 29.0852 202.78 29.8746C202.284 30.6415 202.002 31.5324 201.934 32.5474ZM228 41.7161C227.684 41.874 227.29 42.0432 226.816 42.2236C226.343 42.4041 225.802 42.562 225.193 42.6973C224.607 42.8326 223.999 42.9003 223.367 42.9003C222.601 42.9003 221.891 42.765 221.237 42.4943C220.583 42.2236 220.054 41.7951 219.648 41.2086C219.265 40.5996 219.073 39.8215 219.073 38.8742V27.8108H216.74V24.935H219.073V19.1157H222.793V24.935H226.647V27.8108H222.793V37.69C222.838 38.299 223.029 38.7501 223.367 39.0433C223.728 39.3365 224.168 39.4832 224.686 39.4832C225.205 39.4832 225.701 39.3929 226.174 39.2125C226.647 39.032 226.997 38.8854 227.222 38.7727L228 41.7161Z" fill="white"/>
</g>
<defs>
<clipPath id="clip0_7_71">
<rect width="228" height="62" fill="white"/>
</clipPath>
</defs>
</svg>
