<svg width="313" height="306" viewBox="0 0 313 306" fill="none" xmlns="http://www.w3.org/2000/svg">
<path d="M242.73 244.7C241.24 244.691 239.771 244.349 238.43 243.7L65.6899 161.37C63.9992 160.551 62.5734 159.273 61.5757 157.681C60.578 156.089 60.0488 154.248 60.0488 152.37C60.0488 150.491 60.578 148.651 61.5757 147.059C62.5734 145.467 63.9992 144.189 65.6899 143.37L238.43 61.0199C240.792 60.0385 243.441 60 245.831 60.9121C248.221 61.8242 250.171 63.6177 251.279 65.9235C252.387 68.2293 252.569 70.8721 251.788 73.3082C251.007 75.7443 249.322 77.7883 247.08 79.0199L93.2299 152.35L247.08 225.67C249.113 226.655 250.753 228.299 251.733 230.335C252.712 232.371 252.973 234.679 252.474 236.882C251.974 239.086 250.742 241.055 248.98 242.469C247.218 243.883 245.029 244.659 242.77 244.67L242.73 244.7Z" fill="#FF6107"/>
<path d="M295.51 121.11L294.79 120.41C297.737 117.389 300.414 114.117 302.79 110.63L303.62 111.19C301.21 114.725 298.496 118.045 295.51 121.11Z" fill="#FF6107"/>
<path d="M242.74 140C281.4 140 312.74 108.66 312.74 70C312.74 31.3401 281.4 0 242.74 0C204.08 0 172.74 31.3401 172.74 70C172.74 108.66 204.08 140 242.74 140Z" fill="#FF6107"/>
<path d="M242.74 124.82C273.016 124.82 297.56 100.276 297.56 69.9999C297.56 39.7237 273.016 15.1799 242.74 15.1799C212.464 15.1799 187.92 39.7237 187.92 69.9999C187.92 100.276 212.464 124.82 242.74 124.82Z" fill="white"/>
<path d="M244.21 100.75C244.21 100.75 263.88 104.85 274.58 103.19C285.28 101.53 284.04 87.1899 275.58 80.0199C267.12 72.8499 269.08 74.5199 271.08 67.0199C273.08 59.5199 268.58 53.5199 260.08 53.1899C251.58 52.8599 259.8 42.1899 251.08 30.2699C242.36 18.3499 226.82 27.3499 225.7 32.6899C220.82 32.8499 215.7 40.7999 219.35 47.9899C223 55.1799 218.35 57.0599 215.49 65.7099C212.63 74.3599 224.06 76.0199 221.49 81.8499C218.92 87.6799 218.71 107.02 244.21 100.75Z" fill="#263238"/>
<path d="M225.08 85.9298C224.9 88.9298 224.55 91.7398 224.15 94.6198C223.75 97.4998 223.21 100.31 222.59 103.14C221.97 105.97 221.29 108.79 220.4 111.57C219.559 114.388 218.557 117.156 217.4 119.86L216.48 121.86C216.35 122.17 216.11 122.62 215.91 123C215.71 123.38 215.48 123.74 215.26 124.11C214.409 125.445 213.46 126.716 212.42 127.91C210.482 130.134 208.398 132.225 206.18 134.17C201.885 137.953 197.316 141.413 192.51 144.52L189.75 141.02C191.7 139.13 193.69 137.17 195.62 135.22C197.55 133.27 199.45 131.29 201.25 129.22C203.022 127.268 204.691 125.226 206.25 123.1C206.984 122.122 207.652 121.096 208.25 120.03C208.37 119.78 208.51 119.53 208.61 119.3C208.71 119.07 208.8 118.89 208.93 118.55L209.62 116.72C211.397 111.698 212.782 106.546 213.76 101.31C214.29 98.6698 214.66 95.9898 215.06 93.3098C215.46 90.6298 215.75 87.8898 215.99 85.3098L225.08 85.9298Z" fill="#FFB573"/>
<path d="M218.88 75.0199C215.19 75.9599 212.61 91.15 212.61 91.15L222.78 98.0199C222.78 98.0199 232.53 82.6999 229.69 78.6399C226.74 74.4499 224.27 73.6399 218.88 75.0199Z" fill="#FF6107"/>
<path opacity="0.2" d="M218.88 75.0199C215.19 75.9599 212.61 91.15 212.61 91.15L222.78 98.0199C222.78 98.0199 232.53 82.6999 229.69 78.6399C226.74 74.4499 224.27 73.6399 218.88 75.0199Z" fill="white"/>
<path opacity="0.2" d="M219.22 78.4099L216.38 93.7199L222.1 97.5899L219.22 78.4099Z" fill="black"/>
<path d="M191.43 139.67L181.29 140.4L187.35 147.2C187.35 147.2 192.95 145.92 193.93 142.33L191.43 139.67Z" fill="#FFB573"/>
<path d="M175.68 144L179.84 150.4L187.34 147.2L181.29 140.4L175.68 144Z" fill="#FFB573"/>
<path d="M218.88 75.0199C218.88 75.0199 214.62 76.5199 223.16 129.07H259.54C258.93 114.26 258.91 105.14 265.98 74.7599C260.888 73.7205 255.728 73.0521 250.54 72.7599C245.04 72.3694 239.52 72.3694 234.02 72.7599C226.93 73.3699 218.88 75.0199 218.88 75.0199Z" fill="#FF6107"/>
<path opacity="0.2" d="M218.88 75.0199C218.88 75.0199 214.62 76.5199 223.16 129.07H259.54C258.93 114.26 258.91 105.14 265.98 74.7599C260.888 73.7205 255.728 73.0521 250.54 72.7599C245.04 72.3694 239.52 72.3694 234.02 72.7599C226.93 73.3699 218.88 75.0199 218.88 75.0199Z" fill="white"/>
<path d="M248.9 54.1199C247.9 59.4399 246.82 69.1799 250.54 72.7199C250.54 72.7199 249.08 78.1099 239.21 78.1099C228.35 78.1099 234.02 72.7199 234.02 72.7199C239.95 71.3099 239.79 66.9099 238.76 62.7799L248.9 54.1199Z" fill="#FFB573"/>
<path d="M250.53 72.73C245.034 72.3296 239.516 72.3296 234.02 72.73L232.94 72.83C230.72 75.42 233.45 78.7 235.76 81.03C235.76 81.03 248.94 79.03 252.71 72.87C251.99 72.81 251.26 72.76 250.53 72.73Z" fill="#FFB573"/>
<path opacity="0.2" d="M244.77 57.6599L238.77 62.7799C239.021 63.7407 239.192 64.7207 239.28 65.7099C242.01 65.7099 244.39 63.7999 245.35 60.6499C245.69 59.5199 244.96 58.2099 244.77 57.6599Z" fill="black"/>
<path d="M249.2 40.0199C251.08 48.7099 252.07 52.3399 248.99 57.9399C244.36 66.3599 233.28 66.7699 228.84 58.8199C224.84 51.6699 222.44 38.6599 229.84 32.9099C231.465 31.6337 233.39 30.7943 235.432 30.4715C237.473 30.1487 239.563 30.3533 241.503 31.0657C243.443 31.7782 245.168 32.9749 246.516 34.5421C247.863 36.1093 248.787 37.995 249.2 40.0199Z" fill="#FFB573"/>
<path d="M236.22 46.0898C236.42 46.7898 236.22 47.4598 235.76 47.5898C235.3 47.7198 234.76 47.2498 234.58 46.5898C234.4 45.9298 234.58 45.2298 235.05 45.0998C235.52 44.9698 236.08 45.3998 236.22 46.0898Z" fill="#263238"/>
<path d="M228.36 48.31C228.56 49 228.36 49.67 227.9 49.8C227.44 49.93 226.9 49.47 226.72 48.8C226.54 48.13 226.72 47.44 227.19 47.31C227.66 47.18 228.17 47.61 228.36 48.31Z" fill="#263238"/>
<path d="M227.4 47.2598H225.59C225.59 47.2598 226.82 48.3198 227.4 47.2598Z" fill="#263238"/>
<path d="M231.14 48.8799C230.966 50.638 230.552 52.3639 229.91 54.0099C230.335 54.1644 230.79 54.2239 231.24 54.1842C231.691 54.1444 232.128 54.0064 232.52 53.7799L231.14 48.8799Z" fill="#ED893E"/>
<path d="M237.08 55.44C236.756 55.5855 236.422 55.7058 236.08 55.8C236.026 55.8159 235.967 55.8096 235.917 55.7824C235.868 55.7552 235.831 55.7094 235.815 55.655C235.799 55.6006 235.805 55.5422 235.833 55.4925C235.86 55.4428 235.906 55.4059 235.96 55.39C236.831 55.1654 237.638 54.7388 238.313 54.1446C238.989 53.5505 239.516 52.8055 239.85 51.97C239.858 51.9439 239.871 51.9198 239.889 51.899C239.906 51.8782 239.928 51.8612 239.952 51.849C239.976 51.8368 240.003 51.8298 240.03 51.8282C240.057 51.8267 240.084 51.8307 240.11 51.84C240.137 51.8468 240.162 51.8591 240.184 51.8762C240.206 51.8932 240.224 51.9147 240.237 51.9391C240.25 51.9636 240.258 51.9905 240.261 52.0182C240.263 52.0459 240.259 52.0738 240.25 52.1C239.968 52.838 239.542 53.513 238.998 54.0862C238.454 54.6594 237.802 55.1195 237.08 55.44V55.44Z" fill="#263238"/>
<path d="M227.54 34.02C225.64 36.19 246.32 47.32 250.54 45.32C254.76 43.32 250.96 32.18 245.63 29.77C240.3 27.36 233.29 27.44 227.54 34.02Z" fill="#263238"/>
<path d="M253.72 47.1699C253.574 48.8815 252.758 50.4663 251.45 51.5799C249.7 53.0399 247.89 51.6899 247.6 49.5799C247.34 47.6499 247.93 44.5799 250.06 43.9399C250.527 43.8123 251.018 43.8029 251.49 43.9124C251.961 44.0219 252.398 44.247 252.761 44.5673C253.124 44.8877 253.402 45.2932 253.569 45.7475C253.737 46.2018 253.788 46.6906 253.72 47.1699V47.1699Z" fill="#FFB573"/>
<path d="M238.93 43.5999C238.849 43.6376 238.758 43.6492 238.671 43.6331C238.583 43.6169 238.502 43.5739 238.44 43.5099C237.11 42.0599 234.6 42.3699 234.58 42.3699C234.524 42.3799 234.467 42.3789 234.411 42.3667C234.356 42.3545 234.304 42.3315 234.257 42.299C234.211 42.2664 234.171 42.225 234.141 42.1771C234.11 42.1292 234.09 42.0758 234.08 42.0199C234.073 41.9647 234.077 41.9086 234.092 41.855C234.107 41.8013 234.132 41.7512 234.167 41.7075C234.201 41.6637 234.244 41.6273 234.292 41.6002C234.341 41.5732 234.395 41.5561 234.45 41.5499C234.57 41.5499 237.45 41.1899 239.04 42.9499C239.118 43.0302 239.162 43.1378 239.162 43.2499C239.162 43.3619 239.118 43.4696 239.04 43.5499C239.007 43.573 238.969 43.5899 238.93 43.5999V43.5999Z" fill="#263238"/>
<path d="M224.98 45.3399C224.915 45.374 224.843 45.3919 224.77 45.3919C224.697 45.3919 224.625 45.374 224.56 45.3399C224.514 45.308 224.476 45.2673 224.446 45.2203C224.416 45.1732 224.396 45.1207 224.387 45.0658C224.377 45.0109 224.379 44.9547 224.392 44.9005C224.404 44.8462 224.427 44.795 224.46 44.7499C224.827 44.1857 225.325 43.7191 225.912 43.3899C226.499 43.0607 227.157 42.8788 227.83 42.8599C227.886 42.8598 227.941 42.871 227.993 42.8928C228.045 42.9145 228.091 42.9463 228.131 42.9864C228.17 43.0265 228.2 43.074 228.221 43.1261C228.241 43.1782 228.251 43.2339 228.25 43.2899C228.249 43.3459 228.236 43.4011 228.213 43.4522C228.19 43.5034 228.157 43.5494 228.116 43.5876C228.075 43.6258 228.027 43.6555 227.975 43.6747C227.922 43.694 227.866 43.7026 227.81 43.6999C227.277 43.7269 226.759 43.8797 226.296 44.1456C225.834 44.4115 225.441 44.7831 225.15 45.2299C225.104 45.2809 225.045 45.3188 224.98 45.3399Z" fill="#263238"/>
<path d="M269.91 84.3298C272.015 89.4488 273.815 94.688 275.3 100.02C276.897 105.436 277.982 110.991 278.54 116.61C278.6 117.34 278.62 118.08 278.66 118.82V119.37C278.66 119.56 278.66 119.71 278.66 120V120.77L278.59 121.45C278.396 123.01 278.061 124.55 277.59 126.05C276.743 128.742 275.741 131.383 274.59 133.96C272.354 138.965 269.822 143.834 267.01 148.54L262.91 146.6C264.66 141.6 266.42 136.48 267.99 131.47C268.76 128.97 269.49 126.47 269.99 124.04C270.242 122.951 270.405 121.844 270.48 120.73V120.4V120.16C270.48 120.16 270.48 119.93 270.48 119.78L270.43 119.33C270.36 118.72 270.31 118.13 270.22 117.51C269.401 112.448 268.208 107.455 266.65 102.57C265.11 97.5698 263.34 92.5698 261.51 87.7598L269.91 84.3298Z" fill="#FFB573"/>
<path d="M265.98 74.7599C269.63 75.8599 273.98 88.4099 273.98 88.4099L259.87 98.5199C259.87 98.5199 254.71 88.0499 256.24 83.3399C257.84 78.4299 261.82 73.4899 265.98 74.7599Z" fill="#FF6107"/>
<path opacity="0.2" d="M265.98 74.7599C269.63 75.8599 273.98 88.4099 273.98 88.4099L259.87 98.5199C259.87 98.5199 254.71 88.0499 256.24 83.3399C257.84 78.4299 261.82 73.4899 265.98 74.7599Z" fill="white"/>
<path d="M235.26 45.0198H233.45C233.45 45.0198 234.68 46.0998 235.26 45.0198Z" fill="#263238"/>
<path d="M260.08 126.93L261.01 130.19C261.14 130.44 260.84 130.7 260.42 130.7H222.98C222.66 130.7 222.38 130.54 222.36 130.33L222.03 127.08C222.03 126.85 222.3 126.66 222.66 126.66H259.49C259.603 126.65 259.717 126.67 259.82 126.717C259.924 126.765 260.013 126.838 260.08 126.93V126.93Z" fill="#263238"/>
<path d="M255.13 131.02H256.13C256.33 131.02 256.48 130.92 256.46 130.8L256 126.57C256 126.44 255.81 126.34 255.62 126.34H254.62C254.43 126.34 254.28 126.44 254.29 126.57L254.75 130.8C254.76 130.95 254.94 131.02 255.13 131.02Z" fill="#FF6107"/>
<path d="M225.76 131.02H226.76C226.96 131.02 227.11 130.92 227.09 130.8L226.63 126.57C226.63 126.44 226.45 126.34 226.25 126.34H225.25C225.06 126.34 224.91 126.44 224.92 126.57L225.38 130.8C225.39 130.95 225.56 131.02 225.76 131.02Z" fill="#FF6107"/>
<path d="M240.44 131.02H241.44C241.64 131.02 241.79 130.92 241.77 130.8L241.31 126.57C241.31 126.44 241.13 126.34 240.93 126.34H239.93C239.74 126.34 239.59 126.44 239.6 126.57L240.06 130.8C240.08 130.95 240.25 131.02 240.44 131.02Z" fill="#FF6107"/>
<path d="M263 145.77L256 152.45L265.05 153.45C265.05 153.45 268.35 148.74 266.67 145.45L263 145.77Z" fill="#FFB573"/>
<path d="M254.92 159.9L262.55 160.31L265.06 153.43L256.01 152.45L254.92 159.9Z" fill="#FFB573"/>
<path d="M20.7701 99.1701L20.0901 98.4301C25.043 93.8404 30.6013 89.9509 36.6101 86.8701L37.0701 87.7601C31.14 90.7992 25.6554 94.6384 20.7701 99.1701V99.1701Z" fill="#FF6107"/>
<path d="M13.08 107.46L12.3 106.84C13.53 105.28 14.8401 103.75 16.2001 102.3L16.93 102.98C15.61 104.41 14.32 105.92 13.08 107.46Z" fill="#FF6107"/>
<path d="M70 222.35C108.66 222.35 140 191.01 140 152.35C140 113.69 108.66 82.3501 70 82.3501C31.3401 82.3501 0 113.69 0 152.35C0 191.01 31.3401 222.35 70 222.35Z" fill="#FF6107"/>
<path d="M69.9999 207.17C100.276 207.17 124.82 182.626 124.82 152.35C124.82 122.074 100.276 97.53 69.9999 97.53C39.7237 97.53 15.1799 122.074 15.1799 152.35C15.1799 182.626 39.7237 207.17 69.9999 207.17Z" fill="white"/>
<path d="M94.7199 167.21C97.2999 173.21 99.9699 179.21 102.66 185.21C103.993 188.203 105.363 191.17 106.77 194.11C108.177 197.05 109.61 199.943 111.07 202.79C111.82 204.18 112.55 205.62 113.34 206.94L113.93 207.94L114.22 208.44C114.189 208.401 114.152 208.367 114.11 208.34C113.98 208.26 114.11 208.41 114.37 208.59C115.352 209.121 116.417 209.479 117.52 209.65C118.944 209.918 120.384 210.102 121.83 210.2C124.83 210.41 128.06 210.41 131.27 210.31L136.12 210.11L140.95 209.79L142.2 215.61C135.597 217.817 128.744 219.187 121.8 219.69C119.928 219.813 118.049 219.796 116.18 219.64C113.968 219.487 111.796 218.974 109.75 218.12C108.334 217.503 107.061 216.601 106.01 215.47C105.693 215.129 105.403 214.764 105.14 214.38L104.77 213.83L104.04 212.72C103.04 211.24 102.17 209.72 101.26 208.28C97.7799 202.34 94.6899 196.34 91.7799 190.28C88.8699 184.22 86.1699 178.11 83.6199 171.83L94.7199 167.21Z" fill="#D57773"/>
<path d="M80.5099 166.39C78.0799 173.48 92.3399 194.39 92.3399 194.39L106.01 186.82C103.685 180.317 100.943 173.97 97.7999 167.82C92.9799 158.74 83.1699 158.61 80.5099 166.39Z" fill="#FF6107"/>
<path opacity="0.5" d="M80.5099 166.39C78.0799 173.48 92.3399 194.39 92.3399 194.39L106.01 186.82C103.685 180.317 100.943 173.97 97.7999 167.82C92.9799 158.74 83.1699 158.61 80.5099 166.39Z" fill="black"/>
<path opacity="0.2" d="M80.3 167.29C83.36 165.82 86.88 167.05 90.59 172.9C94.3 178.75 97.46 188.55 97.8 191.35L92.34 194.35C92.34 194.35 79.17 175.08 80.3 167.29Z" fill="black"/>
<path d="M139.22 210.15L146.51 207.27L148.28 214.73C148.28 214.73 139.97 217.21 138.69 214.82L139.22 210.15Z" fill="#D57773"/>
<path d="M152.67 208.77L154.81 212.87L148.28 214.73L146.51 207.27L152.67 208.77Z" fill="#D57773"/>
<path d="M89.7298 160.96C89.7298 160.96 99.9198 184.9 92.5798 229.48H50.1798C49.6598 222.98 52.6498 191.22 45.3098 160.56C49.9757 159.654 54.6957 159.052 59.4398 158.76C65.4349 158.416 71.4448 158.416 77.4398 158.76C81.5864 159.18 85.6949 159.916 89.7298 160.96V160.96Z" fill="#FF6107"/>
<path opacity="0.5" d="M89.7298 160.96C89.7298 160.96 99.9198 184.9 92.5798 229.48H50.1798C49.6598 222.98 52.6498 191.22 45.3098 160.56C49.9757 159.654 54.6957 159.052 59.4398 158.76C65.4349 158.416 71.4448 158.416 77.4398 158.76C81.5864 159.18 85.6949 159.916 89.7298 160.96Z" fill="black"/>
<path opacity="0.2" d="M54.78 168.13C55.66 173.13 54.49 185.25 50.16 199.21C49.8264 187.244 48.4343 175.331 46 163.61V163.55C48.78 163.26 53.94 163.4 54.78 168.13Z" fill="black"/>
<path d="M60.5199 138.47C61.8599 144.27 63.3599 154.89 59.4399 158.76C59.4399 158.76 61.9199 164.61 72.6899 164.63C81.3299 164.63 77.4599 158.76 77.4599 158.76C70.9399 157.22 70.9399 152.42 71.9099 147.92L60.5199 138.47Z" fill="#D57773"/>
<path opacity="0.2" d="M65.1598 142.32L71.9098 147.91C71.6634 148.961 71.5128 150.032 71.4598 151.11C68.9798 150.75 65.4598 148.04 65.1398 145.45C64.9541 144.414 64.9608 143.353 65.1598 142.32V142.32Z" fill="black"/>
<path d="M77.43 121.22C81.03 123.55 81.55 134.76 76.28 136.36C71.01 137.96 70.6 116.81 77.43 121.22Z" fill="#263238"/>
<path d="M57.98 132.39C60.4 139.9 61.43 144.39 66.3 147.47C67.8763 148.483 69.6998 149.045 71.5728 149.095C73.4458 149.145 75.2968 148.681 76.9248 147.754C78.5529 146.826 79.8959 145.471 80.8082 143.834C81.7205 142.198 82.1673 140.342 82.1 138.47C82 131.27 78.1 120.2 69.78 118.81C67.9897 118.46 66.139 118.588 64.4141 119.182C62.6892 119.775 61.151 120.812 59.9546 122.189C58.7582 123.566 57.9458 125.234 57.5991 127.025C57.2524 128.816 57.3838 130.666 57.98 132.39Z" fill="#D57773"/>
<path d="M60.7098 124.65C64.7098 130.07 64.7098 138.71 61.5898 139.65C58.4698 140.59 49.7998 130.65 49.3498 125.31C48.9898 121.02 51.8398 121.02 51.8398 121.02C51.8398 121.02 47.2398 118.35 52.4598 115.14C58.3498 111.53 72.9298 111.88 66.3698 106.8C71.1198 105.22 72.9598 108.25 72.6598 110.09C76.1598 109.02 75.9298 105.22 75.9298 105.22C75.9298 105.22 85.2298 110.42 81.0398 116.48C76.8498 122.54 69.1398 124.49 60.7098 124.65Z" fill="#263238"/>
<path d="M56.6598 141.54C58.1027 142.934 60.0236 143.725 62.0298 143.75C64.6798 143.75 65.2098 141.25 63.8098 139.16C62.5598 137.27 59.6698 135.01 57.3398 136.02C55.0098 137.03 54.9098 139.81 56.6598 141.54Z" fill="#D57773"/>
<path d="M70.1598 132.02C70.3198 132.64 70.7798 133.07 71.1598 133.02C71.5398 132.97 71.7698 132.36 71.6098 131.74C71.4498 131.12 70.9898 130.74 70.6098 130.74C70.2298 130.74 70.0098 131.35 70.1598 132.02Z" fill="#263238"/>
<path d="M77.2199 130.43C77.3799 131.05 77.8399 131.48 78.2199 131.43C78.5999 131.38 78.8299 130.76 78.6699 130.15C78.5099 129.54 78.0599 129.1 77.6699 129.15C77.2799 129.2 77.0799 129.81 77.2199 130.43Z" fill="#263238"/>
<path d="M75.0798 131.23C76.3138 132.966 77.7733 134.529 79.4198 135.88C79.0612 136.277 78.6205 136.59 78.1283 136.799C77.6361 137.008 77.1043 137.107 76.5698 137.09L75.0798 131.23Z" fill="#803103"/>
<path d="M73.85 139.34C72.5509 139.356 71.2899 138.901 70.3 138.06C70.2822 138.044 70.2679 138.024 70.2578 138.002C70.2477 137.98 70.242 137.956 70.2411 137.932C70.2402 137.908 70.244 137.884 70.2524 137.861C70.2608 137.838 70.2735 137.818 70.29 137.8C70.3064 137.782 70.3261 137.768 70.3481 137.758C70.37 137.748 70.3937 137.742 70.4179 137.741C70.442 137.74 70.4661 137.744 70.4888 137.752C70.5114 137.761 70.5322 137.774 70.55 137.79C71.1809 138.291 71.9178 138.641 72.7045 138.814C73.4911 138.988 74.307 138.979 75.0899 138.79C75.1136 138.784 75.1382 138.783 75.1623 138.787C75.1864 138.791 75.2094 138.8 75.23 138.813C75.2505 138.826 75.2682 138.843 75.282 138.863C75.2957 138.883 75.3052 138.906 75.31 138.93C75.3194 138.979 75.3103 139.03 75.2845 139.072C75.2586 139.115 75.2177 139.146 75.17 139.16C74.7375 139.266 74.2951 139.327 73.85 139.34V139.34Z" fill="#263238"/>
<path d="M67.3698 130.19C67.3203 130.199 67.2694 130.199 67.2198 130.19C67.1742 130.171 67.1327 130.144 67.0978 130.109C67.0629 130.074 67.0353 130.033 67.0167 129.987C66.9981 129.941 66.9887 129.893 66.9893 129.843C66.9898 129.794 67.0002 129.745 67.0198 129.7C67.2429 129.152 67.5978 128.667 68.053 128.288C68.5083 127.91 69.0499 127.649 69.6298 127.53C69.7292 127.516 69.8303 127.541 69.9108 127.601C69.9914 127.661 70.045 127.751 70.0598 127.85C70.0668 127.899 70.0641 127.948 70.0518 127.996C70.0394 128.043 70.0177 128.088 69.9879 128.127C69.9581 128.166 69.9209 128.199 69.8783 128.224C69.8357 128.248 69.7886 128.264 69.7398 128.27V128.27C69.2942 128.378 68.8806 128.59 68.5329 128.889C68.1853 129.188 67.9135 129.566 67.7398 129.99C67.7069 130.058 67.6535 130.114 67.5871 130.15C67.5207 130.186 67.4447 130.2 67.3698 130.19V130.19Z" fill="#263238"/>
<path d="M79.61 127.36C79.5542 127.36 79.4992 127.347 79.449 127.323C79.3988 127.299 79.3547 127.264 79.32 127.22C79.021 126.844 78.6407 126.541 78.2077 126.333C77.7747 126.125 77.3003 126.018 76.82 126.02C76.7706 126.025 76.7206 126.021 76.6729 126.007C76.6253 125.992 76.581 125.969 76.5428 125.937C76.5045 125.905 76.473 125.866 76.4502 125.822C76.4274 125.778 76.4137 125.73 76.41 125.68C76.4045 125.631 76.409 125.581 76.4232 125.533C76.4375 125.485 76.4612 125.441 76.4929 125.403C76.5246 125.364 76.5638 125.333 76.6079 125.31C76.6521 125.287 76.7004 125.274 76.75 125.27C77.3526 125.257 77.9501 125.383 78.4964 125.638C79.0426 125.893 79.5228 126.27 79.9 126.74C79.9452 126.795 79.9737 126.862 79.9825 126.933C79.9913 127.004 79.9799 127.076 79.9496 127.141C79.9193 127.206 79.8714 127.261 79.8113 127.299C79.7512 127.338 79.6815 127.359 79.61 127.36V127.36Z" fill="#263238"/>
<path d="M53.68 172.02L52.0799 175.53C51.5299 176.74 50.9999 177.96 50.4799 179.19C49.4299 181.65 48.4799 184.13 47.4799 186.61C46.4799 189.09 45.6899 191.61 44.9799 194.08C44.5999 195.33 44.2899 196.57 43.9799 197.81L43.5699 199.67L43.5099 199.9V200.02C43.5099 200.02 43.5099 200.02 43.5099 200.13C43.6007 200.857 43.8316 201.56 44.1899 202.2C44.7112 203.207 45.3132 204.17 45.99 205.08C47.5254 207.142 49.1958 209.099 50.99 210.94C54.66 214.76 58.71 218.54 62.77 222.11L59.3399 227.02C54.2378 224.283 49.3916 221.094 44.8599 217.49C42.4908 215.615 40.2708 213.559 38.2199 211.34C37.1162 210.105 36.113 208.785 35.2199 207.39C34.0701 205.678 33.2744 203.754 32.88 201.73C32.7602 201.07 32.7 200.401 32.7 199.73C32.7005 199.369 32.7205 199.009 32.7599 198.65V198.24V197.96L33.06 195.7C33.32 194.22 33.5499 192.7 33.8999 191.28C34.5666 188.373 35.3399 185.527 36.2199 182.74C37.1099 179.95 38.1199 177.22 39.2199 174.53C39.7799 173.19 40.3599 171.85 40.9599 170.53C41.5599 169.21 42.1799 167.93 42.9599 166.53L53.68 172.02Z" fill="#D57773"/>
<path d="M45.3099 160.56C37.8399 161.65 30.1499 189.12 30.1499 189.12L48.1499 195.98C48.1499 195.98 52.6899 184.17 55.7899 174.98C59.0799 165.38 53.3099 159.39 45.3099 160.56Z" fill="#FF6107"/>
<path opacity="0.5" d="M45.3099 160.56C37.8399 161.65 30.1499 189.12 30.1499 189.12L48.1499 195.98C48.1499 195.98 52.6899 184.17 55.7899 174.98C59.0799 165.38 53.3099 159.39 45.3099 160.56Z" fill="black"/>
<path d="M61.4399 221.42L68.4399 224.74L63.5499 231.42C63.5499 231.42 57.5499 228.51 58.6099 224.95L61.4399 221.42Z" fill="#D57773"/>
<path d="M72.1998 230L67.2798 234.69L63.5298 231.42L68.4198 224.74L72.1998 230Z" fill="#D57773"/>
<path d="M242.74 304.69C281.4 304.69 312.74 273.35 312.74 234.69C312.74 196.03 281.4 164.69 242.74 164.69C204.08 164.69 172.74 196.03 172.74 234.69C172.74 273.35 204.08 304.69 242.74 304.69Z" fill="#FF6107"/>
<path d="M242.74 289.51C273.016 289.51 297.56 264.966 297.56 234.69C297.56 204.414 273.016 179.87 242.74 179.87C212.464 179.87 187.92 204.414 187.92 234.69C187.92 264.966 212.464 289.51 242.74 289.51Z" fill="white"/>
<path d="M223.41 252.88C223.24 255.88 222.9 258.55 222.51 261.37C222.12 264.19 221.6 266.92 221.01 269.68C219.854 275.273 218.18 280.747 216.01 286.03L215.11 288.03L214.89 288.53L214.78 288.78L214.62 289.1C214.308 289.73 213.918 290.318 213.46 290.85C212.909 291.475 212.248 291.994 211.51 292.38C210.792 292.764 210.009 293.012 209.2 293.11C207.967 293.247 206.719 293.117 205.54 292.73C203.89 292.168 202.332 291.362 200.92 290.34C199.694 289.468 198.522 288.523 197.41 287.51C193.274 283.646 189.553 279.359 186.31 274.72L189.76 271.81C191.68 273.61 193.69 275.44 195.7 277.17C197.658 278.904 199.704 280.536 201.83 282.06C202.819 282.788 203.851 283.455 204.92 284.06C205.769 284.577 206.689 284.968 207.65 285.22C207.98 285.28 208.19 285.22 208.04 285.22C207.754 285.247 207.486 285.37 207.28 285.57C207.21 285.63 207.2 285.64 207.21 285.57L207.52 284.75L208.2 282.97C209.9 278.044 211.237 273.001 212.2 267.88C212.72 265.31 213.08 262.69 213.47 260.08C213.86 257.47 214.14 254.79 214.37 252.31L223.41 252.88Z" fill="#FF8B7B"/>
<path d="M217.22 242.02C213.55 242.95 210.98 258.02 210.98 258.02L221.08 264.94C221.08 264.94 230.77 249.71 227.95 245.67C225.02 241.47 222.57 240.67 217.22 242.02Z" fill="#263238"/>
<path opacity="0.2" d="M217.55 245.4L214.73 260.62L220.41 264.47L217.55 245.4Z" fill="black"/>
<path d="M189.86 271.23L185.08 263.64L182.35 272.27C182.35 272.27 186.3 276.4 189.86 275.42V271.23Z" fill="#FF8B7B"/>
<path d="M178 261.12L176.11 268.47L182.32 272.27L185.05 263.64L178 261.12Z" fill="#FF8B7B"/>
<path d="M217.22 242.02C217.22 242.02 212.98 243.51 221.47 295.74H257.62C257.02 281.03 257 271.96 264.03 241.74C258.969 240.7 253.839 240.032 248.68 239.74C243.214 239.35 237.726 239.35 232.26 239.74C225.21 240.39 217.22 242.02 217.22 242.02Z" fill="#263238"/>
<path d="M225.23 203.5C238.17 182.79 276.5 199.77 256.49 220.16C229.74 247.41 225.23 203.5 225.23 203.5Z" fill="#263238"/>
<path d="M233.79 232.81C232.451 232.843 231.13 232.496 229.98 231.81C221.98 226.81 225.98 205.75 226.14 204.81C226.162 204.714 226.22 204.63 226.302 204.576C226.384 204.522 226.483 204.502 226.58 204.52C226.628 204.53 226.674 204.549 226.715 204.576C226.755 204.603 226.79 204.638 226.817 204.679C226.844 204.72 226.863 204.766 226.872 204.814C226.881 204.863 226.88 204.912 226.87 204.96C226.87 205.17 222.77 226.44 230.37 231.13C234.05 233.4 239.94 231.44 247.89 225.31C247.929 225.279 247.974 225.256 248.022 225.242C248.07 225.229 248.12 225.225 248.17 225.232C248.22 225.238 248.267 225.255 248.31 225.28C248.353 225.306 248.391 225.34 248.42 225.38C248.477 225.459 248.502 225.557 248.489 225.654C248.476 225.751 248.426 225.839 248.35 225.9C242.41 230.51 237.53 232.81 233.79 232.81Z" fill="#263238"/>
<path d="M249.5 197.65C253.5 185.56 274.93 189.42 267.39 202.29C259.41 215.91 249.5 197.65 249.5 197.65Z" fill="#263238"/>
<path d="M247.08 221.27C246.08 226.55 245.01 236.27 248.71 239.75C248.71 239.75 247.26 245.11 237.45 245.11C226.66 245.11 232.29 239.75 232.29 239.75C238.18 238.34 238.03 233.97 237.01 229.87L247.08 221.27Z" fill="#FF8B7B"/>
<path d="M236.67 245.1C238.226 246.654 239.439 248.518 240.23 250.57C242.12 249.9 251.87 244.57 252.06 239.57C250.763 239.223 249.447 238.946 248.12 238.74C244.86 241.735 240.936 243.915 236.67 245.1V245.1Z" fill="#FF6107"/>
<path d="M236.67 245.1C235.225 246.74 234.029 248.583 233.12 250.57C231.326 249.533 229.977 247.872 229.332 245.904C228.686 243.935 228.789 241.797 229.62 239.9C231.076 239.433 232.591 239.174 234.12 239.13C234.12 239.13 229.28 242.93 236.67 245.1Z" fill="#FF6107"/>
<path opacity="0.2" d="M242.94 224.78L236.94 229.87C237.196 230.823 237.367 231.797 237.45 232.78C239.7 232.45 242.79 229.98 243.03 227.63C243.174 226.682 243.144 225.717 242.94 224.78V224.78Z" fill="black"/>
<path d="M252.62 211.58C250.55 220.17 249.86 223.84 244.68 227.52C236.9 233.06 226.81 228.64 226.27 219.6C225.79 211.47 229.27 198.79 238.36 196.84C240.368 196.4 242.455 196.48 244.422 197.074C246.39 197.668 248.173 198.755 249.602 200.232C251.031 201.709 252.059 203.527 252.587 205.513C253.115 207.5 253.127 209.588 252.62 211.58V211.58Z" fill="#FF8B7B"/>
<path d="M238.08 210.41C237.95 211.11 237.48 211.62 237.02 211.54C236.56 211.46 236.28 210.82 236.41 210.11C236.54 209.4 237.01 208.89 237.47 208.98C237.93 209.07 238.15 209.7 238.08 210.41Z" fill="#263238"/>
<path d="M230.08 209.02C229.95 209.73 229.48 210.23 229.01 210.15C228.54 210.07 228.28 209.43 228.4 208.72C228.52 208.01 229.01 207.51 229.47 207.59C229.93 207.67 230.16 208.28 230.08 209.02Z" fill="#263238"/>
<path d="M229.63 207.64L228.01 206.85C228.01 206.85 228.65 208.33 229.63 207.64Z" fill="#263238"/>
<path d="M232.93 211.85C232.015 213.35 230.898 214.716 229.61 215.91C229.925 216.233 230.306 216.482 230.728 216.641C231.15 216.8 231.601 216.865 232.05 216.83L232.93 211.85Z" fill="#FF5652"/>
<path d="M235.24 220.16C236.777 220.18 238.261 219.603 239.38 218.55C239.418 218.509 239.439 218.456 239.439 218.4C239.439 218.344 239.418 218.291 239.38 218.25C239.36 218.23 239.337 218.214 239.311 218.203C239.286 218.193 239.258 218.187 239.23 218.187C239.202 218.187 239.174 218.193 239.149 218.203C239.123 218.214 239.1 218.23 239.08 218.25C238.421 218.852 237.63 219.291 236.77 219.531C235.91 219.77 235.006 219.804 234.13 219.63C234.075 219.621 234.018 219.634 233.971 219.665C233.925 219.697 233.892 219.745 233.88 219.8C233.871 219.856 233.884 219.912 233.915 219.959C233.947 220.005 233.995 220.038 234.05 220.05C234.443 220.118 234.841 220.155 235.24 220.16V220.16Z" fill="#263238"/>
<path d="M256.13 214.13C251.69 221.51 239.82 206.08 237.85 198.62C234.93 200.07 228.95 204.32 228.85 201.56C228.75 198.8 238.94 194.02 244.39 194.86C249.84 195.7 259.18 209.02 256.13 214.13Z" fill="#263238"/>
<path d="M253.98 218.44C253.323 220.016 252.068 221.268 250.49 221.92C248.39 222.76 247.09 220.92 247.49 218.83C247.82 216.93 249.33 214.2 251.49 214.26C251.974 214.276 252.447 214.413 252.864 214.66C253.281 214.906 253.63 215.253 253.878 215.669C254.126 216.086 254.265 216.557 254.283 217.042C254.301 217.526 254.197 218.007 253.98 218.44Z" fill="#FF8B7B"/>
<path d="M240.78 207.33C240.843 207.345 240.908 207.345 240.97 207.33C241.07 207.279 241.146 207.19 241.181 207.084C241.217 206.977 241.209 206.861 241.16 206.76C240.869 206.156 240.438 205.631 239.902 205.229C239.366 204.827 238.741 204.56 238.08 204.45C238.025 204.443 237.97 204.447 237.917 204.462C237.864 204.477 237.814 204.503 237.772 204.537C237.729 204.572 237.693 204.615 237.667 204.663C237.641 204.712 237.625 204.765 237.62 204.82C237.609 204.931 237.641 205.042 237.71 205.13C237.779 205.218 237.88 205.275 237.99 205.29C238.512 205.384 239.003 205.6 239.424 205.922C239.845 206.244 240.183 206.661 240.41 207.14C240.448 207.203 240.503 207.253 240.569 207.287C240.634 207.32 240.707 207.335 240.78 207.33V207.33Z" fill="#263238"/>
<path d="M228.13 205.94C228.246 205.935 228.356 205.889 228.44 205.81C228.795 205.418 229.237 205.116 229.73 204.926C230.224 204.737 230.755 204.666 231.28 204.72C231.335 204.73 231.391 204.729 231.445 204.718C231.499 204.706 231.55 204.684 231.596 204.652C231.642 204.62 231.68 204.58 231.71 204.533C231.74 204.487 231.761 204.435 231.77 204.38C231.782 204.326 231.782 204.27 231.772 204.216C231.761 204.162 231.74 204.11 231.709 204.065C231.679 204.019 231.639 203.98 231.593 203.95C231.546 203.92 231.495 203.899 231.44 203.89C230.776 203.809 230.102 203.887 229.474 204.118C228.847 204.35 228.283 204.727 227.83 205.22C227.752 205.3 227.708 205.408 227.708 205.52C227.708 205.632 227.752 205.74 227.83 205.82C227.87 205.859 227.917 205.889 227.968 205.91C228.02 205.931 228.075 205.941 228.13 205.94V205.94Z" fill="#263238"/>
<path d="M258.16 293.63L259.09 296.87C259.21 297.12 258.92 297.38 258.5 297.38H221.29C220.97 297.38 220.7 297.22 220.68 297.01L220.35 293.77C220.35 293.55 220.61 293.36 220.97 293.36H257.57C257.683 293.35 257.797 293.37 257.901 293.418C258.004 293.465 258.093 293.538 258.16 293.63V293.63Z" fill="#263238"/>
<path d="M253.25 297.73H254.25C254.44 297.73 254.59 297.62 254.58 297.5L254.12 293.3C254.12 293.17 253.93 293.07 253.74 293.07H252.74C252.54 293.07 252.39 293.17 252.41 293.3L252.87 297.5C252.88 297.62 253.08 297.73 253.25 297.73Z" fill="#FF6107"/>
<path d="M224.08 297.73H225.08C225.27 297.73 225.42 297.62 225.41 297.5L224.95 293.3C224.95 293.17 224.76 293.07 224.57 293.07H223.57C223.37 293.07 223.22 293.17 223.24 293.3L223.7 297.5C223.68 297.62 223.85 297.73 224.08 297.73Z" fill="#FF6107"/>
<path d="M238.65 297.73H239.65C239.84 297.73 239.99 297.62 239.98 297.5L239.52 293.3C239.52 293.17 239.33 293.07 239.14 293.07H238.14C237.94 293.07 237.79 293.17 237.81 293.3L238.27 297.5C238.28 297.62 238.45 297.73 238.65 297.73Z" fill="#FF6107"/>
<path d="M237.62 209.02L236 208.23C236 208.23 236.64 209.74 237.62 209.02Z" fill="#263238"/>
<path d="M267.94 251.29C269.925 256.128 271.641 261.072 273.08 266.1C274.598 271.187 275.692 276.392 276.35 281.66L276.56 283.66L276.66 285.75V286.27V286.61V287.17C276.6 287.878 276.446 288.574 276.2 289.24C275.782 290.291 275.172 291.254 274.4 292.08C273.245 293.268 271.921 294.279 270.47 295.08C269.227 295.774 267.937 296.382 266.61 296.9C261.648 298.804 256.474 300.1 251.2 300.76L250.2 296.37C254.797 294.697 259.277 292.719 263.61 290.45C264.592 289.909 265.543 289.315 266.46 288.67C267.216 288.177 267.89 287.57 268.46 286.87C268.64 286.62 268.67 286.45 268.64 286.49C268.589 286.548 268.561 286.623 268.56 286.7C268.555 286.726 268.555 286.754 268.56 286.78V286.64V286.21L268.37 284.5L268.09 282.76C267.92 281.61 267.65 280.42 267.42 279.25C267.19 278.08 266.9 276.9 266.57 275.72C265.98 273.36 265.28 271 264.57 268.64C263.07 263.97 261.42 259.2 259.68 254.64L267.94 251.29Z" fill="#FF8B7B"/>
<path d="M264.08 241.77C267.7 242.87 272.08 255.35 272.08 255.35L258.03 265.35C258.03 265.35 252.91 254.94 254.43 250.26C255.93 245.42 259.9 240.52 264.08 241.77Z" fill="#263238"/>
<path d="M250.73 296.02L241.13 295.42L246.53 302.69C246.53 302.69 252.19 301.92 253.48 298.45L250.73 296.02Z" fill="#FF8B7B"/>
<path d="M234.96 299.64L239.81 305.48L246.53 302.67L241.13 295.4L234.96 299.64Z" fill="#FF8B7B"/>
<path fill-rule="evenodd" clip-rule="evenodd" d="M75.8814 193.309C72.4644 193.039 69.6578 190.589 68.8689 187.347H70.1518C70.9033 189.897 73.1494 191.812 75.8814 192.069V187.347H77.1228V189.569C78.4721 189.37 79.6056 188.516 80.1993 187.347H81.5486C80.8636 189.208 79.1655 190.585 77.1269 190.817V192.065V193.309V194.569H75.8814V193.309ZM85.5967 184.867V186.107H84.3345C84.0646 189.523 81.6068 192.326 78.36 193.11V191.829C80.9134 191.082 82.8316 188.835 83.089 186.107H78.3642V184.867H80.5896C80.3903 183.524 79.535 182.396 78.3642 181.804V180.452C80.2284 181.144 81.6109 182.832 81.8392 184.867H83.089H84.3345H85.5967ZM75.8814 176.41H77.1228V177.67C80.5439 177.935 83.3505 180.39 84.1352 183.628H82.8523C82.105 181.078 79.8547 179.167 77.1228 178.914V183.628H75.8814V181.406C74.5362 181.613 73.4069 182.459 72.8132 183.628H71.4597C72.153 181.766 73.8428 180.39 75.8814 180.158V178.914V177.67V176.41ZM67.4116 186.107V184.867H68.6738C68.9353 181.455 71.3974 178.653 74.6441 177.865V179.146C72.0824 179.896 70.1726 182.139 69.9152 184.867H74.6441V186.107H72.4146C72.6222 187.455 73.4691 188.586 74.6441 189.179V190.527C72.7758 189.843 71.3974 188.147 71.1607 186.111H69.9152H68.6696H67.4116V186.107Z" fill="#13110C"/>
<path fill-rule="evenodd" clip-rule="evenodd" d="M85.962 186.526C86.535 186.526 87 186.062 87 185.489C87 184.917 86.535 184.445 85.962 184.445C85.3891 184.445 84.9158 184.913 84.9158 185.489C84.9199 186.062 85.3891 186.526 85.962 186.526Z" fill="#13110C"/>
<path fill-rule="evenodd" clip-rule="evenodd" d="M85.962 185.916C86.1987 185.916 86.3897 185.726 86.3897 185.489C86.3897 185.253 86.1987 185.058 85.962 185.058C85.7254 185.058 85.5303 185.253 85.5303 185.489C85.5303 185.726 85.7296 185.916 85.962 185.916Z" fill="#FF6107"/>
<path fill-rule="evenodd" clip-rule="evenodd" d="M77.542 194.934C77.542 194.362 77.077 193.889 76.504 193.889C75.9269 193.889 75.4578 194.358 75.4578 194.934C75.4578 195.506 75.9228 195.97 76.504 195.97C77.077 195.975 77.542 195.51 77.542 194.934Z" fill="#13110C"/>
<path fill-rule="evenodd" clip-rule="evenodd" d="M76.9317 194.934C76.9317 194.698 76.7407 194.503 76.504 194.503C76.2632 194.503 76.0723 194.698 76.0723 194.934C76.0723 195.17 76.2632 195.361 76.504 195.361C76.7407 195.361 76.9317 195.17 76.9317 194.934Z" fill="#FF6107"/>
<path fill-rule="evenodd" clip-rule="evenodd" d="M67.0463 186.526C67.6192 186.526 68.0842 186.062 68.0842 185.489C68.0842 184.913 67.6192 184.445 67.0463 184.445C66.465 184.445 66 184.913 66 185.489C66 186.062 66.465 186.526 67.0463 186.526Z" fill="#13110C"/>
<path fill-rule="evenodd" clip-rule="evenodd" d="M67.0463 185.916C67.2829 185.916 67.4739 185.726 67.4739 185.489C67.4739 185.249 67.2829 185.058 67.0463 185.058C66.8055 185.058 66.6145 185.249 66.6145 185.489C66.6145 185.726 66.8055 185.916 67.0463 185.916Z" fill="#FF6107"/>
<path fill-rule="evenodd" clip-rule="evenodd" d="M75.4578 176.045C75.4578 176.617 75.9228 177.081 76.504 177.081C77.077 177.081 77.542 176.617 77.542 176.045C77.542 175.464 77.077 175 76.504 175C75.9269 175 75.4578 175.464 75.4578 176.045Z" fill="#13110C"/>
<path fill-rule="evenodd" clip-rule="evenodd" d="M76.0723 176.045C76.0723 176.281 76.2632 176.472 76.504 176.472C76.7407 176.472 76.9317 176.281 76.9317 176.045C76.9317 175.804 76.7407 175.614 76.504 175.614C76.2632 175.614 76.0723 175.804 76.0723 176.045Z" fill="#FF6107"/>
<path fill-rule="evenodd" clip-rule="evenodd" d="M78.3641 193.387C78.8706 193.387 79.2858 192.977 79.2858 192.467C79.2858 191.961 78.8706 191.551 78.3641 191.551C77.8576 191.551 77.4465 191.961 77.4465 192.467C77.4465 192.977 77.8576 193.387 78.3641 193.387Z" fill="#13110C"/>
<path fill-rule="evenodd" clip-rule="evenodd" d="M78.3641 192.836C78.5634 192.836 78.7337 192.674 78.7337 192.467C78.7337 192.268 78.5676 192.098 78.3641 192.098C78.1607 192.098 77.9946 192.264 77.9946 192.467C77.9946 192.674 78.1607 192.836 78.3641 192.836Z" fill="#FF6107"/>
<path fill-rule="evenodd" clip-rule="evenodd" d="M78.9621 186.526C79.535 186.526 80 186.062 80 185.489C80 184.917 79.535 184.445 78.9621 184.445C78.3891 184.445 77.9158 184.913 77.9158 185.489C77.9158 186.062 78.3891 186.526 78.9621 186.526Z" fill="#13110C"/>
<path fill-rule="evenodd" clip-rule="evenodd" d="M78.9621 185.916C79.1987 185.916 79.3897 185.726 79.3897 185.489C79.3897 185.253 79.1987 185.058 78.9621 185.058C78.7254 185.058 78.5303 185.253 78.5303 185.489C78.5303 185.726 78.7254 185.916 78.9621 185.916Z" fill="#FF6107"/>
<path fill-rule="evenodd" clip-rule="evenodd" d="M77.542 183.035C77.542 182.459 77.077 181.99 76.504 181.99C75.9269 181.99 75.4578 182.455 75.4578 183.035C75.4578 183.607 75.9228 184.071 76.504 184.071C77.077 184.076 77.542 183.607 77.542 183.035Z" fill="#13110C"/>
<path fill-rule="evenodd" clip-rule="evenodd" d="M76.9317 183.035C76.9317 182.794 76.7407 182.604 76.504 182.604C76.2632 182.604 76.0723 182.794 76.0723 183.035C76.0723 183.271 76.2632 183.462 76.504 183.462C76.7407 183.462 76.9317 183.271 76.9317 183.035Z" fill="#FF6107"/>
<path fill-rule="evenodd" clip-rule="evenodd" d="M74.0463 184.445C73.4692 184.445 73 184.909 73 185.489C73 186.062 73.465 186.526 74.0463 186.526C74.6192 186.526 75.0842 186.062 75.0842 185.489C75.0884 184.913 74.6192 184.445 74.0463 184.445Z" fill="#13110C"/>
<path fill-rule="evenodd" clip-rule="evenodd" d="M74.0463 185.058C73.8055 185.058 73.6145 185.249 73.6145 185.489C73.6145 185.726 73.8055 185.916 74.0463 185.916C74.2829 185.916 74.4739 185.726 74.4739 185.489C74.4739 185.249 74.2829 185.058 74.0463 185.058Z" fill="#FF6107"/>
<path fill-rule="evenodd" clip-rule="evenodd" d="M75.4578 187.944C75.4578 188.516 75.9228 188.98 76.504 188.98C77.077 188.98 77.542 188.516 77.542 187.944C77.542 187.367 77.077 186.899 76.504 186.899C75.9269 186.899 75.4578 187.363 75.4578 187.944Z" fill="#13110C"/>
<path fill-rule="evenodd" clip-rule="evenodd" d="M76.0723 187.944C76.0723 188.18 76.2632 188.371 76.504 188.371C76.7407 188.371 76.9317 188.18 76.9317 187.944C76.9317 187.703 76.7407 187.513 76.504 187.513C76.2632 187.513 76.0723 187.703 76.0723 187.944Z" fill="#FF6107"/>
</svg>
